<svg width="85" height="109" viewBox="0 0 85 109" fill="none" xmlns="http://www.w3.org/2000/svg">
<path d="M14.74 88.16C14.45 89.19 16.28 91.24 17.2 91.84C17.24 92.1 17.38 92.61 17.39 92.78C17.09 92.82 16.04 94.29 16.07 94.43C16.85 95.04 18.87 96.8 19.71 96.93C36.89 97.38 54.11 97.64 71.3 97.21C71.41 97.14 71.62 96.99 71.63 96.88C71.67 96.59 69.63 91.59 69.46 91.35C70.59 90.56 71.65 89.66 72.29 88.42C74.46 92.05 76.24 95.94 78.34 99.62C78.43 99.78 78.65 99.87 78.81 99.95C78.8 100.05 78.83 100.19 78.81 100.23C54.46 99.82 30.09 100.14 5.72998 100.04C5.63998 100.08 5.69998 100.24 5.67998 100.32C5.66998 100.39 5.67998 100.43 5.58998 100.41C5.59998 100.23 5.44998 100.17 5.49998 99.98C7.17998 98.11 12.1 89.6 12.96 88.64C13.59 87.94 13.66 88.23 14.47 88.03C14.54 88.04 14.56 88.1 14.75 88.12L14.74 88.16Z" fill="url(#paint0_linear_38_223)"/>
<path d="M75.78 100.34C75.25 100.68 73.96 101.13 73.89 102.04C72.76 102.32 72.29 103.99 71.34 103.6L72.85 102.37C68.93 102.77 64.95 103.12 60.99 103.36L60.42 103.74C59.41 103.82 57.78 103.55 57.73 103.93C47.75 103.94 37.76 103.94 27.78 103.93C27.78 103.87 27.8 103.76 27.73 103.74C26.9 103.54 15.4 103.93 14.79 103.74C14.75 103.73 14.24 103.16 14.27 103.13C14.35 103.03 15.03 103.12 15.03 102.85C15.03 101.98 7.08996 101.43 6.14996 100.44C8.23996 100.52 10.38 100.44 12.48 100.44C12.69 101.79 12.72 101.09 13.28 101.29C13.38 101.32 13.28 101.55 13.37 101.57C13.82 101.69 16.02 101.67 16.87 101.76C20.77 102.17 24.64 102.76 28.59 102.52L31.9 102.99C36.54 102.65 43.56 103.89 47.73 102.99C47.8 103.1 47.84 103.26 47.87 103.27C48.27 103.38 55.22 102.43 56.09 102.23C56.12 102.23 56.24 102.1 56.23 102.04C58.87 101.79 61.08 101.2 63.65 100.72C64.16 100.62 64.75 100.94 64.64 100.44C68.36 100.43 72.07 100.34 75.79 100.35L75.78 100.34Z" fill="url(#paint1_linear_38_223)"/>
<path d="M74.83 103.93C69.13 103.99 63.43 103.93 57.73 103.93C57.78 103.55 59.41 103.82 60.42 103.74L60.99 103.36C64.95 103.12 68.93 102.77 72.85 102.37L71.34 103.6C72.29 103.99 72.76 102.32 73.89 102.04L75.69 101.61C75.79 101.82 70.76 104.51 73.94 103.74C74.2 103.68 78.15 100.91 78.71 101.71C79.3 102.54 75.89 102.4 74.84 103.93H74.83Z" fill="#7D472B"/>
<path d="M74.83 103.93C75.88 102.4 79.29 102.54 78.7 101.71C78.13 100.91 74.19 103.68 73.93 103.74C70.74 104.51 75.78 101.82 75.68 101.61L73.88 102.04C73.95 101.13 75.24 100.68 75.77 100.34C77.1 100.34 78.61 100.61 78.79 100.25C78.81 100.21 78.78 100.07 78.79 99.97L78.98 100.21L78.84 103.94C77.5 103.95 76.16 103.93 74.82 103.94L74.83 103.93Z" fill="#9A5C38"/>
<path d="M72.09 88.16C72.13 88.27 72.22 88.34 72.28 88.44C71.63 89.68 70.57 90.58 69.45 91.37C69.33 91.21 69.02 91.02 68.79 91.09C68.91 90.11 69.05 89.14 69.17 88.16C70.09 88.05 71.21 88.31 72.1 88.16H72.09Z" fill="#AE7147"/>
<path d="M69.4499 91.37C69.6299 91.61 71.66 96.6 71.62 96.9C71.61 97.01 71.4 97.16 71.29 97.23C54.1 97.66 36.89 97.39 19.7 96.95C18.86 96.81 16.84 95.06 16.06 94.45C16.03 94.3 17.09 92.83 17.38 92.8C17.4 93.08 17.38 93.37 17.38 93.65C17.39 94.32 16.39 95.34 18.99 95.35C19.37 96.34 19.49 96.09 20.45 96.11C35.87 96.33 51.32 95.6 66.75 96.02L67.08 95.26C69.19 95.29 68.33 94.32 68.4 93.65C68.49 92.81 68.6699 91.95 68.7799 91.1C69.0099 91.04 69.32 91.22 69.44 91.38L69.4499 91.37Z" fill="#9A5C38"/>
<path d="M78.8 100.25C78.62 100.62 77.11 100.35 75.78 100.34C72.06 100.34 68.35 100.42 64.63 100.43C47.25 100.49 29.86 100.43 12.47 100.43C10.37 100.43 8.22998 100.51 6.13998 100.43C5.95998 100.43 5.82998 100.46 5.66998 100.34C5.67998 100.26 5.62998 100.1 5.71998 100.06C30.08 100.16 54.45 99.84 78.8 100.25Z" fill="#F9D581"/>
<path d="M16.63 88.16C16.76 89.37 17.15 90.61 17.2 91.84C16.29 91.24 14.45 89.19 14.74 88.16C15.33 88.22 16.03 88.11 16.63 88.16Z" fill="#9A5C38"/>
<path d="M64.63 100.44C64.74 100.95 64.15 100.63 63.64 100.72C61.07 101.2 58.87 101.8 56.22 102.04C54.09 102.24 49.25 102.31 48.8 102.42C48.71 102.44 48.3 102.86 47.71 102.99C43.55 103.89 36.52 102.65 31.88 102.99L28.57 102.52C24.62 102.76 20.76 102.17 16.85 101.76C16.01 101.67 13.8 101.69 13.35 101.57C13.26 101.55 13.35 101.32 13.26 101.29C12.7 101.09 12.67 101.79 12.46 100.44C29.84 100.44 47.23 100.5 64.62 100.44H64.63Z" fill="#AE7147"/>
<path d="M56.22 102.04C56.22 102.1 56.11 102.22 56.08 102.23C55.21 102.43 48.26 103.38 47.86 103.27C47.83 103.27 47.79 103.1 47.72 102.99C48.3 102.86 48.72 102.44 48.81 102.42C49.26 102.32 54.09 102.24 56.23 102.04H56.22Z" fill="#9A5C38"/>
<path d="M6.13997 100.44C7.07997 101.42 15.02 101.98 15.02 102.85C15.02 103.12 14.34 103.03 14.26 103.13C14.23 103.16 14.74 103.73 14.78 103.74C15.4 103.93 26.9 103.54 27.72 103.74C27.79 103.76 27.77 103.87 27.77 103.93C20.42 103.93 13.06 103.93 5.70997 103.93C5.49997 103.84 5.52997 100.85 5.56997 100.43C5.65997 100.44 5.64997 100.4 5.65997 100.34C5.82997 100.46 5.94997 100.43 6.12997 100.43L6.13997 100.44Z" fill="#9A5C38"/>
<path d="M5.71995 102.42C5.83995 102.33 8.88995 104 7.03995 103.74C6.92995 103.73 5.22995 102.78 5.71995 102.42Z" fill="#9A5C38"/>
<path d="M71.24 66.9C70.94 66.8 71.09 67.57 70.91 68.32C70.85 68.24 70.68 68.12 70.67 68.08C70.61 67.82 71.8 64.86 68.45 64.25H17.53C16.8 64.3 15.75 64.79 15.4 65.43C14.71 66.71 15.55 68.55 14.83 68.5C14.78 68.23 14.68 67.21 14.55 67.08C14.54 67.07 14.44 67.08 14.36 67.08C14.69 65.59 13.89 64.05 16.96 63.58H69.02C71.46 64.01 71.3 65.28 71.24 66.89V66.9Z" fill="#9DBECC"/>
<path d="M70.11 75.68C69.53 81.54 69.13 87.44 68.22 93.25H17.76C17.18 90.06 16.89 86.83 16.53 83.61C24.17 83.4 31.9 84.1 39.49 83.14C39.91 83.79 43.86 84.97 44.64 84.94C45.48 84.9 46.47 84.08 46.67 83.33C47.21 81.3 45.16 82.37 44.73 82.39C44.35 82.41 44.06 82.21 44.02 82.2L46.76 81.4C46.89 81.11 45.2 79.87 45.15 78.9C45.52 79.16 47.02 81.5 47.18 81.55C47.46 81.63 47.93 80.89 47.98 80.7C55.44 79.53 63.12 78.71 70.09 75.69L70.11 75.68Z" fill="url(#paint2_linear_38_223)"/>
<path d="M45.45 78.05C45.01 78.46 45.16 78.71 45.17 78.9C45.22 79.87 46.91 81.11 46.78 81.4L44.04 82.2C43.7 82.14 42.17 81.77 42.15 81.49L45.46 77.38C45.45 77.62 45.29 77.81 45.46 78.04L45.45 78.05Z" fill="#9DBECC"/>
<path d="M14.83 68.5C15.66 73.33 15.99 78.68 16.53 83.62C16.88 86.84 17.18 90.06 17.76 93.26L17.48 93.64H17.39C17.39 93.36 17.41 93.07 17.39 92.79C17.38 92.62 17.24 92.1 17.2 91.85C17.15 90.62 16.77 89.37 16.63 88.17C16.63 88.14 16.63 88.11 16.63 88.08C16.39 85.91 16.3 83.73 16.06 81.56C16.02 81.14 15.88 80.84 15.87 80.8C15.75 79.65 15.71 78.46 15.59 77.3C15.56 76.98 15.43 76.58 15.4 76.26C15.36 75.88 15.31 75.99 15.31 75.98C15.31 75.95 15.37 75.9 15.31 75.32C15.25 74.77 15.27 74.17 15.22 73.62C15.2 73.4 15.15 73.17 15.13 72.96C15.13 72.87 15.13 72.77 15.13 72.68C15.13 72.59 15.13 72.49 15.13 72.4C14.95 70.64 14.6 68.88 14.56 67.11C14.69 67.24 14.8 68.26 14.84 68.53L14.83 68.5Z" fill="#FDFDFF"/>
<path d="M71.05 69.35C70.83 70.6 70.7 71.86 70.58 73.13C70.58 73.2 70.5 73.21 70.49 73.41C70.49 73.44 70.49 73.47 70.49 73.5C70.42 74.27 70.47 75.08 70.4 75.86C70.4 75.95 70.4 76.05 70.4 76.14C70.37 76.5 70.24 76.91 70.21 77.27C70.1 78.43 70.04 79.6 69.93 80.77C69.91 80.99 69.8599 81.22 69.8399 81.43C69.6699 83.13 69.55 84.83 69.37 86.53C69.32 87 69.33 87.5 69.28 87.95C69.27 88.04 69.2 88.05 69.19 88.14C69.08 89.12 68.94 90.09 68.81 91.07C68.7 91.92 68.53 92.79 68.43 93.62H68.15C68.1 93.39 68.23 93.33 68.24 93.24C69.15 87.42 69.55 81.52 70.13 75.67C70.29 74.09 70.21 72.46 70.51 70.9C70.58 70.55 70.99 69.03 71.08 69.34L71.05 69.35Z" fill="#FDFDFF"/>
<path d="M45.45 77.38L42.14 81.49C42.16 81.77 43.69 82.14 44.03 82.2C44.07 82.2 44.36 82.41 44.74 82.39C45.16 82.37 47.22 81.3 46.68 83.33C46.25 83.94 45.12 84.68 44.37 84.65C44.1 84.65 39.48 83.44 39.41 82.67C39.4 82.6 39.17 82.23 39.41 81.68C41.2 80.33 45.66 73.55 45.46 77.38H45.45Z" fill="#FDFDFF"/>
<path d="M48 80.69C47.94 80.88 47.48 81.62 47.2 81.54C47.04 81.5 45.54 79.15 45.17 78.89C45.17 78.7 45.01 78.45 45.45 78.04C46.98 76.63 48.41 79.29 48 80.69Z" fill="#FDFDFF"/>
<path d="M46.68 83.34C46.48 84.09 45.48 84.91 44.65 84.95C43.87 84.98 39.92 83.81 39.5 83.15C39.22 82.71 39.41 82.7 39.41 82.68C39.48 83.46 44.1 84.65 44.37 84.66C45.13 84.69 46.25 83.95 46.68 83.34Z" fill="#4D7481"/>
<path d="M71.24 66.9C71.21 67.77 70.93 68.45 71.15 69.36H71.06C70.97 69.05 70.56 70.57 70.49 70.92C70.2 72.49 70.27 74.11 70.11 75.69C63.14 78.7 55.46 79.53 48 80.7C48.41 79.3 46.98 76.64 45.45 78.05C45.28 77.82 45.44 77.63 45.45 77.39C45.65 73.56 41.2 80.34 39.4 81.69C39.16 82.24 39.39 82.61 39.4 82.68C39.4 82.7 39.21 82.72 39.49 83.15C31.9 84.11 24.17 83.41 16.53 83.62C15.99 78.69 15.66 73.33 14.83 68.5C15.55 68.55 14.7 66.71 15.4 65.43C15.75 64.79 16.79 64.3 17.53 64.25H68.46C71.81 64.86 70.62 67.82 70.68 68.08C70.68 68.12 70.85 68.23 70.92 68.32C71.1 67.57 70.95 66.8 71.25 66.9H71.24Z" fill="url(#paint3_linear_38_223)"/>
<path d="M41.67 77.19C40.34 78.24 38.73 81.2 38.36 79.55C38.17 76.32 41.88 74.92 41.67 77.19Z" fill="#FDFDFF"/>
<path d="M38.36 79.56C38.73 81.2 40.34 78.25 41.67 77.2C41.62 77.69 39.1 80.47 38.88 80.51C38.36 80.61 38.38 79.85 38.36 79.57V79.56Z" fill="#678FA0"/>
<path d="M68.22 93.26C68.21 93.35 68.08 93.41 68.13 93.64H17.48L17.76 93.26H68.22Z" fill="#9DBECC"/>
<path d="M68.12 93.64H68.4C68.33 94.3 69.19 95.28 67.08 95.25L18.99 95.34C16.39 95.32 17.4 94.31 17.38 93.64H68.12Z" fill="#7CA5B5"/>
<path d="M67.08 95.24L66.75 96C51.33 95.58 35.87 96.31 20.45 96.09C19.48 96.08 19.37 96.32 18.99 95.33L67.08 95.24Z" fill="#4D7481"/>
<path d="M71.9 86.08C71.62 86.31 71.29 86.65 71.05 86.84C70.51 87.26 69.88 87.67 69.25 87.97C69.3 87.52 69.29 87.02 69.34 86.55L69.53 86.69C69.63 85.02 70.18 83.42 70.66 81.82C72.86 83.48 71.68 85.7 71.7 85.93C71.7 86 71.91 85.93 71.89 86.07L71.9 86.08Z" fill="#DB8755"/>
<path d="M72.8499 83.9C72.7999 84.64 72.5899 85.17 72.2799 85.79C72.1499 85.87 72.0199 85.98 71.8999 86.07C71.9199 85.93 71.7199 86 71.7099 85.93C71.6899 85.7 72.8699 83.48 70.6699 81.82C70.4599 81.66 70.4099 81.51 69.8199 81.44C69.8399 81.23 69.89 81 69.91 80.78C72.09 80.61 72.9899 81.81 72.8399 83.9H72.8499Z" fill="#C9693B"/>
<path d="M70.68 81.82C70.19 83.42 69.65 85.01 69.55 86.69L69.36 86.55C69.55 84.85 69.67 83.15 69.83 81.45C70.42 81.52 70.47 81.67 70.68 81.83V81.82Z" fill="#C9693B"/>
<path d="M59.24 15.78C59.24 16.43 58.74 15.56 58.39 16.02C59.14 18.91 56.15 13.36 56.12 15.08C56.11 15.98 57.77 17.22 58.58 17.54C58.68 17.87 58.23 17.73 58.2 17.92C58.19 18 59.22 19.25 58.15 18.06C57.88 19.96 60.4 21.47 60.37 21.7C60.32 22.03 59.97 21.74 59.94 21.75C59.57 21.81 60.21 21.93 59.8 22.22C59.87 21.85 59.25 22.12 58.81 22.03C58.5 21.97 57.45 21.53 57.06 21.37C57.29 21.37 57.43 21.37 57.63 21.23C55.37 19.66 54.05 17.21 52.53 14.99C52.21 14.13 54.98 16.47 55.79 16.83C55.14 14.6 55.07 13.55 53.57 11.59C53.83 11.23 56.73 13.31 56.88 12.72C53.06 9.68001 50.94 7.45001 45.87 6.34001C44.69 6.69001 42.51 6.58001 45.26 6.29001C45.26 6.10001 41.27 5.57001 43.32 7.28001C43.69 7.41001 43.13 6.77001 44.26 7.00001C46.75 7.50001 50.59 9.93001 52.24 11.96C51.1 11.73 48.25 8.35001 48.04 10.78C46.48 10.44 42.71 9.00001 46.2 11.21C46.01 11.55 45.3 10.69 45.16 11.12L46.01 12.82C43.15 10.12 45.5 12.52 45.58 14.19C41.87 10.2 42.17 10.5 44.68 15.09C44.5 15.58 44.22 15.05 43.74 14.85L43.03 13.34C42.72 13.72 43.08 13.92 43.08 13.95C42.94 14.92 41.2 12.34 39.77 12.25C40.4 12.79 41.09 13.8 41.42 14.56C39.2 13.95 37.25 12.92 35.66 11.25C35.38 11.22 36.23 12.45 36.04 12.76L34.34 11.63L34.2 11.77C35.61 13.68 39.87 18.51 41.52 19.66C44.31 21.6 41.96 19.33 40.62 17.25C39.28 15.16 40.87 17.34 42.75 18.43C42.9 17.89 42.42 17.4 42.42 17.34C42.3 16.03 44.97 18.89 45.07 19.37C44.22 18.68 43.17 17.64 43.18 18.19C43.19 18.82 45.82 21.79 47.34 22.44C43.28 22.54 39.67 19.31 36.8 16.72C36.75 18.01 37.69 19.41 38.55 20.36C36.88 19.82 36.45 18.36 35.9 19.27C35.9 19.28 35.68 19.2 35.71 19.41C35.73 19.55 37.44 21.19 37.69 21.44C38.44 22.18 39.09 22.96 40 23.52C41.44 24.39 44.61 25.11 43.02 24.94C42.76 24.91 40.87 24.4 40.52 24.28C39.99 24.09 39.41 23.8 38.91 23.52C37.06 22.5 34.86 20.1 33.9 18.23C33.69 17.82 33.63 17.24 33.33 16.86C33.35 17.88 33.39 18.94 32.81 19.84C32.93 18.94 33.15 17.21 32.76 17.1C32.8 16.81 33.22 16.05 32.57 15.45C32.32 16.72 28.71 23.75 27.99 24L27.85 23.95C28.12 23.29 28.21 22.55 28.42 21.87C28.86 20.42 30.32 17.44 29.27 18.94C28.48 20.07 28.01 21.74 27.62 23.05C27.39 21.18 28.52 19.42 28.52 19.22C28.52 19.01 28.44 19.08 28.33 19.22C27.12 20.85 26.24 25.73 26.77 27.87C26.25 26.82 25.7 23.73 25.78 22.72C25.78 22.67 26.01 22.68 26.06 21.73C26.39 21.66 26.54 20.34 26.82 19.7C27.67 17.71 27.72 18.61 27.81 18.61C28.03 18.62 29.38 16.66 31.21 15.87L31.3 16.91C31.96 15.67 32.28 14.67 31.02 15.11C29.75 15.55 26.3 18.95 28.99 15.72C29.32 15.32 29.96 14.84 30.22 14.49C30.42 14.22 31.53 12.44 31.21 12.36C30.47 12.19 27.71 15.13 28.71 13.45C29.43 12.23 30.87 11.86 32.02 11.18C28.6 10.96 25.25 14.28 26.02 17.75C26.05 17.2 27.61 13.92 27.82 13.97C28.32 14.09 27.56 14.58 27.39 14.87C26.12 17.17 26.37 18.09 26.16 20.4L25.97 19.97C25.32 21.61 25.74 25.63 25.69 25.92C25.69 25.96 25.53 26.09 25.45 26.06C25.2 24.12 24.04 22.27 24.46 20.25C23.88 20 24.2 17.52 24.41 19.35C24.5 19.26 24.6 19.19 24.65 19.07C24.77 18.74 24.83 15.97 26.92 13.45C28.2 11.91 30.34 10.67 32.31 10.24C30.67 10.16 28.42 10.93 27.26 12.08C26.82 12.1 28.08 10.8 28.68 10.38C30.13 9.37001 31.99 8.92001 33.73 9.29001C31.17 7.67001 28.15 9.29001 28.06 9.01001C29.7 7.95001 32 7.34001 33.78 8.40001C34.39 8.33001 32.18 5.60001 34.02 7.50001C35.22 10.13 34.03 7.35001 36.24 5.75001C37.04 5.17001 38.71 4.82001 38.74 4.95001C35.12 5.89001 35.01 8.95001 35.29 8.87001C35.92 7.53001 37.41 5.76001 38.93 5.80001C36.29 7.14001 38.29 6.26001 39.54 6.04001C43.54 5.33001 48.05 6.25001 51.54 8.31001C53.8 9.64001 57.26 13.44 59.57 13.88C60.23 14.01 61.72 13.77 59.76 14.35C59.4 14.46 58.44 14.52 58.39 14.59C58.68 14.99 58.98 15.35 59.24 15.77V15.78Z" fill="#331F23"/>
<path d="M24.66 19.09C24.61 19.22 24.51 19.28 24.42 19.37C24.2 17.54 23.89 20.02 24.47 20.27C24.05 22.29 25.21 24.14 25.46 26.08C25.54 26.11 25.69 25.98 25.7 25.94C25.75 25.65 25.33 21.63 25.98 19.99L26.17 20.42C26.13 20.84 26.1 21.32 26.08 21.74C26.03 22.7 25.8 22.68 25.8 22.73C25.72 23.74 26.27 26.83 26.79 27.88C26.26 25.74 27.14 20.86 28.35 19.23C28.45 19.09 28.53 19.02 28.54 19.23C28.54 19.43 27.41 21.18 27.64 23.06C28.03 21.75 28.5 20.08 29.29 18.95C30.34 17.45 28.88 20.43 28.44 21.88C28.23 22.56 28.15 23.29 27.87 23.96L28.01 24.01C28.74 23.76 32.34 16.73 32.59 15.46C33.24 16.06 32.82 16.82 32.78 17.11C32.49 19.34 31.01 21.79 29.76 23.68C29.18 24.55 28.55 24.71 28.34 25.81C28.14 26.86 28.25 27.93 28.34 28.98L29.66 28.74C29.66 28.74 29.79 28.7 29.75 28.93C29.62 28.97 28.2 29.32 28.95 29.5C29.21 29.56 30.93 28.74 34.29 28.74C34.18 29.51 35.8 28.96 36.23 29.12C36.4 29.18 36.36 29.39 36.37 29.4C34.99 29.25 30.59 29.13 29.76 30.39C29.6 30.62 29.41 31.37 29.38 31.67C29.19 33.5 29.99 36.65 31.69 37.62C33.37 38.58 36.85 38.45 38.35 37.15C38.55 37.37 38.84 36.43 39.29 36.68C37.93 38.84 35.96 39.15 33.48 38.95C28.48 38.53 29.09 33.17 28.71 36.02C28.58 35.66 28.52 35.26 28.43 34.89C28.35 34.57 28.25 34.26 28.15 33.95C27.96 33.37 27.71 32.82 27.49 32.25C27.36 31.9 27.02 31.36 26.92 31.12C26.78 30.76 26.68 30.36 26.54 29.99C24.47 24.37 22.45 19.81 25.6 13.97H25.79C25.02 15.46 24.6 17.22 24.47 18.88C24.46 19.06 24.44 19.15 24.66 19.12V19.09Z" fill="#17141E"/>
<path d="M57.07 21.35C53.82 19.59 50.84 17.26 48.38 14.5C49.02 16.45 55.53 21.34 57.07 21.35C57.45 21.51 58.5 21.95 58.82 22.01C59.26 22.1 59.88 21.83 59.81 22.2C58.18 23.35 54.16 21.4 52.53 20.59C51.86 20.16 51.04 19.83 50.4 19.36C49.48 18.68 48.64 17.91 47.85 17.09C48.72 18.6 50.04 19.88 51.39 21.01C51.3 21.14 49.96 20.66 49.78 20.58C48.9 20.17 47.79 19.14 47.04 18.5C46.83 18.32 46.51 17.9 46.24 17.65C46.16 17.58 46.03 17.81 45.96 17.74C45.75 17.54 44.57 15.91 44.45 15.94C44.12 16 45.1 17.25 44.31 16.74C44.21 16.67 43.11 14.99 42.99 14.66C43.09 14.51 43.62 14.75 43.75 14.8C44.24 15 44.51 15.52 44.69 15.04C42.18 10.46 41.88 10.15 45.59 14.14C45.51 12.47 43.15 10.07 46.02 12.77L45.17 11.07C45.31 10.64 46.02 11.51 46.21 11.16C42.73 8.96001 46.49 10.39 48.05 10.73C48.27 8.30001 51.11 11.68 52.25 11.91C50.6 9.88001 46.76 7.45001 44.27 6.95001C43.14 6.72001 43.69 7.36001 43.33 7.23001C41.28 5.52001 45.26 6.05001 45.27 6.24001C42.53 6.53001 44.71 6.64001 45.88 6.29001C50.95 7.40001 53.07 9.62001 56.89 12.67C56.75 13.26 53.84 11.18 53.58 11.54C55.08 13.5 55.15 14.56 55.8 16.78C54.99 16.42 52.22 14.08 52.54 14.94C54.06 17.15 55.38 19.61 57.64 21.18C57.45 21.32 57.3 21.32 57.07 21.32V21.35Z" fill="#503538"/>
<path d="M43.7499 14.83C43.6199 14.78 43.0999 14.54 42.9899 14.69C43.1199 15.02 44.2099 16.7 44.3099 16.77C45.0999 17.28 44.1199 16.03 44.4499 15.97C44.5799 15.94 45.7499 17.57 45.9599 17.77C46.0299 17.84 46.1699 17.61 46.2399 17.68C46.5099 17.93 46.8299 18.35 47.0399 18.53C47.4299 19.43 49.1299 21.2 50.1099 21.27L49.5899 20.66L49.7799 20.61C49.9499 20.69 51.2999 21.17 51.3899 21.04C50.0299 19.91 48.7099 18.63 47.8499 17.12C48.6399 17.94 49.4899 18.71 50.3999 19.39C51.0299 19.86 51.8599 20.18 52.5299 20.62C52.5399 20.62 52.4699 20.85 52.6199 20.95C54.8199 22.35 55.9499 22.93 58.5699 23.17C58.7899 23.19 59.8099 23.17 59.6599 23.36C57.9799 24.01 56.2199 23.89 54.4599 23.83C54.4399 23.83 54.1899 24.02 54.1799 24.02C50.8799 23.85 47.5199 21.39 45.0599 19.39C44.9599 18.91 42.2899 16.05 42.4099 17.36C42.4099 17.42 42.8899 17.91 42.7399 18.45C40.8599 17.36 39.2799 15.18 40.6099 17.27C41.9499 19.35 44.2999 21.62 41.5099 19.68C39.8499 18.53 35.5899 13.7 34.1899 11.79L34.3299 11.65L36.0299 12.78C36.2199 12.47 35.3799 11.24 35.6499 11.27C37.2399 12.94 39.1899 13.97 41.4099 14.58C41.0699 13.81 40.3899 12.8 39.7599 12.27C41.1899 12.36 42.9199 14.94 43.0699 13.97C43.0699 13.93 42.7199 13.74 43.0199 13.36L43.7299 14.87L43.7499 14.83Z" fill="#331F23"/>
<path d="M26.0799 21.73C26.0999 21.31 26.1399 20.83 26.1699 20.41C26.3699 18.1 26.1299 17.18 27.3999 14.88C27.5599 14.59 28.3299 14.1 27.8299 13.98C27.6199 13.93 26.0699 17.21 26.0299 17.76C25.2599 14.29 28.6099 10.98 32.0299 11.19C30.8899 11.86 29.4399 12.24 28.7199 13.46C27.7199 15.14 30.4899 12.2 31.2199 12.37C31.5399 12.44 30.4199 14.23 30.2299 14.5C29.9699 14.85 29.3299 15.33 28.9999 15.73C26.3099 18.96 29.7599 15.56 31.0299 15.12C32.2999 14.68 31.9699 15.68 31.3099 16.92L31.2199 15.88C29.3799 16.67 28.0399 18.63 27.8199 18.62C27.7199 18.62 27.6799 17.71 26.8299 19.71C26.5599 20.35 26.3999 21.67 26.0699 21.74L26.0799 21.73Z" fill="#503538"/>
<path d="M35.9 19.28C39.46 22.42 42.62 24.03 47.43 24.19C48.12 24.47 46.95 24.31 47.57 24.57C48.36 24.9 54.87 25.66 56.31 25.51C56.53 26.18 56.65 27.63 56.59 28.34C56.2 28.51 56.16 27.28 55.65 26.59C54.78 25.42 52.37 25.65 51.02 25.6C50.43 25.42 49.25 25.19 48.66 25.22C44.8 24.69 40.7 23.89 37.7 21.44C37.44 21.19 35.74 19.55 35.72 19.41C35.69 19.2 35.9 19.28 35.91 19.27L35.9 19.28Z" fill="#C9693B"/>
<path d="M38.9299 23.53C38.9899 23.94 37.3799 22.97 37.0899 22.77C35.8199 21.9 33.7599 19.79 33.9199 18.23C34.8799 20.11 37.0799 22.5 38.9299 23.52V23.53Z" fill="#BF562D"/>
<path d="M45.0699 19.37C47.5299 21.37 50.8799 23.83 54.1899 24C54.2099 24 54.4599 23.81 54.4699 23.81C56.2299 23.86 57.9899 23.99 59.6699 23.34C59.8199 23.15 58.7999 23.17 58.5799 23.15C58.5799 23.07 58.5399 22.9 58.6299 22.87C58.7799 22.82 61.2899 22.54 61.7999 22.4L62.1799 22.64C61.4299 22.91 62.0099 25.17 61.3299 25.38C61.4199 22.56 60.7299 23.28 60.1499 25.43C60.2899 22.57 60.0199 25.1 59.7199 26.14C59.3799 27.32 58.5099 29.08 58.0199 30.34C57.9399 30.54 57.6799 30.99 57.4499 31.57C57.2999 31.95 57.1299 32.32 56.9799 32.7C56.8799 32.96 56.7899 33.2 56.6999 33.46C56.6299 33.65 56.5799 33.84 56.5099 34.03C56.4699 34.14 56.4299 34.82 56.2299 35.35C56.2599 35.48 56.1799 35.53 56.1399 35.63C56.0799 35.76 56.0499 35.72 56.0499 35.72C56.0399 35.75 55.8999 35.91 55.6699 36.29C54.7199 37.88 53.8699 38.61 51.9399 38.84C49.8699 39.09 47.0799 38.84 45.7499 37.04C44.9999 36.03 44.6299 34.51 44.2399 33.36L44.6199 32.7C44.7399 37.07 48.2399 39.03 52.3199 37.99C56.0599 37.04 56.4899 30.6 54.3499 30.05C53.7199 29.46 52.5299 29.46 51.6999 29.39C50.5299 29.29 49.8499 29.29 48.6799 29.39C48.7599 28.84 50.1899 29.3 50.2899 28.82C53.4999 28.75 55.3599 29.37 55.6299 29.39C56.4599 29.43 56.1299 29.1 54.9199 28.82C54.9099 28.73 55.0199 28.72 55.0099 28.63L56.4699 29.1C56.6999 28.94 56.5899 28.63 56.6099 28.34C56.6699 27.63 56.5499 26.17 56.3299 25.51C56.2799 25.35 56.3099 25 56.0899 24.85C53.9399 24.92 51.7999 24.64 49.7599 24C48.9799 23.98 48.2199 24.21 47.4499 24.19C42.6399 24.03 39.4899 22.41 35.9199 19.28C36.4599 18.37 36.8999 19.83 38.5699 20.37C37.7099 19.42 36.7699 18.02 36.8199 16.73C39.6899 19.31 43.2899 22.55 47.3599 22.45C45.8399 21.8 43.2199 18.83 43.1999 18.2C43.1899 17.65 44.2399 18.69 45.0899 19.38L45.0699 19.37Z" fill="#17141E"/>
<path d="M38.9799 19.56C41.0999 20.59 42.9999 22.5 45.4099 22.87C46.0499 22.97 47.2599 22.7 47.2499 23.01C42.9499 24.5 38.4799 19.81 38.9799 19.56Z" fill="#331F23"/>
<path d="M59.2399 15.78C60.5199 17.84 61.9899 19.79 61.7899 22.39C61.2899 22.53 58.7799 22.81 58.6199 22.86C58.5399 22.89 58.5799 23.06 58.5699 23.14C55.9399 22.9 54.8199 22.32 52.6199 20.92C52.4599 20.82 52.5399 20.6 52.5299 20.59C54.1599 21.4 58.1699 23.35 59.8099 22.2C60.2199 21.91 59.5799 21.79 59.9499 21.73C59.9699 21.73 60.3299 22.02 60.3799 21.68C60.4099 21.46 57.8899 19.94 58.1599 18.04C59.2299 19.23 58.1999 17.97 58.2099 17.9C58.2399 17.71 58.6899 17.86 58.5899 17.52C57.7799 17.2 56.1199 15.97 56.1299 15.06C56.1599 13.35 59.1499 18.89 58.3999 16C58.7499 15.54 59.2499 16.42 59.2499 15.76L59.2399 15.78Z" fill="#331F23"/>
<path d="M59.0999 17.39C59.5099 17.21 61.3599 21.33 61.0799 21.93C60.1799 21.61 60.2099 20.64 59.8999 19.9C59.5099 18.98 58.9899 18.67 59.0999 17.4V17.39Z" fill="#FDFDFF"/>
<path d="M57.0699 21.35C55.5199 21.34 49.0099 16.45 48.3799 14.5C50.8499 17.26 53.8299 19.59 57.0699 21.35Z" fill="#331F23"/>
<path d="M49.7899 20.6L49.5999 20.65L50.1199 21.26C49.1399 21.19 47.4399 19.42 47.0499 18.52C47.7999 19.16 48.9099 20.19 49.7899 20.6Z" fill="#331F23"/>
<path d="M47.05 62.46C47.05 62.62 47.05 62.7 46.96 62.84C44.28 62.84 41.6 62.84 38.93 62.84C38.86 62.55 38.85 62.28 38.84 61.99C39.02 62.01 38.84 62.35 39.08 62.46C39.7 62.75 45.76 62.43 47.06 62.46H47.05Z" fill="#C51421"/>
<path d="M47.05 62.46C45.74 62.43 39.68 62.75 39.07 62.46C38.83 62.35 39.02 62.01 38.83 61.99C38.82 61.61 38.85 61.23 38.83 60.86C41.49 61.16 44.17 61.08 46.81 60.77C47.07 60.62 46.9 60.31 46.95 60.11C47.04 60.88 47.07 61.7 47.04 62.47L47.05 62.46Z" fill="#F03437"/>
<path d="M46.3 58.77C43.85 59.42 41.24 59.13 38.74 58.96C38.76 58.42 38.84 57.98 38.93 57.45C41.28 58.09 44.22 57.95 46.49 57.07C46.57 57.74 46.06 58.12 46.3 58.77Z" fill="#DC1C26"/>
<path d="M47.05 59.43C47.02 59.6 47 59.73 46.96 59.9C44.28 60.42 41.56 60.29 38.83 60.18C38.83 59.79 38.72 59.37 38.74 58.95C41.24 59.13 43.85 59.41 46.3 58.76C46.78 58.67 46.73 59.23 47.06 59.42L47.05 59.43Z" fill="#F03437"/>
<path d="M46.86 55.84C46.8 56.04 46.72 56.73 46.77 56.97C46.67 57.06 46.56 57.04 46.49 57.06C44.22 57.93 41.28 58.08 38.93 57.44C38.99 57.09 39.08 56.76 39.02 56.4C41.24 56.72 43.54 56.8 45.73 56.21C46.09 57.39 46.76 56.87 46.58 55.93C46.59 55.93 46.54 55.79 46.86 55.84Z" fill="#FDFDFF"/>
<path d="M46.96 59.9C46.95 59.95 46.97 60.04 46.96 60.09C46.91 60.29 47.08 60.6 46.82 60.75C44.17 61.07 41.49 61.14 38.84 60.84C38.84 60.62 38.84 60.4 38.84 60.18C41.56 60.28 44.28 60.42 46.97 59.9H46.96Z" fill="#FDFDFF"/>
<path d="M46.8599 57.07C46.8599 57.07 46.9399 57.07 47.0499 57.45C47.2499 58.13 47.28 57.7 47.33 58.68C47.19 58.89 47.0999 59.19 47.0499 59.44C46.7299 59.25 46.77 58.69 46.29 58.78C46.04 58.13 46.5599 57.74 46.4799 57.08C46.5499 57.05 46.6599 57.08 46.7599 56.99C46.7799 57.12 46.8499 57.08 46.8499 57.08L46.8599 57.07Z" fill="#9D0C17"/>
<path d="M45.73 56.22C46.02 56.14 46.3 56.06 46.58 55.94C46.76 56.88 46.09 57.41 45.73 56.22Z" fill="#E0DEE0"/>
<path d="M14.46 81.82C13.15 82.8 13.52 84.76 14.32 85.98C13.8 84.26 13.66 82.89 15.22 81.73C15.25 81.73 15.28 81.73 15.31 81.73L16.44 87.87C16 87.56 15.56 87.24 15.12 86.93C15.01 86.85 14.95 86.41 13.61 86.08C13.22 85.33 13.04 84.19 13.04 83.34C13.04 83.28 13.04 83.21 13.04 83.15C13.53 83 13.82 81.51 14.46 81.83V81.82Z" fill="#EFAB70"/>
<path d="M16.06 81.54C16.29 83.71 16.39 85.89 16.63 88.06C16.48 88.04 16.45 87.88 16.44 87.87L15.31 81.73C16.09 81.86 15.52 80.71 16.07 81.54H16.06Z" fill="#DB8755"/>
<path d="M15.12 86.93C14.32 87.28 13.95 86.74 13.61 86.08C14.95 86.41 15.01 86.85 15.12 86.93Z" fill="#17141E"/>
<path d="M15.87 80.79C15.87 80.79 16.01 81.13 16.06 81.55C15.52 80.72 16.08 81.87 15.3 81.74C15.27 81.74 15.24 81.74 15.21 81.74C15.16 81.74 15.4 81.13 14.45 81.83C13.81 81.51 13.52 83.01 13.03 83.15C13.11 81.44 14.96 80.15 15.86 80.79H15.87Z" fill="#C9693B"/>
<path d="M15.2099 81.73C13.6599 82.89 13.7999 84.27 14.3099 85.98C13.5099 84.76 13.1399 82.81 14.4499 81.82C15.3899 81.11 15.1499 81.72 15.2099 81.73Z" fill="#C9693B"/>
<path d="M47.4299 48.09C47.3799 48.32 47.5199 48.4 47.5199 48.47C46.8899 48.97 48.0899 49.75 46.5299 50.93C44.3699 52.56 38.6799 53.08 36.9399 50.46L37.2199 48.19C42.0199 50.37 42.6499 50.28 47.4199 48.1L47.4299 48.09Z" fill="#BF562D"/>
<path d="M56.0299 37.61C55.9999 38.1 55.92 38.73 55.84 39.22C55.18 43.09 53.1299 44.99 49.8899 46.87C49.5599 47.06 49.1799 47.17 48.8499 47.34L48.7599 47.06C52.3699 45.04 54.76 43.06 55.56 38.79C55.66 38.28 55.92 36.12 55.65 36.29C55.87 35.92 56.0099 35.75 56.0299 35.72C55.9999 36.34 56.0699 36.99 56.0299 37.61Z" fill="#F8CB8D"/>
<path d="M37.23 48.19L36.95 50.46H36.76C36.85 49.93 36.69 48.7 36.76 48C36.78 48.01 36.96 48.07 37.23 48.19Z" fill="#EFAB70"/>
<path d="M40.53 24.28C40.88 24.4 42.77 24.91 43.03 24.94C44.62 25.11 41.45 24.4 40.01 23.52C39.09 22.96 38.44 22.18 37.7 21.44C40.7 23.89 44.8 24.69 48.66 25.22C47.87 25.26 45.68 25.89 46.44 27.02C47.37 26.15 54.32 27.48 54.14 28.53C53.33 28.36 52.5 28.3 51.68 28.25C50.75 27.53 46.98 27.26 46.58 28.63C44.9 29.13 44.78 29.52 44.69 29.57C44.67 29.58 44.59 29.55 44.6 29.66C40.27 30.21 40.34 29.11 38.84 28.62C37.32 27.48 34.69 27.49 32.89 28.15C32.1 28.21 31.31 28.45 30.53 28.53C30.88 27.45 34.58 26.72 35.58 26.64C37.04 26.53 38.33 27.11 38.08 26.21C37.94 25.72 35.66 25.1 34.35 25.31C33.44 25.46 29.59 27.71 29.67 28.71L28.35 28.95C28.26 27.9 28.15 26.83 28.35 25.78C32.56 24.27 33.28 19.88 33.69 19.92C35.2 23.11 39.04 25.31 42.48 25.59C45.47 25.83 43.54 25.49 42.2 25.02C41.66 24.83 41.03 24.56 40.55 24.26L40.53 24.28Z" fill="#EFAB70"/>
<path d="M33.92 18.24C33.76 19.8 35.81 21.9 37.09 22.78C37.38 22.98 38.99 23.95 38.93 23.54C39.42 23.81 40.01 24.11 40.54 24.3C41.02 24.6 41.66 24.87 42.19 25.06C43.53 25.52 45.46 25.87 42.47 25.63C39.04 25.35 35.19 23.15 33.68 19.96C33.27 19.92 32.55 24.3 28.34 25.82C28.55 24.73 29.18 24.57 29.76 23.69C31.01 21.8 32.49 19.35 32.78 17.12C33.16 17.23 32.94 18.96 32.83 19.86C33.41 18.96 33.37 17.9 33.35 16.88C33.65 17.26 33.71 17.84 33.92 18.25V18.24Z" fill="#C9693B"/>
<path d="M44.98 29.76C45.16 29.71 45.52 29.48 45.55 29.48C47.18 29.04 48.58 28.85 50.27 28.82C50.17 29.29 48.75 28.84 48.66 29.39C48.63 29.39 48.6 29.39 48.57 29.39C45.92 29.65 44.52 29.7 44.6 32.7L44.22 33.36C44.13 33.09 44.13 32.78 44.03 32.51C43.97 32.34 43.93 32.04 43.84 31.9C43.32 31.04 41.15 31.31 40.72 32.18C40.7 32.21 40.72 32.85 40.72 32.89C40.58 33.41 40.5 33.99 40.34 34.5C40.08 35.32 39.76 35.95 39.3 36.67C38.85 36.42 38.56 37.36 38.36 37.14C39.25 36.37 39.93 34.85 40.06 33.69C40.46 30.2 39.67 29.74 36.38 29.39C36.37 29.39 36.4 29.17 36.24 29.11C35.81 28.95 34.19 29.5 34.3 28.73C38.98 28.74 40.45 30.15 40.96 30.24C41.15 30.27 43.78 30.27 43.98 30.24C44.22 30.2 44.71 29.84 44.97 29.77L44.98 29.76Z" fill="#0B152A"/>
<path d="M44.03 32.5C44.13 32.77 44.13 33.08 44.22 33.35C44.61 34.5 44.98 36.03 45.73 37.03C43.74 35.66 43.59 30.89 40.34 34.48C40.5 33.97 40.58 33.4 40.72 32.87C41.07 31.45 43.18 31.57 44.03 32.49V32.5Z" fill="#BF562D"/>
<path d="M48.57 29.39C47.09 30.46 46.9 30.33 46.49 32.13C46.36 32.71 46.09 33.85 46.4 34.02C46.59 36.14 51.19 34.4 52.59 34.4L53.3 33.08C53.64 33.07 53.77 32.83 53.96 32.61C54.72 31.74 55.56 31.21 54.34 30.06C56.48 30.61 56.05 37.05 52.31 38C48.23 39.04 44.73 37.07 44.61 32.71C44.52 29.71 45.93 29.66 48.58 29.4L48.57 29.39Z" fill="#EFAB70"/>
<path d="M51.02 25.61C52.08 25.93 54.9 27.42 54.99 28.63C54.99 28.72 54.89 28.73 54.9 28.82C54.65 28.76 54.4 28.75 54.14 28.73C54.14 28.67 54.13 28.6 54.14 28.54C54.32 27.49 47.37 26.15 46.44 27.03C45.68 25.91 47.87 25.28 48.66 25.23C49.25 25.2 50.43 25.43 51.02 25.61Z" fill="#331F23"/>
<path d="M56.6 28.35C56.58 28.64 56.69 28.94 56.46 29.11L55 28.64C54.91 27.43 52.09 25.94 51.03 25.62C52.38 25.68 54.79 25.44 55.66 26.61C56.18 27.3 56.22 28.53 56.6 28.36V28.35Z" fill="#EFAB70"/>
<path d="M56.3099 25.51C54.8699 25.66 48.3599 24.89 47.5699 24.57C46.9499 24.31 48.1199 24.47 47.4299 24.19C48.2099 24.22 48.9699 23.98 49.7399 24C51.7799 24.64 53.9199 24.92 56.0699 24.85C56.2799 25 56.2499 25.35 56.3099 25.51Z" fill="#BF562D"/>
<path d="M54.33 30.05C55.56 31.21 54.71 31.73 53.95 32.6C53.42 32.29 53.31 31.67 53.01 31.18C52.92 31.03 52.53 30.27 52.49 30.24C52.03 29.79 51.19 29.85 51.69 29.39C52.52 29.46 53.71 29.46 54.34 30.05H54.33Z" fill="#DB8755"/>
<path d="M51.68 29.39C51.18 29.85 52.02 29.79 52.48 30.24C52.52 30.28 52.91 31.03 53 31.18C51.07 29.05 47.83 29.67 46.48 32.12C46.89 30.32 47.08 30.45 48.56 29.38C48.59 29.38 48.62 29.38 48.65 29.38C49.82 29.28 50.5 29.28 51.67 29.38L51.68 29.39Z" fill="#C9693B"/>
<path d="M54.14 28.72C54.39 28.75 54.64 28.76 54.9 28.81C56.11 29.08 56.43 29.42 55.61 29.38C55.34 29.37 53.48 28.75 50.27 28.81C48.58 28.84 47.17 29.03 45.55 29.47C45.25 29.24 45.94 28.97 46.16 28.9C47.7 28.43 52.41 28.51 54.14 28.71V28.72Z" fill="#344456"/>
<path d="M59.34 34.01C59.2 34.9 58.95 36.23 59.06 37.03C58.23 38.03 57.23 39.17 55.85 39.2C55.93 38.71 56 38.08 56.04 37.59C58.52 37.17 59.78 33.91 57.36 32.58C58.72 32.07 59.01 32.79 59.34 34V34.01Z" fill="#DB8755"/>
<path d="M60.57 34.2C60.3 34.03 60.74 33.51 60.52 33.35C60.46 33.31 59.8399 33.38 59.6199 33.35C59.7199 31.92 58.73 31.49 57.45 31.55C57.68 30.97 57.94 30.53 58.02 30.32C60.45 30.1 60.97 32.21 60.57 34.19V34.2Z" fill="#F9D581"/>
<path d="M60.5699 34.2C60.2999 35.57 59.8999 36.02 59.0599 37.03C58.9499 36.23 59.1999 34.9 59.3399 34.01C59.3399 33.97 59.5599 34.24 59.6199 33.35C59.8399 33.38 60.4599 33.31 60.5199 33.35C60.7399 33.51 60.2999 34.03 60.5699 34.2Z" fill="#F8CB8D"/>
<path d="M57.3499 32.6C59.7699 33.93 58.4999 37.19 56.0299 37.61C56.0699 36.99 55.9999 36.34 56.0299 35.72C56.0299 35.72 56.0699 35.76 56.1199 35.63C56.2999 36.23 56.7499 35.42 57.2099 35.16C57.6499 34.91 58.4399 35.04 58.2999 34.36C58.1699 33.71 57.3299 33.3 56.6899 33.46C56.7899 33.2 56.8699 32.96 56.9699 32.7C56.9699 32.85 57.0699 32.7 57.3499 32.61V32.6Z" fill="#C9693B"/>
<path d="M59.62 33.35C59.56 34.25 59.34 33.97 59.34 34.01C59.01 32.8 58.72 32.08 57.36 32.59C57.08 32.69 56.97 32.83 56.98 32.68C57.13 32.29 57.3 31.92 57.45 31.55C58.73 31.49 59.72 31.91 59.62 33.35Z" fill="#EFAB70"/>
<path d="M56.12 35.62C56.16 35.52 56.24 35.46 56.21 35.34C56.51 35.55 56.29 35.24 56.54 35.06C56.67 34.97 57.72 34.99 56.49 34.02C56.56 33.83 56.61 33.64 56.68 33.45C57.32 33.29 58.15 33.7 58.29 34.35C58.43 35.04 57.64 34.9 57.2 35.15C56.75 35.41 56.29 36.22 56.11 35.62H56.12Z" fill="#DB8755"/>
<path d="M56.22 35.34C56.42 34.8 56.46 34.12 56.5 34.02C57.73 34.99 56.68 34.97 56.55 35.06C56.29 35.24 56.52 35.55 56.22 35.34Z" fill="#EFAB70"/>
<path d="M38.3599 37.13C36.8599 38.43 33.3799 38.57 31.6999 37.6C29.9999 36.62 29.1899 33.47 29.3899 31.65C29.7399 32.08 29.9999 32.07 30.6199 32.5C30.7499 32.59 31.0199 33.07 31.4699 32.97C31.4699 33.16 31.7399 33.47 31.8499 33.63C31.8899 33.69 31.7499 33.94 31.9899 34.1C32.1299 34.2 35.2199 34.84 35.3899 34.86C36.8299 34.97 38.7099 35.02 38.2699 33.06C38.4899 32.99 38.2399 32.49 38.1799 32.02C38.1699 31.94 38.3699 31.41 37.7999 30.56C37.1999 29.67 36.4099 29.62 36.3399 29.57C36.2399 29.5 36.4399 29.42 36.3899 29.38C39.6799 29.73 40.4699 30.19 40.0699 33.68C39.9399 34.84 39.2599 36.36 38.3699 37.13H38.3599Z" fill="#EFAB70"/>
<path d="M36.38 29.39C36.43 29.43 36.23 29.51 36.33 29.58C36.4 29.63 37.2 29.68 37.79 30.57C38.36 31.42 38.16 31.96 38.17 32.03C36.76 29.46 33.46 29.07 31.56 31.32C31.37 31.54 31.28 32.21 30.62 32.5C30 32.07 29.75 32.08 29.39 31.65C29.42 31.36 29.61 30.61 29.77 30.37C30.61 29.11 35.01 29.23 36.38 29.38V29.39Z" fill="#DB8755"/>
<path d="M30.5199 28.53C30.4899 28.62 30.4299 28.64 30.4299 28.72C30.2499 28.75 29.9599 28.86 29.7699 28.91C29.8099 28.69 29.6799 28.73 29.6799 28.72C29.5999 27.71 33.4499 25.47 34.3599 25.32C35.6799 25.1 37.9599 25.73 38.0899 26.22C38.3399 27.12 37.0499 26.53 35.5899 26.65C34.5799 26.73 30.8799 27.46 30.5399 28.54L30.5199 28.53Z" fill="#331F23"/>
<path d="M44.6 29.67C44.6 29.56 44.68 29.59 44.69 29.58C44.78 29.79 45.01 29.21 44.97 29.77C44.71 29.85 44.22 30.2 43.98 30.24C43.77 30.27 41.15 30.27 40.96 30.24C40.45 30.15 38.98 28.74 34.3 28.73C30.94 28.73 29.23 29.55 28.96 29.49C28.21 29.32 29.63 28.96 29.76 28.92C29.95 28.87 30.24 28.76 30.42 28.73C32.15 28.43 37.25 28.43 38.88 28.92C40.05 29.27 41.44 30.72 44.6 29.68V29.67Z" fill="#344456"/>
<path d="M47.5299 48.47C47.5299 49.99 47.3699 50.3 48.8499 51.12L48.9399 52.44C48.7899 52.74 48.0899 53.84 47.6199 54.71C47.4099 55.09 47.1199 54.96 46.8599 55.84C46.5399 55.8 46.5899 55.93 46.5799 55.93C46.2999 56.05 46.0199 56.14 45.7299 56.21C43.5399 56.8 41.2399 56.71 39.0199 56.4C38.2999 56.03 37.8299 55.61 37.3199 54.98C36.8599 54.41 36.1399 53.04 35.8099 52.33C36.0399 51.98 36.2199 51.58 36.3799 51.2C36.4399 51.05 36.7499 50.49 36.7599 50.44H36.9499C38.6899 53.07 44.3799 52.54 46.5399 50.91C48.0999 49.73 46.8999 48.95 47.5299 48.45V48.47Z" fill="url(#paint4_linear_38_223)"/>
<path d="M32.88 28.16C34.49 28.05 37.31 28.14 38.83 28.63C40.33 29.12 40.27 30.22 44.59 29.67C41.44 30.72 40.04 29.26 38.87 28.91C37.25 28.42 32.14 28.42 30.41 28.72C30.41 28.64 30.48 28.62 30.5 28.53C31.29 28.45 32.08 28.21 32.86 28.15L32.88 28.16Z" fill="#0B152A"/>
<path d="M51.68 28.25C52.5 28.31 53.3299 28.36 54.1399 28.53C54.1299 28.59 54.1399 28.66 54.1399 28.72C52.3999 28.52 47.7 28.44 46.16 28.91C45.93 28.98 45.2499 29.24 45.5499 29.48C45.5199 29.48 45.1599 29.71 44.9799 29.76C45.0099 29.2 44.79 29.78 44.7 29.57C44.79 29.52 44.91 29.12 46.59 28.63C48.48 28.07 49.7499 28.12 51.6899 28.25H51.68Z" fill="#121B27"/>
<path d="M51.68 28.25C49.74 28.12 48.47 28.07 46.58 28.63C46.98 27.27 50.76 27.53 51.68 28.25Z" fill="#C9693B"/>
<path d="M38.8299 28.63C37.3099 28.14 34.4899 28.04 32.8799 28.16C34.6799 27.5 37.3199 27.49 38.8299 28.63Z" fill="#C9693B"/>
<path d="M44.0299 32.5C43.1899 31.58 41.0699 31.45 40.7199 32.88C40.7199 32.85 40.6999 32.2 40.7199 32.17C41.1499 31.3 43.3099 31.03 43.8399 31.89C43.9299 32.03 43.9699 32.33 44.0299 32.5Z" fill="#17141E"/>
<path d="M26.55 29.95C26.69 30.32 26.79 30.72 26.93 31.08C24.51 31.63 24.82 33.14 25.32 35.05C25.51 35.77 26.07 36.57 25.79 37.03C22.26 33.99 23.79 29.36 26.55 29.94V29.95Z" fill="#F9D581"/>
<path d="M27.2099 32.5C25.0399 33.88 26.0699 37.07 28.6299 36.85C28.6199 37.32 28.6699 38 28.7199 38.46C27.5799 38.45 26.6199 37.76 25.7899 37.04C26.0699 36.57 25.5099 35.78 25.3199 35.06C25.5599 34.36 25.2599 33.39 25.6999 32.75C25.9799 32.34 27.0599 31.95 27.2099 32.51V32.5Z" fill="#DB8755"/>
<path d="M28.1599 33.92C28.0799 33.92 27.9899 33.91 27.9699 33.92C27.8799 32.54 26.2399 33.56 26.3599 34.53C27.1999 34.54 27.1199 34.74 27.2099 34.77C27.7199 34.94 28.1799 35.08 28.4399 34.86C28.5299 35.23 28.5899 35.64 28.7199 35.99C28.6899 36.18 28.6299 36.71 28.6299 36.84C26.0799 37.07 25.0399 33.87 27.2099 32.49C27.3399 32.41 27.3199 32.24 27.4899 32.21C27.7099 32.78 27.9599 33.33 28.1499 33.91L28.1599 33.92Z" fill="#C9693B"/>
<path d="M26.93 31.09C27.02 31.33 27.36 31.87 27.5 32.22C27.33 32.25 27.35 32.42 27.22 32.5C27.07 31.93 25.99 32.32 25.71 32.74C25.27 33.39 25.57 34.35 25.33 35.05C24.82 33.14 24.52 31.63 26.94 31.08L26.93 31.09Z" fill="#EFAB70"/>
<path d="M28.16 33.92C28.26 34.23 28.37 34.54 28.44 34.86C28.19 35.07 27.72 34.94 27.21 34.77C27.21 34.23 27.61 34.17 27.97 33.92C27.99 33.91 28.08 33.92 28.16 33.92Z" fill="#EFAB70"/>
<path d="M27.97 33.92C27.61 34.17 27.21 34.23 27.21 34.77C27.12 34.74 27.21 34.55 26.36 34.53C26.24 33.55 27.88 32.54 27.97 33.92Z" fill="#DB8755"/>
<path d="M45.73 37.04C47.06 38.83 49.85 39.08 51.92 38.84C53.85 38.61 54.7 37.88 55.65 36.29C55.91 36.12 55.65 38.29 55.56 38.79C54.75 43.05 52.37 45.04 48.76 47.06C46.21 48.49 43.39 49.91 40.4 49.23C39.62 49.05 34.08 46.44 33.31 45.92C30.82 44.24 29.1 41.44 28.73 38.46C28.67 38 28.62 37.32 28.64 36.85C28.64 36.72 28.71 36.19 28.73 36C29.12 33.15 28.5 38.51 33.5 38.93C35.98 39.14 37.95 38.82 39.31 36.66C39.77 35.94 40.09 35.31 40.35 34.49C43.6 30.9 43.75 35.67 45.74 37.04H45.73Z" fill="#EFAB70"/>
<path d="M36.76 40.44C36.76 40.44 36.25 40.59 36.9 41.1C37.06 41.23 39.04 41.91 39.31 41.95C39.3 41.99 39.22 42.13 39.22 42.14C39.07 42.22 38.3 42.29 39.27 42.99C40.63 43.97 44.64 43.79 45.79 42.71C46.92 41.65 44.88 42.43 43.95 42.52C43.86 42.06 45.89 41.9 47.07 41.39C48.71 40.67 48.01 40.63 47.92 40.35C47.5 39 47.77 40.28 49.24 40.68C47.89 40.2 47.63 42.83 44.47 43.66C41.27 44.5 37.94 43.45 36.25 40.54C36.11 40.48 35.53 40.83 35.49 40.82C34.93 40.71 36.5 40.5 36.91 39.59C37.21 39.5 36.86 40.09 36.77 40.44H36.76Z" fill="#5F2116"/>
<path d="M39.21 42.14C40.72 42.69 42.35 42.68 43.93 42.52C44.87 42.43 46.9 41.65 45.77 42.71C44.62 43.79 40.61 43.97 39.25 42.99C38.28 42.29 39.06 42.22 39.2 42.14H39.21Z" fill="#FDFDFF"/>
<path d="M45.16 38.17C45.19 38.39 45.07 38.35 45.07 38.36C44.52 37.9 44.04 37.95 43.37 38.08C43.46 37.59 40.8 37.71 40.72 38.17C40.15 37.99 40.19 38.25 39.78 37.6C40.19 36.81 41.22 36.13 42.09 36.18L43.7 37.31C43.91 36.96 45.42 37.49 45.16 38.16V38.17Z" fill="#F9D581"/>
<path d="M40.16 38.83C40.36 39.21 40.43 38.92 40.44 38.92C41.04 38.9 41.18 39.35 41.38 38.73C42.31 39.74 43.74 37.95 44.31 38.45C42.59 38.94 43.37 39.69 44.4 38.64C44.44 38.68 44.63 39.27 45.06 38.36C45.06 38.36 45.19 38.39 45.15 38.17C45.51 37.9 45.3 38.58 44.91 38.93C44.78 39.04 43.17 39.76 43.02 39.78C42.53 39.84 39.36 39.21 39.67 38.5C39.93 39 39.96 38.81 40.14 38.83H40.16Z" fill="#C9693B"/>
<path d="M45.12 44.22C45.46 44.16 44.77 44.8 44.46 44.98C42.89 45.86 40.92 45.68 39.59 44.46L39.73 44.32C41.21 45.15 43.65 45.06 45.12 44.23V44.22Z" fill="#DB8755"/>
<path d="M40.72 38.17C42.94 38.85 43.23 38.1 43.37 38.08C44.04 37.95 44.53 37.91 45.07 38.36C44.63 39.27 44.45 38.68 44.41 38.64C44.41 38.64 44.32 38.46 44.32 38.45C43.75 37.96 42.32 39.74 41.39 38.73C40.3 38.14 39.16 38.78 39.78 37.6C40.2 38.25 40.15 37.99 40.72 38.17Z" fill="#EFAB70"/>
<path d="M39.31 41.95C39.05 41.91 37.06 41.23 36.9 41.1C36.25 40.59 36.75 40.48 36.76 40.44C37.13 40.9 40.8 42.2 39.31 41.95Z" fill="#F8CB8D"/>
<path d="M43.89 45.73C44.67 45.62 43.21 46.64 40.82 46.06C40.73 45.79 41.39 46.2 42.57 46.11C43.08 46.07 43.82 45.74 43.89 45.73Z" fill="#AE7147"/>
<path d="M47.05 41.38C46.91 40.87 47.62 40.95 47.9 40.34C47.99 40.62 48.69 40.66 47.05 41.38Z" fill="#F8CB8D"/>
<path d="M40.44 38.93C40.44 38.93 40.36 39.22 40.16 38.84C40.17 38.84 40.31 38.59 40.44 38.93Z" fill="#954425"/>
<path d="M43.37 38.08C43.23 38.11 42.94 38.86 40.72 38.17C40.8 37.71 43.45 37.58 43.37 38.08Z" fill="#FBE8B5"/>
<path d="M44.31 38.46C44.31 38.46 44.4 38.64 44.4 38.65C43.37 39.7 42.58 38.95 44.31 38.46Z" fill="#BF562D"/>
<path d="M53.01 31.18C53.31 31.67 53.42 32.29 53.95 32.6C53.76 32.82 53.63 33.06 53.29 33.07C51.46 28.22 46.12 31.04 46.39 34.01C46.09 33.84 46.35 32.7 46.48 32.12C47.83 29.66 51.07 29.05 53 31.18H53.01Z" fill="#050203"/>
<path d="M38.27 33.07C38.71 35.02 36.83 34.98 35.39 34.87C35.22 34.86 32.13 34.21 31.99 34.11C31.75 33.95 31.89 33.69 31.85 33.64C32.01 32.72 32.79 32.19 33.46 31.66C33.37 31.9 33.28 32.26 33.27 32.51C33.16 35.18 36.51 34.97 37.14 34.16C37.62 33.54 37.56 32.8 37.33 32.13C37.21 31.78 37.15 31.63 36.86 31.37L36.95 31.28C37.45 31.68 38.13 32.45 38.27 33.08V33.07Z" fill="#FDFDFF"/>
<path d="M38.17 32.03C38.24 32.5 38.48 33 38.26 33.07C38.12 32.44 37.44 31.67 36.94 31.27C33.84 28.81 31.44 32.13 31.46 32.97C31.01 33.07 30.74 32.59 30.61 32.5C31.28 32.21 31.36 31.54 31.55 31.32C33.45 29.07 36.75 29.46 38.16 32.03H38.17Z" fill="#050203"/>
<path d="M36.94 31.27L36.85 31.36C35.14 29.82 33.91 31.27 33.45 31.64C32.78 32.18 32 32.71 31.84 33.62C31.73 33.46 31.47 33.15 31.46 32.96C31.44 32.12 33.84 28.8 36.94 31.26V31.27Z" fill="#E0DEE0"/>
<path d="M33.26 32.5C33.43 32.59 33.46 32.65 33.45 32.41C33.47 32.61 33.81 32.88 33.92 33.07C35.25 35.39 36.59 33.66 36.28 32.69L37.32 32.12C37.55 32.79 37.62 33.53 37.13 34.15C36.5 34.96 33.14 35.16 33.26 32.5Z" fill="#3F6F05"/>
<path d="M36.8499 31.37C37.1399 31.63 37.1999 31.78 37.3199 32.13L36.2799 32.7C36.1899 32.41 35.3699 31.99 35.0499 32.23C35.0199 31 33.3299 31.38 33.4399 32.42C33.4499 32.67 33.4199 32.61 33.2499 32.51C33.2599 32.26 33.3499 31.9 33.4399 31.66C33.8999 31.29 35.1299 29.84 36.8399 31.38L36.8499 31.37Z" fill="#173B02"/>
<path d="M53.29 33.07L52.58 34.39C51.18 34.39 46.58 36.13 46.39 34.01C46.12 31.03 51.45 28.21 53.29 33.07Z" fill="#FDFDFF"/>
<path d="M51.68 32.79C50.76 32.77 50.86 34.23 50.17 33.92C50.94 33.32 50.55 32.1 50.12 31.94C49.92 31.86 49.44 32 49.22 31.94C49.14 31.92 48.29 31.01 47.8 31.99C47.64 32.3 47.77 32.48 47.8 32.6C47.5 32.81 47.72 32.51 47.52 32.41C47.77 30.28 51.6 30 51.68 32.79Z" fill="#173B02"/>
<path d="M47.72 33.73L48 33.07C48 33.07 48.18 33.16 48.19 33.16C48.54 34.03 49.35 34.56 50.17 33.92C50.86 34.22 50.76 32.77 51.68 32.79C51.74 35.1 48.36 35.43 47.71 33.73H47.72Z" fill="#578D07"/>
<path d="M47.8099 32.6C47.8399 32.72 47.9299 33.02 47.9999 33.07L47.7199 33.73C47.5399 33.26 47.4699 32.92 47.5299 32.41C47.7299 32.51 47.5099 32.81 47.8099 32.6Z" fill="#295207"/>
<path d="M50.1699 33.92C49.3399 34.57 48.5399 34.03 48.1899 33.16C48.8899 33.31 49.4099 32.57 49.2299 31.93C49.4499 31.99 49.9299 31.85 50.1299 31.93C50.5599 32.1 50.9399 33.31 50.1799 33.91L50.1699 33.92Z" fill="#050203"/>
<path d="M49.2299 31.94C49.4099 32.58 48.8899 33.32 48.1899 33.17C48.1799 33.17 48.0099 33.08 47.9999 33.08C47.9299 33.03 47.8399 32.73 47.8099 32.61C47.7799 32.49 47.6499 32.31 47.8099 32C48.2999 31.02 49.1399 31.93 49.2299 31.95V31.94Z" fill="#FDFDFF"/>
<path d="M36.28 32.69C36.59 33.66 35.25 35.39 33.92 33.07C34.54 33.17 35.07 32.91 35.05 32.22C35.37 31.99 36.19 32.41 36.28 32.69Z" fill="#050203"/>
<path d="M35.05 32.22C35.07 32.91 34.54 33.17 33.92 33.07C33.81 32.88 33.47 32.61 33.45 32.41C33.34 31.37 35.03 30.99 35.06 32.22H35.05Z" fill="#FDFDFF"/>
<path d="M30.0499 53.67C30.0499 55.09 30.3099 62.09 30.1399 62.69C30.1199 62.76 29.89 62.69 29.95 62.93C28.54 62.93 27.1 62.83 25.7 62.84C25.89 60.99 25.77 59.12 25.79 57.27C26.09 57.39 25.9699 56.43 25.9799 55.47L30.04 53.67H30.0499Z" fill="#164373"/>
<path d="M60.47 62.93C60.5 61.09 60.81 59.29 61.37 57.54C61.18 57.49 60.44 60.26 60.38 60.52C59.94 62.36 60.57 62.89 59.25 62.74C59.41 61.8 59.54 60.84 59.72 59.91C59.86 59.96 59.98 59.76 60 59.67C60.47 58.21 60.72 56.57 61.13 55.09C61.18 54.99 61.25 54.93 61.22 54.81C62.35 55.44 61.65 55.42 61.98 55.9C62.33 56.4 66.24 60.12 67.46 62.89C65.13 62.97 62.8 62.95 60.47 62.94V62.93Z" fill="#20588A"/>
<path d="M58.4899 55.65C58.4699 56.82 58.2999 58.4 58.5799 58.3C58.5499 59.84 58.5999 61.39 58.4899 62.93C58.4299 62.93 58.3599 62.93 58.2999 62.93C58.0299 62.47 55.0899 62.93 54.7999 62.69C54.3699 60.02 54.6699 57.31 54.7099 54.61C55.9799 54.74 57.2999 55.64 58.4899 55.65Z" fill="#164373"/>
<path d="M24.09 62.93C21.71 62.93 19.28 63.05 16.91 62.79C18.47 60.36 20.23 58.05 22.3 56.03C22.21 57.42 24.27 61.17 24.1 62.93H24.09Z" fill="#20588A"/>
<path d="M32.98 49.61C32.79 50.12 31.84 52.18 31.94 52.49C32.32 52.93 32.34 51.48 33.12 51.69C33.59 51.81 33.6 52.72 33.64 52.78C33.96 53.21 35.12 53.88 35.25 55.28C35.23 55.29 35.01 55.55 34.87 55.66C33.29 56.43 32.37 58.11 31.19 59.34C31.08 58.34 30.97 57.32 30.91 56.32C30.87 55.74 30.84 55.11 30.82 54.52C30.99 54.61 31.1 54.15 31.1 54.09C31.27 52.66 31.5 49.86 30.82 53C30.82 52.05 30.48 51.71 31.1 50.92C31.41 50.86 31.51 51.05 31.67 50.97C32.15 49.99 32.77 49.11 33.47 48.28C33.35 48.73 33.16 49.17 33 49.6L32.98 49.61Z" fill="#216EAC"/>
<path d="M51.97 49.32C52.4 49.84 52.81 50.01 53.2 50.74C54.09 52.4 53.73 55.37 53.67 57.26C53.27 57.28 53.64 58.46 53.24 58.77C53 58.8 51.21 55.47 49.89 55.37C49.75 55.25 49.45 54.91 49.42 54.9L51.55 51.69C52.37 51.2 52.7 53.19 52.92 52.49C53.04 52.1 51.07 48.95 51.98 49.32H51.97Z" fill="#20588A"/>
<path d="M54.8999 52.06C54.5799 52.01 54.7299 53.55 54.7099 54.61C54.6699 57.31 54.3799 60.02 54.7999 62.69C55.0899 62.93 58.0299 62.47 58.2999 62.93C56.2299 62.92 54.1399 62.84 52.0599 62.84C52.0599 62.54 52.0299 61.8 51.9699 61.61C52.4299 61.58 52.0199 61.11 51.9699 60.85C51.8899 60.38 51.9099 60.03 51.8799 59.86C51.8599 59.78 51.6899 59.82 51.6899 59.81C51.6699 59.74 52.1499 59.63 51.4999 59.53C51.8099 59.32 51.5799 59.37 51.5899 59.25C51.6399 58.82 51.6699 58.72 51.4999 58.31C52.1599 58.28 52.2799 59.69 53.0099 59.35C53.9599 60.51 53.5799 60.08 53.6699 57.27C53.7299 55.38 54.0899 52.41 53.1999 50.75C54.6499 51.31 54.6299 51.9 54.8999 52.07V52.06Z" fill="#0F2F53"/>
<path d="M51.97 49.32C51.06 48.95 53.04 52.1 52.91 52.49C52.69 53.18 52.36 51.2 51.54 51.69L49.41 54.9C48.85 54.58 48.24 54.54 47.61 54.71C48.08 53.84 48.78 52.74 48.93 52.44C49.07 52.15 49.3 51.77 49.4 51.5C49.6 50.95 49.79 50.41 49.78 49.8L51.48 49C51.28 48.78 51.22 48.44 51.1 48.2C51.47 48.4 51.74 49.08 51.95 49.33L51.97 49.32Z" fill="#20588A"/>
<path d="M61.2299 54.8C61.2599 54.92 61.1799 54.99 61.1399 55.08C60.3999 56.58 60.0399 58.26 59.7199 59.9C59.5399 60.84 59.3999 61.79 59.2499 62.73C59.1099 62.71 58.7499 62.78 58.6799 62.68L58.9599 53.66C59.4699 53.9 60.8099 54.56 61.2299 54.79V54.8Z" fill="#20588A"/>
<path d="M24.76 60.85C24.53 59.71 24.01 57.68 23.63 56.6L25.61 55.84C25.61 57 25.68 62.27 25.61 62.6C25.6 62.66 25.37 62.73 25.42 62.93C24.98 62.93 24.54 62.93 24.1 62.93C24.27 61.17 22.22 57.42 22.3 56.03C22.31 55.81 22.3 55.78 22.39 55.56L24.28 62.5C25.4 63.35 25.03 62.27 24.75 60.85H24.76Z" fill="#164373"/>
<path d="M54.8999 52.06C56.2299 52.4 57.4499 53 58.6799 53.57V55.46L58.5399 53.85C58.4499 53.85 58.4999 55.47 58.4899 55.65C57.2999 55.65 55.9799 54.74 54.7099 54.61C54.7199 53.55 54.5799 52.01 54.8999 52.06Z" fill="#216EAC"/>
<path d="M29.95 51.78C29.93 51.87 30.04 53.27 30.04 53.67L25.98 55.47C25.98 54.87 25.98 54.27 25.98 53.67C26.15 53.49 26.81 53.39 26.55 53.29C27.66 52.74 28.76 52.16 29.95 51.78Z" fill="#216EAC"/>
<path d="M38.46 62.83C36.82 62.83 35.18 62.83 33.55 62.83C33.55 62.57 33.5 61.42 33.69 61.32C33.95 61.18 37.65 61.55 38.41 61.41L38.46 62.83Z" fill="#216EAC"/>
<path d="M51.9699 61.6C52.0399 61.79 52.0599 62.53 52.0599 62.83C50.5199 62.83 48.9699 62.83 47.4299 62.83L47.3799 61.32L51.8199 61.23C52.0299 61.36 51.9299 61.52 51.9599 61.61L51.9699 61.6Z" fill="#20588A"/>
<path d="M48.66 47.53C49.34 48.28 49.78 48.7 49.79 49.8C49.79 50.41 49.62 50.95 49.41 51.5C49.48 51.13 48.97 51.19 48.84 51.12C47.35 50.3 47.51 50 47.52 48.47C47.52 48.4 47.38 48.33 47.43 48.09C47.83 47.91 48.27 47.72 48.66 47.52V47.53Z" fill="#0B152A"/>
<path d="M23.53 56.31C23.43 57.3 24.03 58.4 24.29 59.38C24.32 59.5 24.3 60.88 24.76 60.84C25.04 62.26 25.41 63.34 24.29 62.49L22.4 55.55C22.59 55.12 22.58 55.37 22.87 55.17C23.34 55.48 23.29 55.69 23.53 56.3V56.31Z" fill="#20588A"/>
<path d="M34.96 46.96C34.83 47.35 35.81 47.51 35.81 47.76C35.81 47.81 35.23 48.35 35.15 48.52C34.83 49.17 34.89 49.47 34.87 49.51C34.47 50.31 34.11 49.86 32.98 49.6C33.15 49.17 33.34 48.73 33.45 48.28C33.78 47.88 34.3 46.87 34.96 46.96Z" fill="#164373"/>
<path d="M36.76 48C36.69 48.7 36.85 49.93 36.76 50.46C36.76 50.5 36.44 51.07 36.38 51.22C36.57 49.94 35.92 51.38 35.34 51.41C35.15 50.88 34.83 50.21 34.96 49.61C35.02 49.34 36.2 48.22 36.38 47.81C36.51 47.87 36.64 47.94 36.76 48Z" fill="#0B152A"/>
<path d="M51.12 48.19C51.24 48.43 51.3 48.78 51.5 48.99L49.8 49.79C49.79 48.69 49.35 48.27 48.67 47.52C48.68 47.52 48.85 47.34 48.86 47.33C49.19 47.16 49.57 47.05 49.9 46.86C50.4 47.09 50.89 47.71 51.13 48.18L51.12 48.19Z" fill="#164373"/>
<path d="M25.5099 53.86C25.6799 54.47 25.5999 55.2 25.5999 55.84L23.6199 56.6C23.5899 56.51 23.5599 56.41 23.5299 56.32C23.2899 55.71 23.3399 55.5 22.8699 55.19C23.5499 54.73 24.7299 54.28 25.5199 53.87L25.5099 53.86Z" fill="#20588A"/>
<path d="M51.49 59.53C52.14 59.64 51.66 59.74 51.68 59.81C51.1 59.82 47.36 59.83 47.24 60.05C47.2 60.12 47.3 60.96 47.33 60.99C47.5 61.15 51.4 60.84 51.96 60.85C52.01 61.11 52.42 61.57 51.96 61.61C51.93 61.52 52.03 61.36 51.82 61.23L47.38 61.32L47.43 62.83C47.27 62.83 47.11 62.83 46.96 62.83C47.06 62.69 47.05 62.61 47.05 62.45C47.08 61.68 47.05 60.85 46.96 60.09C46.97 60.04 46.95 59.96 46.96 59.9C47 59.73 47.02 59.59 47.05 59.43C47.1 59.19 47.19 58.88 47.33 58.67C47.34 58.87 47.28 59.63 47.38 59.71C47.45 59.66 47.55 59.52 47.57 59.52C48.87 59.68 50.25 59.32 51.49 59.52V59.53Z" fill="#0F2F53"/>
<path d="M58.96 53.67L58.68 62.69C58.75 62.79 59.11 62.72 59.25 62.74C60.57 62.89 59.94 62.36 60.38 60.52C60.44 60.26 61.18 57.49 61.37 57.54C60.82 59.29 60.5 61.08 60.47 62.93C59.81 62.93 59.15 62.93 58.49 62.93C58.6 61.39 58.56 59.84 58.58 58.3C58.6 57.36 58.73 56.41 58.67 55.47V53.58C58.67 53.58 58.78 53.59 58.95 53.67H58.96Z" fill="#0B152A"/>
<path d="M26.5499 53.29C26.8199 53.39 26.1499 53.49 25.9799 53.67C25.6399 54.02 25.7999 56.52 25.7899 57.26C25.7599 59.12 25.8799 60.99 25.6999 62.83C25.6899 62.83 25.7799 62.92 25.4199 62.92C25.3699 62.72 25.5999 62.65 25.6099 62.59C25.6799 62.26 25.6099 57 25.6099 55.83C25.6099 55.19 25.6899 54.46 25.5199 53.85C25.8699 53.67 26.1899 53.47 26.5599 53.28L26.5499 53.29Z" fill="#0B152A"/>
<path d="M36.3799 47.81C36.1999 48.22 35.0199 49.33 34.9599 49.61L34.8699 49.52C34.8699 49.52 34.8299 49.17 35.1499 48.53C35.2299 48.37 35.8099 47.82 35.8099 47.77C35.8099 47.51 34.8299 47.36 34.9599 46.97C35.0399 46.98 36.1299 47.71 36.3799 47.82V47.81Z" fill="#0F2F53"/>
<path d="M25.9799 55.46C25.9699 56.41 26.0899 57.37 25.7899 57.26C25.7999 56.52 25.6399 54.02 25.9799 53.67C25.9799 54.26 25.9799 54.87 25.9799 55.47V55.46Z" fill="#6398C3"/>
<path d="M59.72 59.9C60.04 58.26 60.39 56.59 61.14 55.08C60.72 56.56 60.47 58.2 60.01 59.66C59.98 59.75 59.87 59.95 59.73 59.9H59.72Z" fill="#6398C3"/>
<path d="M58.68 55.46C58.74 56.41 58.6 57.35 58.59 58.29C58.3 58.39 58.47 56.82 58.5 55.64C58.5 55.46 58.46 53.84 58.55 53.84L58.69 55.45L58.68 55.46Z" fill="#6398C3"/>
<path d="M34.96 49.61C34.82 50.21 35.15 50.87 35.34 51.41C35.7 52.43 35.79 52.31 35.81 52.35C36.14 53.06 36.86 54.43 37.32 55C37.27 55.02 37.14 55.09 37.13 55.09C36.52 54.77 35.8 54.93 35.24 55.28C35.12 53.88 33.95 53.21 33.63 52.78C33.59 52.73 33.58 51.82 33.11 51.69C32.33 51.49 32.31 52.94 31.93 52.49C31.83 52.18 32.78 50.11 32.97 49.61C34.1 49.86 34.46 50.31 34.86 49.52L34.95 49.61H34.96Z" fill="#20588A"/>
<path d="M37.13 55.09C36.84 55.37 36.06 55.33 35.57 55.56C34.64 56.01 32.6 59.32 31.84 60.33C31.53 60.73 30.82 61.08 31.13 61.32C31.23 61.4 31.4 61.06 31.51 61.13C31.69 61.25 30.99 62.36 30.8 61.46C30.66 60.8 30.84 57.3 30.89 56.31C30.96 57.31 31.07 58.33 31.17 59.33C31.21 59.68 31.12 60.04 31.31 60.37C32.22 58.97 33.6 56.67 34.85 55.65C34.99 55.54 35.21 55.29 35.23 55.27C35.79 54.92 36.51 54.76 37.12 55.08L37.13 55.09Z" fill="#0F2F53"/>
<path d="M30.8 54.52C30.78 54.02 30.8 53.51 30.8 53.01C31.49 49.86 31.25 52.66 31.08 54.1C31.08 54.15 30.96 54.62 30.8 54.53V54.52Z" fill="#A1C9E7"/>
<path d="M34.8699 55.65C33.6099 56.67 32.2399 58.98 31.3299 60.37C31.1299 60.04 31.2299 59.68 31.1899 59.33C32.3799 58.09 33.2999 56.41 34.8699 55.65Z" fill="#6398C3"/>
<path d="M49.4199 54.9C49.4199 54.9 49.7499 55.26 49.8899 55.37C51.4199 56.64 52.3899 58.57 53.0099 59.34C52.2799 59.68 52.1599 58.27 51.4999 58.3C51.1899 57.59 49.6099 55.8 48.9499 55.56C47.5099 55.03 46.8999 55.64 46.8699 57.07C46.8699 57.07 46.7999 57.11 46.7799 56.98C46.7399 56.74 46.8199 56.05 46.8699 55.85C47.1299 54.97 47.4199 55.1 47.6299 54.72C48.2499 54.55 48.8699 54.59 49.4299 54.91L49.4199 54.9Z" fill="#0F2F53"/>
<path d="M53.67 57.26C53.58 60.07 53.95 60.5 53.01 59.34C52.39 58.57 51.42 56.64 49.89 55.37C51.21 55.47 53 58.8 53.24 58.77C53.64 58.46 53.27 57.27 53.67 57.26Z" fill="#6398C3"/>
<path d="M51.5899 59.24C51.5799 59.37 51.7999 59.31 51.4999 59.52C50.2599 59.32 48.8799 59.68 47.5799 59.52C47.5599 59.52 47.4599 59.66 47.3899 59.71C47.2899 59.63 47.3499 58.87 47.3399 58.67C47.2899 57.69 47.2599 58.12 47.0599 57.44C47.6499 58.11 49.1999 58.09 49.4199 57.16L51.5899 59.24Z" fill="#164373"/>
<path d="M51.68 59.81C51.68 59.81 51.85 59.78 51.87 59.86C51.9 60.03 51.87 60.39 51.96 60.85C51.4 60.85 47.5 61.15 47.33 60.99C47.3 60.96 47.19 60.12 47.24 60.05C47.36 59.83 51.1 59.83 51.68 59.81Z" fill="#6BA7E8"/>
<path d="M51.4899 58.3C51.6699 58.71 51.6299 58.82 51.5799 59.24L49.4099 57.16C49.5399 56.58 49.2999 55.99 48.9399 55.55C49.6099 55.79 51.1799 57.58 51.4899 58.29V58.3Z" fill="#0B152A"/>
<path d="M75.4899 77.29C76.3699 79.29 77.3499 80.82 77.3799 81.02C77.6899 82.89 76.4499 84.55 75.3499 85.89C73.3099 85.84 74.2199 87.79 72.0899 88.16C71.1999 88.31 70.0799 88.05 69.1599 88.16C69.1699 88.07 69.2399 88.06 69.2499 87.97C69.8699 87.67 70.4999 87.26 71.0499 86.84C72.0199 86.84 72.0299 86.32 72.2799 85.8C72.5799 85.18 72.7899 84.65 72.8499 83.91C73.7899 83.91 73.4599 85.49 73.7899 85.75C74.8299 86.56 74.7899 84.53 74.8299 84.43C75.0899 83.64 76.9599 83.88 74.4499 79.19C74.0899 78.52 73.5099 78.14 73.8399 77.96C74.9799 78.25 75.8099 81.54 75.9699 81.69C76.0399 81.75 76.5699 81.42 76.7299 81.45C76.7299 81.46 76.7999 81.38 76.8199 81.64C75.3699 81.71 76.8999 82.6 75.4999 84.71L76.5399 83.72C76.9199 83.16 77.2799 81.97 77.1999 81.31C77.1799 81.12 75.6599 78.11 75.4999 77.91C74.5899 76.8 71.8399 76.06 70.3999 75.88C70.4699 75.09 70.4199 74.29 70.4899 73.52C70.9199 74.21 71.7699 73.95 72.5199 74.28C75.6699 75.95 71.7599 73.96 70.7199 74.37C70.5499 74.44 70.6799 74.99 70.7199 75.03C70.7799 75.09 71.7699 75.19 72.0399 75.31C72.5999 75.56 75.0699 77.43 75.3499 77.48C75.4099 77.49 75.3699 77.27 75.4899 77.29Z" fill="#0F2F53"/>
<path d="M73.7899 74.17C75.0999 75.02 75.2799 76.81 75.4899 77.29C75.3599 77.26 75.4099 77.49 75.3499 77.48C75.0699 77.42 72.5999 75.55 72.0399 75.31C71.7699 75.19 70.7699 75.08 70.7199 75.03C70.6799 74.99 70.5499 74.44 70.7199 74.37C71.7599 73.96 75.6599 75.94 72.5199 74.28C71.7699 73.95 70.9199 74.21 70.4899 73.52C70.4899 73.49 70.4899 73.46 70.4899 73.43C71.4499 73.33 72.9999 73.67 73.7999 74.19L73.7899 74.17Z" fill="#216EAC"/>
<path d="M73.23 73.6L70.58 73.13C70.7 71.86 70.83 70.6 71.05 69.35H71.14C71.22 69.66 72.99 73.27 73.22 73.6H73.23Z" fill="#164373"/>
<path d="M73.2299 73.6C73.3099 73.71 73.7299 73.95 73.7999 74.17C72.9999 73.66 71.4499 73.31 70.4899 73.41C70.5099 73.21 70.5799 73.19 70.5799 73.13L73.2299 73.6Z" fill="#0F2F53"/>
<path d="M74.4499 79.18C76.9599 83.87 75.0899 83.64 74.8299 84.42C74.7899 84.53 74.8299 86.55 73.7899 85.74C73.4499 85.48 73.7899 83.89 72.8499 83.9C72.9999 81.81 72.0999 80.61 69.9199 80.78C70.0299 79.62 70.0999 78.45 70.1999 77.28C73.0799 77.21 73.2399 79.54 74.4499 79.17V79.18Z" fill="#164373"/>
<path d="M76.7199 81.45C76.5599 81.42 76.0299 81.75 75.9599 81.69C75.7999 81.54 74.9799 78.25 73.8299 77.96C73.4999 78.14 74.0899 78.52 74.4399 79.19C73.2299 79.56 73.0599 77.23 70.1899 77.3C70.2199 76.94 70.3499 76.52 70.3799 76.17C71.4399 76.32 73.9099 77.1 74.6799 77.68C75.4199 78.24 76.5399 80.53 76.7099 81.46L76.7199 81.45Z" fill="#216EAC"/>
<path d="M76.5299 83.71C76.2599 82.95 76.9299 82.94 76.8099 81.63C76.7899 81.37 76.7199 81.45 76.7199 81.44C76.5499 80.51 75.4299 78.22 74.6899 77.66C73.9199 77.07 71.4499 76.3 70.3899 76.15C70.3899 76.06 70.3899 75.96 70.3899 75.87C71.8299 76.05 74.5899 76.79 75.4899 77.9C75.6499 78.1 77.1699 81.11 77.1899 81.3C77.2699 81.96 76.9099 83.15 76.5299 83.71Z" fill="#6398C3"/>
<path d="M76.5299 83.71L75.4899 84.7C76.8899 82.59 75.3599 81.7 76.8099 81.63C76.9299 82.94 76.2599 82.95 76.5299 83.71Z" fill="#20588A"/>
<path d="M71.0499 86.83C71.2899 86.64 71.6199 86.3 71.8999 86.07C72.0199 85.97 72.1499 85.87 72.2799 85.79C72.0299 86.3 72.0199 86.82 71.0499 86.83Z" fill="#0B152A"/>
<path d="M14.5499 67.08C14.5899 68.85 14.9399 70.61 15.1199 72.37C14.2399 72.41 13.2899 72.25 12.4699 72.7L15.1199 72.65C15.1199 72.74 15.1199 72.84 15.1199 72.93C13.7299 73.1 12.3199 73.42 11.2499 74.39C11.8299 74.01 14.4899 72.95 14.9799 73.3C15.1299 73.4 14.8899 74.03 15.2199 73.58C15.2799 74.13 15.2599 74.73 15.3099 75.28C12.5099 76.68 10.1799 76.46 8.97994 79.82C8.35994 75 10.7599 74.25 11.9999 72.31C12.2199 71.96 14.2999 67.35 14.3599 67.07C14.4399 67.07 14.5399 67.06 14.5499 67.07V67.08Z" fill="#216EAC"/>
<path d="M15.31 75.97C14.28 75.93 12.32 76.66 11.48 77.2C10.04 78.12 8.05996 81.93 9.16996 83.44C10.65 85.29 9.70996 83.94 9.63996 83.11C9.50996 81.4 11.65 77.52 12.1 78.2C11.79 78.6 11.58 79.03 11.34 79.48C9.93996 82.11 9.30996 83.62 11.77 86C12.1 85.88 11.66 83.75 11.91 83.31C11.94 83.25 13.01 82.85 13.04 83.36C13.04 84.21 13.22 85.35 13.61 86.1C13.95 86.76 14.33 87.3 15.12 86.95C15.56 87.26 16 87.58 16.44 87.89C16.45 87.89 16.48 88.06 16.63 88.08C16.63 88.11 16.63 88.14 16.63 88.17C16.03 88.12 15.33 88.23 14.74 88.17C14.54 88.15 14.53 88.09 14.46 88.08C13.7 87.95 13.18 87.72 12.52 87.32C10.14 84.67 7.46996 84.06 8.97996 79.86C10.18 76.51 12.51 76.72 15.31 75.32C15.37 75.9 15.31 75.95 15.31 75.98V75.97Z" fill="#0F2F53"/>
<path d="M15.2099 73.6C14.8799 74.04 15.1199 73.42 14.9699 73.32C14.4799 72.97 11.8199 74.02 11.2399 74.41C12.3099 73.43 13.7199 73.11 15.1099 72.95C15.1299 73.16 15.1799 73.39 15.1999 73.61L15.2099 73.6Z" fill="#0F2F53"/>
<path d="M15.12 72.38C15.12 72.47 15.12 72.57 15.12 72.66L12.47 72.71C13.29 72.26 14.23 72.42 15.12 72.38Z" fill="#164373"/>
<path d="M15.59 77.29C15.71 78.45 15.75 79.64 15.87 80.79C14.96 80.15 13.11 81.44 13.04 83.15C13.04 83.21 13.04 83.28 13.04 83.34C13.01 82.83 11.94 83.23 11.91 83.29C11.66 83.73 12.1 85.86 11.77 85.98C9.31999 83.6 9.94999 82.09 11.34 79.46C11.44 80.14 12.94 78.1 13.65 77.76C14.29 77.46 14.94 77.53 15.59 77.29Z" fill="#164373"/>
<path d="M15.3999 76.25C15.4299 76.57 15.5599 76.97 15.5899 77.29C14.9399 77.53 14.2899 77.46 13.6499 77.76C12.9299 78.1 11.4299 80.14 11.3399 79.46C11.5799 79.02 11.7899 78.59 12.0999 78.18C11.6599 77.5 9.50993 81.38 9.63993 83.09C9.69993 83.92 10.6499 85.27 9.16993 83.42C9.58993 83.42 9.09993 83.19 9.07993 83.09C8.80993 81.66 10.1399 78.63 11.2999 77.75C12.0999 77.14 14.3399 76.37 15.4099 76.24L15.3999 76.25Z" fill="#216EAC"/>
<path d="M15.31 75.97C15.31 75.97 15.3599 75.87 15.3999 76.25C14.3299 76.39 12.0899 77.15 11.2899 77.76C10.1299 78.64 8.79995 81.67 9.06995 83.1C9.08995 83.21 9.58995 83.44 9.15995 83.43C8.05995 81.92 10.04 78.12 11.4699 77.19C12.3099 76.65 14.27 75.93 15.3 75.96L15.31 75.97Z" fill="#6398C3"/>
<path d="M49.42 51.49C49.32 51.77 49.09 52.15 48.95 52.43L48.86 51.11C48.99 51.18 49.49 51.11 49.43 51.49H49.42Z" fill="#F6E2C1"/>
<path d="M23.6199 56.6C24.0099 57.68 24.5299 59.71 24.7499 60.85C24.2899 60.88 24.3099 59.5 24.2799 59.39C24.0299 58.41 23.4199 57.31 23.5199 56.32C23.5599 56.42 23.5799 56.51 23.6099 56.6H23.6199Z" fill="#6398C3"/>
<path d="M36.38 51.21C36.22 51.59 36.04 51.99 35.81 52.34C35.79 52.29 35.7 52.42 35.34 51.4C35.92 51.37 36.57 49.93 36.38 51.21Z" fill="#17141E"/>
<path d="M31.09 50.93C30.47 51.72 30.8 52.06 30.81 53.01C30.81 53.51 30.79 54.02 30.81 54.52C30.83 55.1 30.87 55.73 30.9 56.32C30.84 57.31 30.66 60.81 30.81 61.47C31 62.37 31.7 61.26 31.52 61.14C31.41 61.07 31.24 61.41 31.14 61.33C30.83 61.09 31.54 60.74 31.85 60.34C32.61 59.33 34.65 56.02 35.58 55.57C36.06 55.34 36.85 55.38 37.14 55.1C37.14 55.1 37.28 55.02 37.33 55.01C37.84 55.64 38.31 56.06 39.03 56.43C39.09 56.79 38.99 57.12 38.94 57.47C38.85 58 38.77 58.44 38.75 58.98C38.74 59.4 38.84 59.81 38.84 60.21C38.84 60.43 38.84 60.65 38.84 60.87C38.86 61.25 38.83 61.63 38.84 62C38.85 62.29 38.87 62.56 38.93 62.85C38.77 62.85 38.61 62.85 38.46 62.85L38.41 61.43C37.64 61.56 33.94 61.2 33.69 61.34C33.5 61.44 33.55 62.59 33.55 62.85C32.36 62.85 31.15 62.94 29.96 62.94C29.9 62.7 30.13 62.78 30.15 62.7C30.32 62.1 30.06 55.1 30.06 53.68C30.06 53.28 29.95 51.88 29.97 51.79C29.97 51.75 30.27 51.06 30.3 51.03C30.33 51.01 30.81 50.99 31.1 50.94L31.09 50.93Z" fill="#0F2F53"/>
<path d="M35.62 57.64C36.01 58.71 37.88 58.47 37.89 57.07C38.76 56.82 37.18 55.79 37.13 55.7C36.78 54.97 38.22 55.72 38.36 56.55C38.19 57.41 38.42 58.25 38.45 59.1C38.45 59.16 38.1 58.95 38.5 59.9C37.09 59.52 35.32 59.66 33.78 59.62C33.51 59.29 35.14 57.1 35.62 57.64Z" fill="#164373"/>
<path d="M33.78 60C33.97 59.87 38.21 59.88 38.41 60C38.62 60.13 38.58 61.04 38.55 61.09C38.41 61.28 34.46 60.9 33.78 61.04C33.55 60.93 33.74 60.03 33.78 60Z" fill="#6398C3"/>
<path d="M37.89 57.07C37.89 58.46 36.01 58.7 35.62 57.64C34.9 55.66 37.9 55.12 37.89 57.07Z" fill="#437CAD"/>
<path d="M36.42 56.22C37.69 55.85 37.9 58.49 35.9 57.12C35.79 56.97 36.24 56.27 36.42 56.22Z" fill="#164373"/>
<path d="M48.94 55.56C49.3 56 49.55 56.59 49.41 57.17C49.19 58.11 47.64 58.12 47.05 57.45C46.94 57.07 46.87 57.09 46.86 57.07C46.89 55.64 47.5 55.03 48.94 55.56Z" fill="#437CAD"/>
<path d="M48 56.88C48.7 56.78 48.32 56.51 48.24 56.5C48.22 56.5 48.02 56.66 48 56.88C47.41 56.96 47.15 57.06 47.34 56.27C47.52 55.5 48.79 55.63 48.95 56.36C49.14 57.29 47.95 57.73 48.01 56.88H48Z" fill="#164373"/>
<path d="M48 56.88C48.01 56.66 48.21 56.5 48.24 56.5C48.32 56.51 48.71 56.78 48 56.88Z" fill="#061F44"/>
<defs>
<linearGradient id="paint0_linear_38_223" x1="29.77" y1="79.49" x2="51.39" y2="114.78" gradientUnits="userSpaceOnUse">
<stop stop-color="#DFAD6C"/>
<stop offset="1" stop-color="#C6956F"/>
</linearGradient>
<linearGradient id="paint1_linear_38_223" x1="40.93" y1="100.09" x2="41.38" y2="104.6" gradientUnits="userSpaceOnUse">
<stop stop-color="#A96944"/>
<stop offset="1" stop-color="#8D5231"/>
</linearGradient>
<linearGradient id="paint2_linear_38_223" x1="43.32" y1="77.28" x2="43.33" y2="92.21" gradientUnits="userSpaceOnUse">
<stop stop-color="#719AA8"/>
<stop offset="1" stop-color="#527F8C"/>
</linearGradient>
<linearGradient id="paint3_linear_38_223" x1="43.04" y1="65.06" x2="43.05" y2="82.64" gradientUnits="userSpaceOnUse">
<stop stop-color="#B6D0DA"/>
<stop offset="1" stop-color="#8CB1BE"/>
</linearGradient>
<linearGradient id="paint4_linear_38_223" x1="42.4599" y1="51.37" x2="42.1099" y2="55.7" gradientUnits="userSpaceOnUse">
<stop stop-color="#E08852"/>
<stop offset="1" stop-color="#EDA569"/>
</linearGradient>
</defs>
</svg>
