<svg width="182" height="182" viewBox="0 0 182 182" fill="none" xmlns="http://www.w3.org/2000/svg">
<circle cx="91" cy="91" r="91" fill="#F3919F"/>
<path d="M128.264 115.501C129.403 117.56 129.972 118.59 130.365 119.506C134.123 128.254 131.192 138.438 123.359 143.851C122.54 144.418 121.51 144.987 119.45 146.126V146.126C119.141 146.297 118.987 146.383 118.849 146.442C117.537 147.005 116.009 146.566 115.197 145.391C115.112 145.268 115.027 145.113 114.856 144.804L68.2056 60.4535C66.2097 56.8447 65.2117 55.0402 64.7401 53.3551C63.21 47.8885 64.897 42.0264 69.0988 38.2093C70.3941 37.0327 72.1985 36.0347 75.8073 34.0388V34.0388C77.0102 33.3735 77.6117 33.0409 78.1734 32.8837C79.9956 32.3736 81.9497 32.936 83.222 34.3366C83.6142 34.7683 83.9469 35.3698 84.6122 36.5728L128.264 115.501Z" fill="#2D2E4E"/>
<path d="M51.5013 104.916C50.1701 104.994 49.5045 105.033 48.9404 105.031C39.8693 104.993 32.2435 98.2112 31.147 89.2065C31.0788 88.6465 31.0398 87.9809 30.9618 86.6498V86.6498C30.9358 86.206 30.9228 85.9842 30.9236 85.7961C30.9361 82.7724 33.1967 80.2305 36.1983 79.865C36.385 79.8423 36.6068 79.8293 37.0505 79.8033L132.715 74.199C134.477 74.0957 135.358 74.0441 136.105 74.0747C143.239 74.3675 149.179 79.6494 150.303 86.7012C150.42 87.439 150.472 88.3202 150.575 90.0825V90.0825C150.63 91.0224 150.658 91.4924 150.641 91.8905C150.485 95.6957 147.668 98.8634 143.907 99.4628C143.514 99.5255 143.044 99.553 142.104 99.6081L51.5013 104.916Z" fill="#2D2E4E"/>
<path d="M78.196 136.063C77.5266 137.216 77.1919 137.792 76.8786 138.262C71.8422 145.806 61.9786 148.424 53.8636 144.37C53.359 144.118 52.7824 143.783 51.6291 143.114V143.114C51.2447 142.891 51.0525 142.779 50.8961 142.675C48.3813 140.996 47.5086 137.708 48.86 135.003C48.944 134.835 49.0556 134.643 49.2787 134.258L97.389 51.3821C98.2752 49.8553 98.7184 49.092 99.1558 48.4863C103.337 42.6974 111.019 40.6585 117.52 43.6121C118.2 43.9211 118.964 44.3642 120.491 45.2505V45.2505C121.305 45.7232 121.712 45.9596 122.035 46.1928C125.122 48.4227 126.21 52.5199 124.635 55.9872C124.47 56.35 124.233 56.7571 123.761 57.5714L78.196 136.063Z" fill="#2D2E4E"/>
</svg>
