<svg width="276" height="275" viewBox="0 0 276 275" fill="none" xmlns="http://www.w3.org/2000/svg">
<g clip-path="url(#clip0_22_158)">
<path d="M130.052 0.197891C237.52 -5.44161 311.41 109.822 258.469 204.655C208.152 294.788 78.1003 299.339 22.0881 212.273C-36.5984 121.002 29.1701 5.49111 130.052 0.197891Z" fill="#F3919F"/>
<path d="M131.488 8.75607C231.874 4.3533 299.871 111.108 251.337 199.906C206.418 282.124 90.085 289.742 34.0233 214.647C-27.288 132.528 29.6156 13.2083 131.488 8.75607Z" fill="#F4F4FC"/>
<path d="M127.179 13.5051C239.798 5.54057 304.179 134.655 233.211 218.457C168.284 295.134 44.0273 265.7 17.8288 172.302C-4.11053 94.1896 53.1893 18.7489 127.179 13.5051Z" fill="url(#paint0_linear_22_158)"/>
<path d="M128.615 26.8618C164.768 24.2894 200.079 38.9324 223.207 66.5857C268.423 120.705 251.981 202.923 190.075 235.82C112.817 276.88 21.5432 216.28 26.8423 129.906C30.1109 77.1227 75.6734 30.671 128.615 26.8618Z" fill="#F4F4FC"/>
<path d="M244.651 133.963H244.156C243.66 131.391 232.418 131.588 226.773 130.648L218.205 114.472C217.759 114.472 214.639 120.26 214.144 121.15L188.886 94.9811C189.976 93.9423 191.214 93.0518 192.204 91.8645C192.056 91.4193 186.063 90.8257 185.073 90.6773C183.686 88.4512 180.021 82.8611 178.387 81.6244C177.644 81.0802 177.793 80.1403 176.951 80.9318C173.484 84.1473 179.08 92.6066 162.638 91.6667C162.49 91.5677 161.598 91.8151 161.45 91.6667C154.368 85.1862 147.731 78.1615 140.699 71.6811C139.56 69.8012 138.569 66.3384 135.945 69.5539C134.706 71.0874 122.325 100.126 119.75 105.518L109.746 95.5253C110.984 94.3875 112.024 92.9034 113.56 91.9635C110.984 90.6278 108.112 91.6172 105.438 91.2709L98.7517 81.2781L97.8107 80.5855C94.1955 97.7514 87.2125 88.5996 83.0524 92.0129C83.3001 92.2603 83.5477 92.3592 83.5477 92.7055C83.5477 93.7938 89.144 100.67 90.2335 102.204C89.9363 103.836 88.0544 108.09 88.7973 109.327L96.9193 115.511C92.7097 116.055 68.4427 117.885 67.8484 120.507C67.6503 121.447 68.4922 122.288 68.7894 123.129C69.8789 126.048 75.7228 130.846 71.6618 131.242C69.9285 130.648 67.2046 131.638 65.4712 130.055C64.6789 129.313 58.5873 114.126 57.1511 114.571L49.0291 130.747C45.9586 131.143 33.2308 132.034 31.8936 133.122C31.1508 133.765 32.1908 134.062 32.1413 134.557C32.1413 135.2 31.646 135.051 31.2003 135.051C32.2898 94.338 58.2902 55.8014 95.7802 39.8228C165.164 10.2896 241.63 59.4127 244.7 134.062L244.651 133.963Z" fill="url(#paint1_linear_22_158)"/>
<path d="M214.193 121.101C213.401 122.536 210.43 130.154 209.687 130.599C207.953 131.638 203.645 128.472 196.117 137.97L204.239 145.588C199.485 170.174 196.167 166.91 217.809 155.334L234.944 164.387C236.727 164.09 231.18 147.567 231.824 145.094L244.205 133.913H244.701C246.979 189.616 203.496 239.036 147.979 243.884L144.859 242.944C161.45 242.548 181.705 235.82 195.622 225.58C188.441 217.368 167.492 202.033 162.49 196.789C159.717 193.87 163.282 195.948 165.115 195.849C171.999 199.708 181.507 206.238 183.241 203.22C184.479 201.043 172.543 160.775 171.8 154.641C175.663 150.387 207.854 123.772 208.003 121.299C208.102 119.468 205.824 118.578 204.437 118.182C202.753 117.737 176.159 114.769 169.869 113.878C175.119 112.642 168.978 111.158 167.987 109.129C170.018 108.14 176.109 103.737 177.743 103.886C178.288 103.935 185.321 108.931 186.806 109.575L184.182 98.8397C185.667 97.3556 187.401 96.2178 188.936 94.7832L214.193 120.953V121.101Z" fill="#453179"/>
<path d="M96.4737 203.467C95.6318 206.188 93.0565 203.368 94.0965 206.584C94.6908 208.414 113.362 234.485 116.036 237.997C119.503 242.548 120.345 241.509 120.345 241.806C120.295 242.301 118.908 241.707 118.908 242.499C67.5514 233.297 29.8137 187.291 31.2004 134.903C31.6462 134.903 32.0919 135.051 32.1414 134.408L44.0768 145.143C40.0158 169.531 35.4595 167.206 57.6465 155.383L74.782 163.941C76.3668 163.546 71.1667 147.864 71.6619 145.143L79.784 137.525C76.6144 134.606 75.822 132.528 71.6619 131.094C75.723 130.747 69.8791 125.949 68.7895 122.981L104.051 154.641C103.11 161.517 92.066 198.867 92.1156 201.291C92.1651 204.605 93.9975 204.061 96.4242 203.418L96.4737 203.467Z" fill="url(#paint2_linear_22_158)"/>
<path d="M165.065 195.849C163.233 195.948 159.667 193.87 162.44 196.789C167.442 202.033 188.391 217.368 195.572 225.58C181.656 235.82 161.4 242.548 144.81 242.944L147.93 243.884C137.282 244.824 129.259 244.329 118.859 242.449C118.859 241.608 120.196 242.202 120.295 241.757C120.295 241.46 119.453 242.499 115.986 237.947C113.312 234.435 94.6413 208.365 94.047 206.534C93.007 203.368 95.5823 206.188 96.4242 203.418C99.5938 202.577 130.547 183.63 137.629 180.068C139.362 179.969 161.351 193.722 165.016 195.8L165.065 195.849Z" fill="url(#paint3_linear_22_158)"/>
<path d="M140.798 71.5821C144.661 77.9637 154.17 103.094 158.924 112.741C160.113 113.73 167.789 113.631 169.869 113.928C176.109 114.818 202.753 117.737 204.437 118.232C205.824 118.627 208.102 119.518 208.003 121.348C207.854 123.822 175.663 150.436 171.8 154.691C172.543 160.825 184.479 201.093 183.241 203.269C181.507 206.238 172.048 199.708 165.115 195.899C161.45 193.87 139.411 180.068 137.728 180.167C130.596 183.68 99.6928 202.676 96.5232 203.517C94.1461 204.16 92.3137 204.704 92.2146 201.39C92.1651 198.966 103.16 161.616 104.15 154.74L68.8886 123.08C68.5914 122.239 67.7495 121.398 67.9476 120.458C68.5419 117.836 92.8089 116.006 97.0185 115.461C103.605 114.571 110.192 113.829 116.779 113.087C117.324 112.691 119.304 106.656 119.899 105.469C122.524 100.126 134.855 71.038 136.093 69.5044C138.768 66.2889 139.709 69.7517 140.848 71.6316L140.798 71.5821Z" fill="#F4F4FC"/>
<path d="M244.205 133.963L231.824 145.143C231.18 147.616 236.727 164.139 234.944 164.436L217.809 155.383C196.117 166.959 199.435 170.224 204.239 145.638L196.117 138.019C203.694 128.521 208.003 131.687 209.687 130.648C210.479 130.154 213.451 122.585 214.193 121.15C214.639 120.26 217.809 114.423 218.254 114.472L226.822 130.648C232.517 131.638 243.76 131.391 244.205 133.963Z" fill="#F4F4FC"/>
<path d="M71.6619 131.094C75.822 132.528 76.6144 134.606 79.784 137.525L71.6619 145.143C71.1667 147.864 76.3172 163.546 74.782 163.941L57.6465 155.383C35.4595 167.206 40.0158 169.531 44.0768 145.143L32.1414 134.408C32.1414 133.913 31.1509 133.617 31.8938 132.974C33.2309 131.836 46.0083 130.995 49.0292 130.599L57.1513 114.423C58.5875 113.928 64.679 129.164 65.4714 129.906C67.2047 131.489 69.9781 130.5 71.6619 131.094Z" fill="#F4F4FC"/>
<path d="M162.688 91.6172C165.263 93.9917 167.64 96.7125 170.315 98.9881C169.77 101.561 166.848 107.101 167.938 109.228C168.978 111.257 175.069 112.79 169.819 113.977C167.69 113.681 160.014 113.73 158.875 112.79C154.12 103.144 144.612 78.0131 140.749 71.6316C147.781 78.1121 154.417 85.1367 161.499 91.6172C161.648 91.7656 162.539 91.5183 162.688 91.6172Z" fill="#2C1264"/>
<path d="M109.796 95.4263L119.8 105.419C119.255 106.606 117.274 112.642 116.68 113.037C110.093 113.779 103.457 114.521 96.9194 115.412L88.7974 109.228C90.4317 108.684 97.1175 104.083 97.6128 103.985C99.8414 103.688 105.24 108.189 107.617 109.228L108.31 108.536C107.518 106.656 105.041 99.928 105.438 98.5429C105.685 97.7514 109.548 95.6242 109.746 95.4263H109.796Z" fill="#453179"/>
<path d="M178.437 81.6244L181.309 90.4299C182.745 92.1119 184.924 90.6278 185.123 90.6773C186.163 90.8257 192.106 91.4193 192.254 91.8645C191.264 93.0518 190.025 93.9423 188.936 94.9811C187.401 96.4157 185.618 97.5535 184.182 99.0376L186.806 109.772C185.321 109.129 178.288 104.133 177.743 104.083C176.109 103.935 170.018 108.338 167.987 109.327C166.947 107.2 169.819 101.659 170.364 99.0871C167.69 96.762 165.313 94.0907 162.737 91.7161C179.18 92.6561 173.534 84.2463 177.05 80.9813C177.892 80.1898 177.743 81.1297 178.486 81.6739L178.437 81.6244Z" fill="#F4F4FC"/>
<path d="M185.123 90.6278C185.123 90.6278 182.745 92.0624 181.309 90.3805L178.437 81.5749C180.071 82.7622 183.736 88.4017 185.123 90.6278Z" fill="#2C1264"/>
<path d="M98.8509 81.1297C102.417 88.5006 100.287 90.4299 105.537 91.1225C108.161 91.4688 111.034 90.4794 113.659 91.8151C112.123 92.755 111.083 94.2391 109.845 95.3769C109.647 95.5747 105.784 97.6525 105.537 98.4934C105.14 99.8786 107.567 106.606 108.409 108.486L107.716 109.179C105.339 108.14 99.9404 103.638 97.7118 103.935C97.2166 103.985 90.5308 108.635 88.8965 109.179C88.1536 107.893 90.0355 103.688 90.3327 102.055C90.4317 101.363 91.3727 99.2849 91.2736 98.9387L83.6469 92.5076C83.6469 92.1119 83.3992 92.0129 83.1516 91.8151C87.3117 88.4017 94.3442 97.603 97.9099 80.3877L98.8509 81.0802V81.1297Z" fill="#F4F4FC"/>
<path d="M90.2831 102.055C89.2431 100.522 83.5973 93.6454 83.5973 92.5571L91.2241 98.9881C91.2736 99.3344 90.3822 101.412 90.2831 102.105V102.055Z" fill="#2C1264"/>
<path d="M105.537 91.1225C100.287 90.4299 102.417 88.5006 98.8509 81.1297L105.537 91.1225Z" fill="#2C1264"/>
</g>
<defs>
<linearGradient id="paint0_linear_22_158" x1="132.874" y1="17.3637" x2="143.004" y2="256.598" gradientUnits="userSpaceOnUse">
<stop stop-color="#715AAE"/>
<stop offset="1" stop-color="#2C1264"/>
</linearGradient>
<linearGradient id="paint1_linear_22_158" x1="38.4309" y1="81.6739" x2="239.005" y2="87.2268" gradientUnits="userSpaceOnUse">
<stop stop-color="#F3919F"/>
<stop offset="0.86" stop-color="#FDB05F"/>
</linearGradient>
<linearGradient id="paint2_linear_22_158" x1="31.8442" y1="172.153" x2="113.109" y2="186.084" gradientUnits="userSpaceOnUse">
<stop stop-color="#2C1264"/>
<stop offset="1" stop-color="#453179"/>
</linearGradient>
<linearGradient id="paint3_linear_22_158" x1="100.881" y1="206.732" x2="186.851" y2="221.159" gradientUnits="userSpaceOnUse">
<stop stop-color="#2C1264"/>
<stop offset="1" stop-color="#453179"/>
</linearGradient>
<clipPath id="clip0_22_158">
<rect width="276" height="275" fill="white"/>
</clipPath>
</defs>
</svg>
