<svg width="170" height="195" viewBox="0 0 170 195" fill="none" xmlns="http://www.w3.org/2000/svg">
<path d="M0 85C0 38.0558 38.0558 0 85 0V0C131.944 0 170 38.0558 170 85V195H0V85Z" fill="#CCBDF4"/>
<g clip-path="url(#clip0_23_509)">
<path d="M108.006 60.0427C107.54 60.0427 107.016 60.072 106.551 60.0427C109.346 58.2309 105.182 57.062 107.686 57.1497C107.89 57.1497 108.443 58.1725 111.5 57.6757C111.85 58.2017 107.919 59.4291 107.249 59.6336L107.977 60.0427H108.006Z" fill="#D8DFE4"/>
<path d="M25.4054 144.935C25.9586 144.731 27.1524 146.981 27.1524 147.127C27.2397 149.582 24.1244 145.432 25.4054 144.935Z" fill="#D8DFE4"/>
<path d="M23.542 140.347C24.2117 140.26 25.551 143.387 24.5902 143.474C23.9497 143.533 22.523 140.523 23.542 140.347Z" fill="#D8DFE4"/>
<path d="M125.068 65.8581C125.476 65.6828 127.718 67.2316 127.659 67.6115C127.485 68.9557 123.7 66.3841 125.068 65.8581Z" fill="#D8DFE4"/>
<path d="M139.218 81.4339C139.218 81.2294 139.218 80.9079 139.218 80.6157C139.742 80.2066 139.859 80.528 140.266 80.9371C142.159 82.8951 141.023 84.59 139.218 81.4631V81.4339Z" fill="#D8DFE4"/>
<path d="M142.217 84.327C142.77 84.2393 143.731 85.7881 143.76 85.8758C144.867 89.0611 140.441 84.6192 142.217 84.327Z" fill="#D8DFE4"/>
<path d="M27.6765 149.29C28.4626 148.997 30.4133 152.387 28.9284 152.183C28.7537 152.183 26.7448 149.64 27.6765 149.29Z" fill="#D8DFE4"/>
<path d="M137.879 157.998C140.732 157.092 135.928 162.381 136.336 159.751C136.336 159.634 137.762 158.027 137.879 157.998Z" fill="#D8DFE4"/>
<path d="M148.419 96.776C149.205 96.4545 150.166 99.3768 149.467 99.669C148.681 99.9905 147.72 97.0682 148.419 96.776Z" fill="#D8DFE4"/>
<path d="M20.6596 131.025C21.3001 130.762 21.7951 132.399 21.7951 132.779C21.9407 136.315 19.4367 131.522 20.6596 131.025Z" fill="#D8DFE4"/>
<path d="M19.8152 126.028C21.2128 125.473 20.8634 131.054 19.6988 128.629C19.6114 128.454 19.2621 126.262 19.8152 126.028Z" fill="#D8DFE4"/>
<path d="M134.589 161.534C136.831 161.008 134.152 163.726 133.774 163.813C131.648 164.31 134.181 161.622 134.589 161.534Z" fill="#D8DFE4"/>
<path d="M60.3441 57.9679C62.6151 58.1432 58.8301 60.3642 58.1605 59.5167C57.5782 58.7569 60.1986 57.9387 60.3441 57.9679Z" fill="#D8DFE4"/>
<path d="M24.3864 94.0874C25.7548 93.8537 24.3864 97.3312 23.5712 96.9805C22.7268 96.6298 24.1535 94.1167 24.3864 94.0874Z" fill="#D8DFE4"/>
<path d="M31.1994 81.843C33.2084 81.5216 29.5981 86.3434 29.6563 84.0348C29.6563 83.8886 31.083 81.8723 31.1994 81.843Z" fill="#D8DFE4"/>
<path d="M146.788 92.4217C147.254 92.3633 148.128 94.2628 148.128 94.3797C148.361 97.3604 145.245 92.6263 146.788 92.4217Z" fill="#D8DFE4"/>
<path d="M140.994 154.257C143.265 153.585 139.335 158.699 139.451 156.215C139.451 156.099 140.878 154.287 140.994 154.257Z" fill="#D8DFE4"/>
<path d="M73.3879 54.4319C78.3667 53.8475 71.1751 57.2666 72.0486 54.9579C72.136 54.7534 73.1841 54.4612 73.3879 54.4319Z" fill="#D8DFE4"/>
<path d="M36.3529 160.482C36.7605 160.424 39.8176 163.404 37.6049 162.966C37.4302 162.937 34.9553 160.687 36.3529 160.482Z" fill="#D8DFE4"/>
<path d="M69.0206 55.2794C72.3398 55.2794 67.7395 57.6172 67.2736 56.4191C67.0116 55.747 68.7877 55.2794 69.0206 55.2794Z" fill="#D8DFE4"/>
<path d="M21.8825 135.789C23.1927 135.233 23.6585 140.903 21.9989 137.98C21.7951 137.63 21.3584 136.022 21.8825 135.789Z" fill="#D8DFE4"/>
<path d="M55.8021 59.8382C58.0731 59.8382 54.6084 62.176 53.8514 61.5915C53.1235 61.0363 55.4236 59.8382 55.8021 59.8382Z" fill="#D8DFE4"/>
<path d="M144.721 88.2721C145.129 88.2136 146.264 90.1131 146.264 90.23C146.497 92.8016 143.12 88.5059 144.721 88.2721Z" fill="#D8DFE4"/>
<path d="M26.2207 89.9378C27.8511 89.4702 26.1333 92.8601 25.6092 92.8309C24.4737 92.8309 25.9295 90.0255 26.2207 89.9378Z" fill="#D8DFE4"/>
<path d="M33.2666 157.18C33.849 156.946 35.9162 159.284 34.9262 159.664C34.373 159.898 32.3058 157.56 33.2666 157.18Z" fill="#D8DFE4"/>
<path d="M30.3551 153.439C30.85 153.235 32.0729 154.871 32.102 154.988C33.0337 157.706 28.9866 153.965 30.3551 153.439Z" fill="#D8DFE4"/>
<path d="M28.7246 85.7881C29.9766 85.7881 28.1423 88.7397 27.6765 88.6812C26.3954 88.5935 28.4043 85.7881 28.7246 85.7881Z" fill="#D8DFE4"/>
<path d="M47.7371 64.3969C49.6878 64.6892 45.204 67.816 45.5534 65.9458C45.6116 65.6828 47.5915 64.3677 47.7371 64.3969Z" fill="#D8DFE4"/>
<path d="M51.4639 62.1176C54.0261 61.913 49.9208 64.8937 49.5131 63.6664C49.3384 63.1988 51.3474 62.1176 51.4639 62.1176Z" fill="#D8DFE4"/>
<path d="M64.4785 56.5068C67.8268 56.3022 62.586 59.0199 62.5278 57.6465C62.4987 57.1204 64.3912 56.5068 64.4785 56.5068Z" fill="#D8DFE4"/>
<path d="M121.137 63.3741C121.516 63.228 123.554 64.4262 123.525 64.923C123.409 66.0626 119.769 63.9002 121.137 63.3741Z" fill="#D8DFE4"/>
<path d="M117.207 61.2993C117.207 61.2993 118.779 61.8546 118.866 61.913C122.04 64.4554 114.412 61.8546 117.207 61.2993Z" fill="#D8DFE4"/>
<path d="M102.329 55.6885C102.562 55.5424 104.367 55.9515 104.6 56.0976C107.366 57.7633 100.669 56.6821 102.329 55.6885Z" fill="#D8DFE4"/>
<path d="M39.6721 163.813C40.1088 163.696 42.4089 165.654 41.1278 165.888C40.3417 166.034 38.4201 164.135 39.6721 163.813Z" fill="#D8DFE4"/>
<path d="M135.724 69.5986C132.522 70.7091 124.748 70.5045 122.797 71.6735C120.875 72.8132 118.663 79.7098 121.05 82.9827C123.671 86.5772 131.328 87.337 135.2 85.7881C138.461 84.5023 138.694 80.791 139.014 83.3042C138.578 85.4959 137.122 87.4831 134.764 87.863C133.715 88.0383 124.107 87.9214 123.176 87.6584C122.419 87.4539 120.788 86.1096 120.38 85.4667C119.216 83.5672 119.158 73.6898 120.177 71.7611C120.235 71.6442 121.807 70.0662 121.924 70.0078C123.933 68.8096 133.482 68.8681 135.666 69.5986H135.724Z" fill="#C3D24A"/>
<path d="M135.724 69.5986C136.045 69.7155 136.598 69.8324 136.86 70.0078C139.684 71.8196 139.422 77.4888 139.247 80.5865C139.247 80.8787 139.247 81.2001 139.247 81.4047C139.247 81.7262 139.102 83.0412 139.044 83.275C138.694 80.7618 138.49 84.4731 135.229 85.7589C131.328 87.3077 123.671 86.5479 121.079 82.9535C118.721 79.6805 120.905 72.7839 122.826 71.6442C124.777 70.4753 132.551 70.6799 135.753 69.5694L135.724 69.5986Z" fill="#C3D24A"/>
<path d="M135.608 78.5116C137.442 78.5993 137.209 79.3299 136.656 79.5637C135.986 79.8267 122.448 79.9436 122.273 79.2422C122.244 79.0961 122.215 78.8039 122.389 78.7162C122.972 78.3947 134.181 78.4532 135.608 78.5116Z" fill="white"/>
<path d="M123.816 81.2002C125.534 80.9371 132.551 81.8723 136.219 81.2002C136.54 81.5216 136.831 81.2878 136.743 81.9307C136.656 82.5152 126.204 82.3106 125.272 82.2522C123.816 82.1353 120.526 81.7262 123.816 81.2002Z" fill="white"/>
<path d="M136.743 76.8459H122.681C122.681 76.8459 121.749 76.9336 122.564 76.0277C125.097 76.2322 135.812 75.7647 136.627 76.0277C137.268 76.2322 136.743 76.8167 136.743 76.8459Z" fill="white"/>
<path d="M136.743 74.362H124.136C123.991 74.2743 123.176 74.6542 123.612 73.5437C125.971 73.7483 135.87 73.2807 136.627 73.5437C137.064 73.6899 136.918 74.099 136.743 74.362Z" fill="white"/>
<path d="M136.743 76.8459C136.685 77.0213 137.122 77.1674 136.86 77.2551C136.19 77.4888 123.263 77.4596 122.593 77.2551C122.331 77.1674 122.768 76.9628 122.71 76.8459H136.773H136.743Z" fill="#A4B736"/>
<path d="M136.743 74.362C136.743 74.362 136.831 74.6834 136.627 74.7711C136.045 75.0049 124.806 74.9464 124.224 74.7711C124.049 74.7127 124.136 74.362 124.107 74.362H136.714H136.743Z" fill="#A4B736"/>
<path d="M51.988 78.3071C51.0563 78.3071 51.7842 76.8459 51.4639 76.6414C46.0193 77.1674 47.9409 77.3135 48.0574 76.2322C48.1156 75.5601 41.0987 71.1182 39.9923 70.6214C37.4593 67.816 38.6821 76.2907 38.2454 76.6414C36.4985 75.1802 35.2465 73.1054 36.0617 70.7383C37.1681 67.5238 42.9913 68.4589 45.6699 68.1375C45.7572 68.1375 45.9902 67.7284 46.0775 67.7284C47.1839 67.553 48.4068 68.079 48.2612 67.3192C53.007 68.5758 52.1627 74.4496 51.988 78.3071Z" fill="#FAA831"/>
<path d="M39.148 81.2001C39.3227 81.2586 39.5847 81.1709 39.7594 81.2001C39.8468 81.2001 40.0506 81.7262 41.3025 81.8138C45.699 82.1937 48.5814 81.0832 51.9589 78.4824C52.5994 81.843 49.8625 83.5672 51.9589 86.4603C50.736 86.8986 48.9308 85.3498 48.7561 85.3206C47.0383 84.9699 40.1379 85.6712 38.0125 85.3206C33.3249 84.5608 33.6451 79.9728 33.5578 76.8167C35.6832 79.3883 35.7706 80.2066 39.148 81.1709V81.2001Z" fill="#E57B17"/>
<path d="M48.2612 67.3192C48.4359 68.079 47.213 67.5822 46.0775 67.7284C45.9902 67.7284 45.7572 68.1375 45.6699 68.1375C42.9913 68.4589 37.1681 67.5238 36.0617 70.7383C35.2465 73.1054 36.4694 75.1802 38.2454 76.6414C38.7113 76.2907 37.4884 67.816 39.9924 70.6214C39.5556 70.4169 39.4392 69.8616 38.9442 70.5045L39.148 81.2001C35.7706 80.2358 35.6832 79.4175 33.5578 76.8459C33.2958 64.923 36.2656 67.553 48.2321 67.29L48.2612 67.3192Z" fill="#F29524"/>
<path d="M51.988 78.3071C51.988 78.3071 51.988 78.4532 51.988 78.5116C48.6106 81.0832 45.7281 82.2229 41.3317 81.843C40.0797 81.7261 39.8759 81.2294 39.7885 81.2294L48.0574 76.2615C47.9409 77.3427 46.0193 77.2258 51.4639 76.6706C51.7842 76.8751 51.0563 78.3363 51.988 78.3363V78.3071Z" fill="#F29524"/>
<path d="M39.9924 70.6214C41.0987 71.1182 48.1156 75.5309 48.0574 76.2322L39.7885 81.2001C39.6139 81.1709 39.3518 81.2586 39.1771 81.2001L38.9733 70.5045C39.4392 69.8616 39.5556 70.4169 40.0215 70.6214H39.9924Z" fill="white"/>
<path d="M120.206 105.923H120.41C119.827 106.829 120.613 107.296 120.613 107.384C120.817 109.167 120.468 120.067 120.613 125.444C120.613 125.502 120.264 125.619 120.41 126.583C120.468 126.7 121.021 127.08 121.137 127.109C122.535 127.519 146.235 126.788 150.282 127.109C150.457 126.876 150.952 126.525 151.01 126.379C151.33 125.414 151.127 108.261 151.01 105.952H151.825C151.942 108.29 152.087 125.794 151.825 126.817C151.796 126.992 151.272 127.665 151.097 127.752C149.758 128.483 122.186 128.337 120.701 127.957C120.351 127.869 119.653 127.168 119.565 126.817C119.303 125.794 119.449 108.348 119.565 105.952H120.177L120.206 105.923Z" fill="#DA6911"/>
<path d="M151.854 105.923H151.039C151.01 105.075 151.068 104.199 151.039 103.322L150.515 102.796C142.887 102.679 135.288 102.854 127.659 103C127.164 103 126.116 102.095 125.592 102.796C125.534 102.884 125.447 103.117 125.388 103.205C124.69 102.328 124.544 102.767 124.34 102.796C121.72 102.942 123.554 103.994 122.593 104.462C121.05 105.192 122.972 101.832 120.73 102.796C119.915 103.147 120.439 105.221 120.206 105.923H119.594C119.653 104.637 119.216 103.059 120.322 102.182C124.486 102.533 149.467 101.715 150.923 102.182C152.146 102.562 151.796 104.958 151.854 105.923Z" fill="#57646E"/>
<path d="M124.34 102.796C124.428 106.829 125.272 103.351 125.388 103.205C125.447 103.117 125.534 102.854 125.592 102.796C127.921 102.591 126.204 104.286 126.524 104.462C127.426 104.929 128.038 103.76 127.659 103C135.259 102.854 142.887 102.679 150.515 102.796L151.039 103.322C151.068 104.169 151.01 105.046 151.039 105.923H120.235C120.468 105.221 119.944 103.176 120.759 102.796C123.001 101.802 121.079 105.163 122.622 104.462C123.583 104.023 121.749 102.942 124.369 102.796H124.34Z" fill="#AECBD9"/>
<path d="M127.659 103C128.038 103.76 127.426 104.929 126.524 104.462C126.204 104.286 127.921 102.591 125.592 102.796C126.116 102.095 127.164 103 127.659 103Z" fill="#191519"/>
<path d="M125.388 103.205C125.301 103.351 124.457 106.829 124.34 102.796C124.544 102.796 124.69 102.328 125.388 103.205Z" fill="#191519"/>
<path d="M151.01 105.923C151.127 108.231 151.33 125.385 151.01 126.35C150.952 126.496 150.457 126.846 150.282 127.08C146.206 126.759 122.535 127.489 121.137 127.08C121.05 127.051 120.468 126.671 120.41 126.554C120.264 125.59 120.613 125.473 120.613 125.414C122.04 126.379 121.137 123.018 121.545 122.726C122.651 121.937 146.468 123.427 148.623 122.726C148.943 122.609 148.943 122.2 148.623 122.112C147.778 121.849 133.22 122.112 130.746 122.112L130.542 119.921C130.222 119.511 129.96 120.213 129.93 120.242C127.951 120.71 125.883 119.745 123.933 120.563L129.93 120.68C130.076 121.206 130.251 121.557 130.134 122.141C127.252 122.112 124.34 122.258 121.458 122.025C121.691 119.015 120.963 114.631 121.865 112.264C120.788 111.358 122.273 105.689 120.613 107.384C120.613 107.296 119.827 106.829 120.41 105.923H151.01Z" fill="#F29524"/>
<path d="M130.134 122.083C130.338 122.083 130.542 122.083 130.746 122.083C133.25 122.083 147.778 121.82 148.623 122.083C148.943 122.2 148.943 122.609 148.623 122.697C146.439 123.398 122.651 121.908 121.545 122.697C121.137 122.989 122.04 126.35 120.613 125.385C120.468 120.008 120.817 109.108 120.613 107.325C122.273 105.631 120.759 111.3 121.865 112.206C120.934 114.573 121.691 118.956 121.458 121.966C124.34 122.171 127.252 122.025 130.134 122.083Z" fill="white"/>
<path d="M130.542 114.427C133.977 114.427 137.442 114.368 140.878 114.544C140.994 114.69 140.674 115.011 140.558 115.07C139.422 115.479 126.728 114.631 124.02 114.865V114.456C125.971 114.456 127.951 114.456 129.901 114.456C130.105 114.456 130.309 114.456 130.513 114.456L130.542 114.427Z" fill="white"/>
<path d="M131.27 116.501L146.672 116.823C146.672 117.641 132.434 116.648 131.27 116.94V116.531V116.501Z" fill="white"/>
<path d="M131.066 107.998L146.672 108.319C141.489 108.524 136.248 108.64 131.066 108.436V108.027V107.998Z" fill="white"/>
<path d="M132.085 111.913C151.127 112.235 150.602 112.615 131.881 112.527L132.085 111.913Z" fill="white"/>
<path d="M130.862 118.372C144.168 118.167 144.139 118.985 130.862 118.781V118.372Z" fill="white"/>
<path d="M123.001 109.839C135.171 109.342 128.358 111.358 123.816 110.452C123.787 110.452 123.641 110.131 123.001 110.248V109.839Z" fill="white"/>
<path d="M124.253 118.138C125.738 117.904 128.416 118.489 130.134 118.459L123.205 118.781V118.372C124.078 118.489 124.195 118.167 124.253 118.167V118.138Z" fill="white"/>
<path d="M129.93 112.147V112.352L123.321 112.235C124.748 111.709 128.562 111.797 129.93 112.118V112.147Z" fill="white"/>
<path d="M124.864 116.297C133.977 116.823 129.523 116.735 123.408 117.115C122.943 116.063 124.078 116.823 124.864 116.297Z" fill="white"/>
<path d="M129.93 120.242C129.93 120.242 129.901 120.563 129.93 120.651L123.933 120.534C125.883 119.716 127.951 120.68 129.93 120.213V120.242Z" fill="white"/>
<path d="M131.881 110.072C140.15 109.78 139.684 111.008 131.881 110.482V110.072Z" fill="white"/>
<path d="M132.085 120.242C132.289 120.184 136.219 120.154 136.423 120.242C138.752 121.177 129.785 121.06 132.085 120.242Z" fill="white"/>
<path d="M123.816 107.998C132.463 107.793 131.794 108.64 123.816 108.407V107.998Z" fill="white"/>
<path d="M130.542 114.427C130.338 114.427 130.134 114.427 129.93 114.427V112.147C130.076 112.176 130.746 110.891 130.542 114.427Z" fill="#DA6911"/>
<path d="M130.746 122.083C130.542 122.083 130.338 122.083 130.134 122.083C130.251 121.528 130.076 121.148 129.93 120.622C129.901 120.534 129.93 120.33 129.93 120.213C129.96 120.213 130.222 119.511 130.542 119.891L130.746 122.083Z" fill="#DA6911"/>
<path d="M149.35 142.627C148.506 142.51 149.205 144.731 148.826 146.572L148.623 143.036L146.672 144.702C146.672 143.24 146.963 140.961 146.468 139.617C146.322 139.237 145.857 139.325 145.857 139.295C145.565 138.828 145.769 138.331 144.721 137.834C144.081 137.805 143.411 137.893 142.77 137.834C131.881 137.045 134.502 137.337 134.502 146.747V148.617C131.561 147.712 131.037 144.555 131.386 141.662C131.386 141.487 131.765 141.633 131.794 141.458C132.958 134.357 134.88 136.461 140.587 135.35C141.023 135.263 141.169 134.737 141.198 134.737C142.042 134.532 143.527 135.146 143.382 134.327C149.438 134.737 149.263 137.308 149.38 142.627H149.35Z" fill="#37ADC9"/>
<path d="M143.353 134.327C143.498 135.146 142.042 134.532 141.169 134.737C141.14 134.737 140.965 135.263 140.558 135.35C134.851 136.49 132.929 134.357 131.765 141.458C131.765 141.633 131.386 141.487 131.357 141.662C130.979 144.555 131.503 147.712 134.472 148.617C134.502 148.617 134.56 149.114 135.084 149.027C134.181 149.406 135.783 149.991 136.219 150.079C137.151 150.225 145.129 150.137 145.74 149.874C147.196 149.26 146.643 146.134 146.672 144.672L148.623 143.007L148.826 146.543C149.205 144.702 148.506 142.481 149.35 142.598C149.409 145.432 149.816 150.663 146.352 151.715C144.692 152.241 134.531 152.124 133.133 151.306C129.697 149.319 130.862 137.951 131.59 136.665C133.337 133.538 140.179 134.064 143.382 134.269L143.353 134.327Z" fill="#2A9CBC"/>
<path d="M145.857 139.325C145.769 151.16 147.895 148.851 135.113 149.085C134.589 149.173 134.531 148.676 134.502 148.676V146.806C135.404 146.25 135.608 145.286 135.753 144.322C136.54 144.585 135.026 147.799 137.297 146.806C137.559 146.689 139.422 144.76 139.568 144.731C140.033 144.672 142.13 147.361 143.294 147.01C144.401 146.689 143.906 140.523 143.294 140.377C142.625 140.201 140.063 142.861 139.568 142.861L135.957 140.172C135.957 140.172 135.783 139.646 136.481 139.12C139.888 138.857 143.411 139.967 142.799 137.863C143.44 137.922 144.11 137.834 144.75 137.863C145.798 138.331 145.595 138.828 145.886 139.325H145.857Z" fill="#67C0D8"/>
<path d="M142.741 137.863C143.382 139.938 139.859 138.857 136.423 139.12C135.724 139.617 135.957 140.026 135.899 140.172C135.462 141.283 135.87 143.182 135.695 144.322C135.55 145.286 135.375 146.25 134.443 146.806C134.443 137.396 131.823 137.104 142.712 137.893L142.741 137.863Z" fill="#D8DFE4"/>
<path d="M146.672 144.702C146.672 146.134 147.196 149.26 145.74 149.903C145.158 150.166 137.151 150.254 136.219 150.108C135.783 150.049 134.181 149.465 135.084 149.056C147.866 148.822 145.74 151.131 145.827 139.295C145.827 139.325 146.322 139.237 146.439 139.617C146.934 140.961 146.672 143.24 146.643 144.702H146.672Z" fill="#2A9CBC"/>
<path d="M135.724 144.292C135.899 143.153 135.491 141.253 135.928 140.143L139.539 142.831C140.004 142.831 142.567 140.172 143.265 140.347C143.877 140.493 144.372 146.66 143.265 146.981C142.13 147.332 140.004 144.643 139.539 144.702C139.393 144.702 137.53 146.66 137.268 146.776C134.996 147.77 136.481 144.526 135.724 144.292Z" fill="#D2E9F1"/>
<path d="M136.656 142.218C139.917 143.796 136.86 145.695 136.656 145.549V142.218Z" fill="#67C0D8"/>
<path d="M142.654 142.218V145.549C139.422 143.883 142.479 142.072 142.654 142.218Z" fill="#67C0D8"/>
<path d="M52.3956 103.41C52.0462 103.497 51.9297 103.117 51.5804 103.205C51.4639 102.65 51.8424 100.78 51.2601 100.517C50.2119 100.049 31.0539 100.663 28.2005 100.721C27.3853 100.721 27.6182 100.926 27.5891 100.926C27.1233 100.926 26.6574 100.926 26.1333 100.926C25.9586 100.926 25.7548 100.926 25.5219 100.926C25.056 100.926 24.5902 100.926 24.0661 100.926C23.7458 100.926 24.037 100.487 23.542 100.517C23.3673 100.517 23.4547 100.926 23.4256 100.926C23.1344 100.926 22.8433 100.867 21.9698 100.926C21.7951 100.926 21.8533 100.867 21.3584 100.926C21.271 100.926 20.9508 100.604 20.2229 100.721C20.0191 100.809 19.757 101.51 19.6988 101.773C19.495 102.65 19.9026 103.351 19.9026 103.439C19.9026 103.497 19.6114 103.117 19.2912 104.257C19.4076 102.387 18.8253 100.663 20.0191 99.9028C24.2699 100.253 49.9499 99.4352 51.4348 99.9028C52.6285 100.283 52.3082 102.504 52.3665 103.439L52.3956 103.41Z" fill="#436775"/>
<path d="M51.5512 103.205C51.5512 103.205 51.6095 103.585 51.4348 103.614C46.8636 104.199 26.5409 103.322 19.9026 103.41C19.9026 103.322 19.495 102.621 19.6988 101.744C20.0482 101.802 20.6014 101.861 20.9507 101.948C21.0381 101.948 21.1254 103.147 22.2027 101.744C22.2027 101.773 22.6977 102.124 23.018 102.153C24.0661 102.299 24.5611 102.211 24.0661 100.896C24.5611 100.896 25.056 100.896 25.5219 100.896C24.9978 102.328 24.794 103.234 26.3371 101.715C26.6574 101.948 26.8321 101.89 27.1524 101.919C27.2979 101.919 28.812 103.526 28.2005 100.663C31.0539 100.604 50.2119 99.9905 51.2601 100.458C51.8424 100.721 51.4639 102.591 51.5803 103.147L51.5512 103.205Z" fill="#94C5D5"/>
<path d="M21.3875 100.926L20.9799 101.978C20.6596 101.89 20.1064 101.832 19.7279 101.773C19.7861 101.539 20.019 100.838 20.252 100.721C21.009 100.604 21.3001 100.926 21.3875 100.926Z" fill="white"/>
<path d="M23.4547 100.926L23.0471 102.182C22.6977 102.124 22.2318 101.802 22.2318 101.773C22.2027 101.685 22.3192 101.335 22.028 100.955C22.9015 100.896 23.1927 100.955 23.4838 100.955L23.4547 100.926Z" fill="#D8DFE4"/>
<path d="M28.2005 100.721C28.812 103.556 27.3271 101.978 27.1524 101.978L27.56 100.926C27.56 100.926 27.3562 100.721 28.1714 100.721H28.2005Z" fill="#191519"/>
<path d="M27.5891 100.926L27.1815 101.978C26.8321 101.948 26.6574 102.007 26.3663 101.773L26.1624 100.955C26.6574 100.955 27.1524 100.955 27.6182 100.955L27.5891 100.926Z" fill="white"/>
<path d="M26.1333 100.926L26.3371 101.744C24.794 103.263 24.9978 102.328 25.5219 100.926C25.7548 100.926 25.9586 100.926 26.1333 100.926Z" fill="#191519"/>
<path d="M24.0661 100.926C24.5902 102.241 24.0661 102.328 23.018 102.182L23.4256 100.926C23.4256 100.926 23.3673 100.516 23.542 100.516C24.0079 100.516 23.7458 100.955 24.0661 100.926Z" fill="#10161E"/>
<path d="M21.9989 100.926C22.2901 101.335 22.1736 101.685 22.2027 101.744C21.1546 103.176 21.0381 101.978 20.9507 101.948L21.3584 100.896C21.8533 100.838 21.8242 100.896 21.9698 100.896L21.9989 100.926Z" fill="#10161E"/>
<path d="M51.5512 103.205C51.9006 103.117 52.0171 103.497 52.3665 103.41C52.4829 105.543 52.6285 121.674 52.3665 122.609C52.3082 122.814 51.6095 123.69 51.4348 123.749C49.9499 124.216 24.2699 123.398 20.019 123.749C19.6114 123.398 19.2038 122.93 19.0874 122.404C18.8253 121.294 19.1456 106.653 19.2912 104.257C19.6114 103.117 19.9026 103.468 19.9026 103.439C26.5409 103.351 46.8636 104.228 51.4348 103.643C51.6095 103.643 51.5221 103.234 51.5512 103.234V103.205Z" fill="#328B9B"/>
<path d="M19.9317 121.674C21.2419 123.193 20.514 119.628 20.8634 119.395C21.1837 119.161 27.6473 119.658 28.812 119.278C29.5981 118.255 21.6786 119.044 21.0672 118.752V115.216C21.9116 114.836 27.4726 115.449 28.812 115.42C28.9575 116.531 28.6373 116.969 28.6081 117.086L21.9989 117.203C23.6876 117.7 26.7448 117.583 28.6081 117.524C29.831 117.466 28.9867 117.115 29.4234 117.115C29.4525 117.174 29.336 117.437 29.5398 117.524C46.0775 117.875 45.0002 116.618 29.4234 117.115C29.2196 116.794 29.1905 115.917 29.2196 115.449C34.8971 115.391 40.6038 115.07 46.2813 115.245V114.836C41.2152 115.011 36.1491 114.66 31.083 114.631C31.083 114.456 30.9374 114.427 30.8792 114.222L33.1502 113.901C33.1502 113.725 31.1703 113.784 30.8792 113.784C28.9284 113.784 30.6462 113.871 29.9475 114.193C28.9284 114.66 29.2487 112.206 29.2196 111.709C31.8982 111.68 47.6206 112.001 48.5523 111.709C48.6688 111.68 48.9599 111.358 48.7561 111.3L21.0381 111.095C20.1355 110.686 21.5331 104.286 19.9026 106.332C19.9026 106.244 19.4367 105.894 19.7861 104.462C20.9507 104.666 28.317 104.199 28.6664 104.462C28.9284 104.637 28.6664 106.507 28.7828 106.946C19.6114 107.004 19.6114 107.705 28.7828 107.764C28.8702 108.465 28.7828 108.962 28.579 109.634L21.9698 109.751C23.6876 110.335 26.5409 110.043 28.579 110.072C28.8993 110.072 28.7246 110.482 28.8993 110.482C29.3069 110.482 29.3652 110.072 29.6272 110.072C45.9028 110.16 45.0585 109.517 29.4234 109.663C29.1905 109.05 29.1905 108.436 29.2196 107.793C52.3956 107.939 52.3956 106.799 29.2196 106.975C29.3069 106.536 29.074 104.666 29.336 104.491C30.2386 103.848 48.5814 105.134 51.2601 104.286C51.5803 106.595 51.8715 121.586 51.5803 122.434C51.5221 122.58 50.7942 123.106 50.6486 123.164C49.222 123.544 22.3192 123.544 20.8634 123.164C19.6405 122.843 19.9317 121.82 19.9317 121.703V121.674Z" fill="#37ADC9"/>
<path d="M29.2196 111.709C29.2196 111.709 28.9284 111.709 28.812 111.709C26.1624 111.709 23.5129 111.709 20.8634 111.709C19.6697 116.472 22.9597 114.544 29.0449 114.602C29.7437 114.602 30.4133 114.602 31.1121 114.602C36.1782 114.66 41.2443 114.982 46.3104 114.807V115.216C40.6329 115.04 34.9262 115.362 29.2487 115.42C29.1322 115.42 28.9867 115.42 28.8411 115.42C27.5018 115.42 21.9407 114.836 21.0963 115.216V118.752C21.7369 119.044 29.6272 118.255 28.8411 119.278C27.6473 119.628 21.2128 119.161 20.8925 119.395C20.5431 119.628 21.271 123.194 19.9608 121.674C19.7279 119.687 19.9608 109.956 19.9608 106.303C21.5913 104.257 20.1937 110.686 21.0963 111.066L48.8144 111.271C49.0182 111.329 48.727 111.65 48.6106 111.68C47.6789 111.972 31.9564 111.65 29.2778 111.68L29.2196 111.709Z" fill="#D2E9F1"/>
<path d="M29.2196 106.946C52.3956 106.799 52.3956 107.939 29.2196 107.764C29.074 107.764 28.9284 107.764 28.812 107.764C19.6405 107.705 19.6405 107.004 28.812 106.946C28.9575 106.946 29.1031 106.946 29.2196 106.946Z" fill="#D2E9F1"/>
<path d="M29.5398 118.781C30.2677 118.342 44.7382 118.898 46.8054 119.102C44.7382 119.307 30.2677 119.862 29.5398 119.424C29.3652 119.336 29.3652 118.898 29.5398 118.81V118.781Z" fill="#D2E9F1"/>
<path d="M29.4234 117.115C45.0002 116.618 46.0775 117.904 29.5398 117.524C29.336 117.437 29.4816 117.174 29.4234 117.115Z" fill="#D2E9F1"/>
<path d="M29.6563 110.072C29.6563 109.897 29.5107 109.839 29.4525 109.663C45.0876 109.517 45.9319 110.16 29.6563 110.072Z" fill="#D8DFE4"/>
<path d="M28.6082 117.115C28.6082 117.115 28.9284 117.232 28.6082 117.524C26.7448 117.612 23.6876 117.729 21.9989 117.203L28.6082 117.086V117.115Z" fill="#D2E9F1"/>
<path d="M28.6082 109.634C28.6082 109.634 28.6082 109.926 28.6082 110.043C26.5701 110.043 23.7167 110.306 21.9989 109.722L28.6082 109.605V109.634Z" fill="#D2E9F1"/>
<path d="M29.2196 111.709C29.2487 112.206 28.9284 114.66 29.9475 114.193C30.6462 113.871 28.9284 113.784 30.8792 113.784C30.8792 113.93 30.8501 114.076 30.8792 114.193C30.9374 114.397 31.083 114.427 31.083 114.602C30.3842 114.602 29.7145 114.602 29.0158 114.602L28.812 111.709C28.812 111.709 29.1031 111.709 29.2196 111.709Z" fill="#328B9B"/>
<path d="M29.2196 107.764C29.1905 108.407 29.2196 109.02 29.4234 109.634C29.4816 109.809 29.6272 109.868 29.6272 110.043C29.3652 110.043 29.3069 110.452 28.8993 110.452C28.7246 110.452 28.8993 110.043 28.579 110.043C28.579 109.897 28.5499 109.722 28.579 109.634C28.7537 108.991 28.8702 108.465 28.7829 107.764C28.9284 107.764 29.074 107.764 29.1905 107.764H29.2196Z" fill="#328B9B"/>
<path d="M29.2196 115.449C29.2196 115.888 29.2196 116.764 29.4234 117.115C28.9867 117.115 29.831 117.495 28.6082 117.524C28.9284 117.232 28.6082 117.115 28.6082 117.115C28.6082 116.998 28.9575 116.56 28.812 115.449C28.9575 115.449 29.1031 115.449 29.2196 115.449Z" fill="#328B9B"/>
<path d="M30.8792 114.222C30.8792 114.222 30.8792 113.93 30.8792 113.813C31.1703 113.813 33.1502 113.754 33.1502 113.93L30.8792 114.251V114.222Z" fill="#D8DFE4"/>
<path d="M28.812 111.709L29.0158 114.602C22.9597 114.544 19.6697 116.443 20.8343 111.709C23.4838 111.709 26.1333 111.709 28.7828 111.709H28.812Z" fill="#37ADC9"/>
<path d="M22.2901 113.579C23.7167 113.258 32.9172 114.397 24.5611 114.193C23.6585 113.959 20.8925 113.901 22.2901 113.579Z" fill="#ECF8FF"/>
<path d="M45.1458 138.068C44.5926 137.63 43.6318 140.114 42.2634 139.821C42.0304 137.922 42.7583 133.451 41.8557 132.253C40.8658 130.967 35.7706 131.931 33.9072 131.639C32.8881 132.019 32.9173 139.12 33.5869 140.347C33.4413 140.347 34.1692 141.633 31.5197 140.143C31.4324 139.617 31.4324 132.925 31.5197 132.574C32.3641 128.512 42.6419 130.002 43.3989 130.382C45.699 131.522 45.2914 135.818 45.1458 138.068Z" fill="#7CC197"/>
<path d="M45.1458 138.068C45.0876 139.12 45.2914 140.26 44.942 141.283C43.8356 144.439 33.6743 144.234 32.1311 141.896C31.9273 141.604 31.5779 140.523 31.5197 140.143C34.1983 141.633 33.4413 140.347 33.5869 140.347C36.2364 140.172 38.9151 140.61 41.5355 140.143L41.8557 132.253C42.7583 133.451 42.0304 137.922 42.2633 139.821C43.6318 140.114 44.6217 137.6 45.1458 138.068Z" fill="#4AAB9C"/>
<path d="M41.8557 132.253L41.5355 140.143C38.9151 140.61 36.2073 140.172 33.5869 140.347C32.9173 139.091 32.859 132.019 33.9072 131.639C35.7706 131.931 40.8658 130.967 41.8557 132.253Z" fill="white"/>
<path d="M34.7224 133.714C43.0495 133.538 43.0495 134.327 34.7224 134.123V133.714Z" fill="#74C3B2"/>
<path d="M34.7224 132.457L41.0405 132.779C38.9442 132.837 35.0427 133.246 34.7224 132.457Z" fill="#5EC0A1"/>
<path d="M34.7224 134.97L41.0405 135.087C39.7012 135.584 34.9554 135.642 34.7224 134.97Z" fill="#74C3B2"/>
<path d="M38.8568 137.659L41.0405 137.98C40.0215 138.185 38.653 138.214 38.8568 137.659Z" fill="#74C3B2"/>
<path d="M38.8568 136.636L41.0405 136.753C40.6329 137.279 38.6822 137.221 38.8568 136.636Z" fill="#74C3B2"/>
<path d="M35.3338 136.198C36.0617 135.847 38.7695 137.308 36.7896 138.886C35.887 138.097 35.6832 139.471 34.8389 138.565C34.9262 138.068 34.9262 136.373 35.363 136.169L35.3338 136.198Z" fill="#74C3B2"/>
<path d="M35.9453 136.841C36.4694 136.636 37.0225 137.571 36.7605 137.893C35.9453 138.857 35.0136 137.221 35.9453 136.841Z" fill="white"/>
<path d="M118.342 181.873C119.74 183.714 111.588 184.182 109.753 184.357C100.291 185.234 66.3711 185.409 58.0731 183.743C56.9085 183.51 54.2299 183.071 56.1224 181.873C64.9735 181.406 115.314 182.487 118.372 181.873H118.342Z" fill="#D8DFE4"/>
<path d="M117.323 175.853C117.207 176.759 117.12 177.665 116.916 178.542C101.921 178.191 71.5828 178.133 56.7338 178.542C56.6465 177.139 56.5009 175.678 56.3262 174.275C56.3262 174.1 55.9477 174.275 55.9186 173.954C55.9186 173.954 56.3553 173.778 56.3262 173.632C56.1806 172.522 55.8603 171.324 55.7148 170.213C54.521 161.3 53.4146 152.329 51.988 143.445C52.25 143.445 52.3082 143.211 52.3956 143.036C65.4394 156.478 80.2301 169.483 99.0096 173.749C108.181 175.824 116.1 175.21 117.003 175.415C117.178 175.444 117.003 175.853 117.323 175.824V175.853Z" fill="#94C5D5"/>
<path d="M121.021 179.798C120.701 180.5 119.07 181.727 118.342 181.873C115.285 182.487 64.9444 181.406 56.0933 181.873C55.016 181.932 53.4729 180.909 52.9779 180.003L120.992 179.798H121.021Z" fill="#5993A6"/>
<path d="M64.595 139.734H78.8616C84.3063 139.734 89.7509 139.734 95.1955 139.734C96.3601 139.734 97.5538 139.734 98.7185 139.734C100.378 139.734 102.038 139.734 103.668 139.734C105.386 139.734 107.104 139.734 108.851 139.734C108.996 139.734 109.142 139.734 109.258 139.734C113.072 139.734 118.663 139.295 121.05 140.347C121.4 140.815 121.778 141.312 122.098 141.809C121.865 142.51 121.778 143.387 121.691 144.088C121.865 142.948 120.526 141.195 119.507 140.961C116.363 140.26 63.4886 141.516 54.7831 140.961C53.5893 141.283 53.007 141.955 52.3956 143.036C52.3082 143.211 52.2209 143.445 51.988 143.445C51.9588 143.24 51.7841 142.948 51.7841 142.393C51.8133 142.335 51.8424 141.546 52.1918 141.049C52.5412 140.523 53.4146 139.997 53.6475 139.704H64.595V139.734Z" fill="#D2E9F1"/>
<path d="M56.7338 178.542C71.5827 178.133 101.892 178.191 116.916 178.542C120.992 178.629 121.894 177.987 121.05 179.798L53.0361 180.003C53.0361 180.003 52.3373 179.477 52.7158 178.542C54.0552 178.542 55.3945 178.571 56.7338 178.542Z" fill="#6CA3B7"/>
<path d="M121.662 144.088C120.672 152.387 119.274 160.628 118.139 168.898C118.022 169.833 118.342 170.184 118.342 170.242C118.342 170.242 117.964 170.389 117.935 170.564C117.76 171.762 117.702 172.989 117.527 174.188C117.44 174.743 117.411 175.298 117.323 175.853C117.032 175.882 117.178 175.473 117.003 175.444C116.13 175.24 108.181 175.853 99.0096 173.778C80.2301 169.512 65.4394 156.508 52.3956 143.065C53.007 141.984 53.5602 141.312 54.7831 140.99C63.4595 141.546 116.333 140.289 119.507 140.99C120.526 141.224 121.865 142.948 121.691 144.117L121.662 144.088Z" fill="#94C5D5"/>
<path d="M85.995 155.31C93.3903 154.374 94.0891 165.041 87.8584 165.888C80.3174 166.911 79.7351 156.099 85.995 155.31Z" fill="#D2E9F1"/>
<path d="M131.386 162.352C129.465 167.7 123.438 169.483 118.371 170.242C118.371 170.184 118.022 169.833 118.168 168.898C119.303 160.628 120.701 152.387 121.691 144.088C121.778 143.357 121.894 142.51 122.098 141.809C125.301 146.718 130.804 156.741 131.415 162.352H131.386Z" fill="#F36822"/>
<path d="M51.988 143.474C53.4146 152.358 54.521 161.329 55.7148 170.242C52.0171 169.687 46.456 168.08 44.1268 164.953C43.1368 163.609 43.1659 162.177 42.671 162.352C43.2242 156.712 48.5814 147.361 51.755 142.422C51.755 142.977 51.9297 143.24 51.9588 143.474H51.988Z" fill="#F36822"/>
<path d="M109.666 127.08C110.248 127.84 111.209 128.863 110.918 129.973L108.53 128.512L108.21 128.834L108.822 139.734C107.104 139.734 105.386 139.734 103.639 139.734C103.755 139.032 102.94 139.471 102.824 139.208C102.504 138.594 101.979 127.051 102.212 125.414C104.891 126.233 107.832 127.226 110.161 128.746L109.637 127.08H109.666Z" fill="#196E9D"/>
<path d="M110.889 130.178C115.198 132.603 118.226 136.344 121.021 140.347C118.663 139.295 113.043 139.734 109.229 139.734C109.462 136.724 109.753 133.685 110.277 130.704C110.394 130.119 110.889 130.236 110.889 130.178Z" fill="#F36822"/>
<path d="M64.595 139.734H53.6476C56.7047 135.467 58.7428 133.071 63.1683 129.973C63.4886 132.954 64.595 136.548 64.6241 139.734H64.595Z" fill="#F36822"/>
<path d="M81.5403 122.726C81.5403 122.93 81.5403 123.135 81.5403 123.34C80.4048 123.924 79.1819 124.158 78.0173 124.596C75.9501 123.924 73.7955 124.859 71.8157 125.414C71.0296 125.648 65.9052 127.431 65.7305 127.694C65.4976 127.957 65.7014 128.424 65.6141 128.746L63.1392 129.798C62.8481 126.437 63.2266 124.947 66.3419 123.164C72.7183 119.511 75.8045 123.018 81.5403 122.755V122.726Z" fill="#37ADC9"/>
<path d="M117.527 174.188C117.702 172.989 117.789 171.762 117.935 170.564C117.935 170.389 118.342 170.272 118.342 170.242C123.438 169.483 129.465 167.7 131.357 162.352C131.503 163.872 131.794 164.836 131.357 166.385C130.163 170.593 121.4 173.369 117.498 174.158L117.527 174.188Z" fill="#C83D11"/>
<path d="M55.6856 170.242C55.8312 171.382 56.1515 172.551 56.2971 173.662C56.2971 173.808 55.8895 173.954 55.8895 173.983C53.8805 173.457 51.6968 172.931 49.8043 172.113C43.4571 169.395 42.176 167.379 42.671 162.352C43.1659 162.148 43.1368 163.609 44.1268 164.953C46.4269 168.08 51.988 169.687 55.7148 170.242H55.6856Z" fill="#C83D11"/>
<path d="M109.666 127.08L110.19 128.746C107.861 127.226 104.92 126.233 102.241 125.414C100.029 124.742 97.6994 123.661 97.4956 124.801C97.4956 124.801 97.1462 124.625 97.088 124.596C96.3019 124.246 96.5057 124.596 96.4766 124.596C95.2828 124.187 93.8562 124.129 92.9536 123.135C92.9536 123.077 92.9536 122.989 92.9536 122.931L98.2235 122.112C102.183 121.966 107.249 123.924 109.695 127.08H109.666Z" fill="#37ADC9"/>
<path d="M110.889 129.973C110.889 129.973 110.889 130.119 110.889 130.178C110.889 130.207 110.365 130.119 110.277 130.704C109.753 133.685 109.491 136.724 109.229 139.734C109.084 139.734 108.938 139.734 108.822 139.734L108.21 128.834L108.53 128.512L110.918 129.973H110.889Z" fill="#C83D11"/>
<path d="M65.6141 128.746C65.1482 130.791 65.2356 136.841 64.7988 139.734H64.595C64.595 136.548 63.4595 132.983 63.1392 129.973C63.1392 129.915 63.1392 129.827 63.1392 129.769L65.6141 128.717V128.746Z" fill="#C83D11"/>
<path d="M96.4184 124.596H97.0298L97.4374 124.801C97.4665 124.801 97.7286 124.596 98.0488 125.327L98.6603 139.763C97.4956 139.763 96.3019 139.763 95.1373 139.763L94.817 133.334C94.3803 133.626 94.2638 134.941 94.0891 135.087C93.5359 135.526 87.8584 132.486 86.9558 131.873L80.1427 135.204L79.6187 134.883C78.6287 128.95 78.9199 138.243 78.8034 139.763H75.0766L75.8919 125.327C76.0666 124.918 77.4932 124.772 77.9591 124.596C79.1237 124.187 80.3465 123.924 81.4821 123.34C81.4821 123.427 81.1909 124.421 81.0744 124.801C80.6086 124.772 77.8426 125.59 77.7553 125.736C77.435 126.262 79.8807 133.597 80.3465 133.714L87.1596 130.587C93.5359 134.327 93.4194 134.707 94.9043 131.113C97.1462 125.736 96.6804 125.327 93.2448 124.772C93.0409 124.304 92.8371 123.632 92.8371 123.106C93.7397 124.099 95.1373 124.158 96.3601 124.567L96.4184 124.596Z" fill="#C83D11"/>
<path d="M66.4584 139.734H64.7988C65.2356 136.811 65.1482 130.762 65.6141 128.746C65.6723 128.454 65.4976 127.986 65.7305 127.694C65.9343 127.431 71.0587 125.619 71.8157 125.414L70.7675 139.208C68.8459 139.588 66.342 138.857 66.4293 139.734H66.4584Z" fill="#196E9D"/>
<path d="M78.0173 124.596C77.5515 124.772 76.1248 124.918 75.9501 125.327L75.1349 139.763H66.4584C66.3711 138.886 68.875 139.646 70.7966 139.237L71.8448 125.444C73.8247 124.888 75.9792 123.953 78.0464 124.625L78.0173 124.596Z" fill="#145F89"/>
<path d="M102.212 125.414C101.979 127.08 102.533 138.594 102.824 139.208C102.969 139.471 103.785 139.032 103.639 139.734C101.979 139.734 100.32 139.734 98.6894 139.734L98.0779 125.298C97.7577 124.596 97.4956 124.801 97.4665 124.772C97.6703 123.661 100.029 124.713 102.212 125.385V125.414Z" fill="#145F89"/>
<path d="M97.0589 124.596H96.4475C96.4475 124.596 96.3019 124.246 97.0589 124.596Z" fill="#15565F"/>
<path d="M81.1327 124.801C84.4227 131.873 89.78 131.931 93.3321 124.801C96.7677 125.356 97.2336 125.765 94.9917 131.142C93.4777 134.737 93.6232 134.357 87.2469 130.616L80.4339 133.743C79.9972 133.626 77.5223 126.291 77.8426 125.765C77.9299 125.619 80.6959 124.801 81.1618 124.83L81.1327 124.801Z" fill="#FCCA5E"/>
<path d="M95.1955 139.734C89.7509 139.734 84.3062 139.734 78.8616 139.734C78.9781 138.214 78.6869 128.921 79.6769 134.853L80.201 135.175L87.014 131.843C87.9166 132.457 93.5941 135.496 94.1473 135.058C94.322 134.912 94.4385 133.597 94.8752 133.305L95.1955 139.734Z" fill="#F36822"/>
<path d="M87.2178 134.123C90.6243 133.831 89.7509 139.675 86.4026 138.068C84.743 137.279 85.4709 134.269 87.2178 134.123Z" fill="#FCCA5E"/>
<path d="M111.733 88.6812C111.034 88.6812 110.365 88.6812 109.666 88.6812C109.666 87.0447 108.327 75.9985 107.075 75.8231C97.4374 79.7974 80.6377 77.5473 72.5436 71.0598C72.2815 71.1182 71.8448 75.3263 70.3599 75.2094C71.7574 73.1346 71.6701 72.9008 72.4271 70.5338C71.2625 69.1603 71.4372 68.8681 71.3789 68.7804C72.4562 67.4069 71.3789 67.4946 71.3789 67.2316C71.3789 66.8809 73.8829 64.2801 76.0374 63.6079C84.9759 60.7441 93.0409 69.1895 106.026 66.0919C110.19 65.0983 113.713 62.7897 113.567 58.114C112.84 57.9095 112.432 58.6985 111.704 59.0492L113.451 56.9743C114.79 60.5688 111.413 64.0755 116.13 59.8674C116.945 59.7505 115.547 69.9493 111.267 73.4561C112.024 78.4824 112.083 83.6257 111.675 88.7104L111.733 88.6812Z" fill="#8A4525"/>
<path d="M105.939 60.0427C105.91 60.1889 106.172 60.335 106.143 60.3642C103.086 63.3742 89.5471 55.8346 82.8796 56.536C81.8023 56.6529 77.1147 58.2017 78.1337 59.0199C87.9457 53.7306 99.2425 65.6535 108.851 60.072C110.074 59.9258 110.685 59.5459 111.733 59.0199C112.461 58.6693 112.869 57.8802 113.597 58.0848C113.742 62.7897 110.219 65.0691 106.056 66.0627C93.07 69.1603 85.005 60.7149 76.0665 63.5787C73.9411 64.2508 71.408 66.8517 71.408 67.2024C71.408 67.4654 72.4853 67.3777 71.408 68.7512C71.3498 68.6343 70.651 68.4005 70.0687 66.4718C68.0889 66.7932 64.595 70.1247 63.7506 71.7611C62.6151 73.9236 63.4304 76.3784 61.6834 76.4368C62.0911 70.7091 64.1 65.7412 69.5447 63.2573C71.4663 52.2694 89.0812 51.5681 97.5538 54.4319C104.105 58.3186 108.56 57.5588 102.824 58.903C103.814 59.4291 104.804 59.8674 105.939 60.0427Z" fill="#8A4525"/>
<path d="M71.4081 68.7512C71.4081 68.7512 71.2625 69.1603 72.4562 70.5046C71.6992 72.8716 71.7866 73.1054 70.389 75.1802C69.0497 77.1674 66.0217 79.2714 65.2064 85.0284C65.09 85.8174 65.2938 86.811 65.2064 87.6292C65.2064 87.6876 64.8862 87.5123 65.0026 88.6812C64.1292 88.7689 63.1975 88.6228 62.324 88.6812C61.9746 84.6777 61.4214 80.4696 61.7126 76.4368C63.4595 76.3784 62.6443 73.9529 63.7798 71.7611C64.6241 70.1247 68.0889 66.7932 70.0979 66.4718C70.6802 68.4005 71.3789 68.6343 71.4372 68.7512H71.4081Z" fill="#8A4525"/>
<path d="M105.939 60.0427C106.143 60.0427 106.347 60.0427 106.551 60.0427C107.016 60.072 107.54 60.0427 108.006 60.0427C108.268 60.0427 108.56 60.072 108.822 60.0427C99.2134 65.6535 87.9457 53.7014 78.1046 58.9907C77.0856 58.1725 81.7732 56.6237 82.8505 56.5068C89.4888 55.8054 103.057 63.3742 106.114 60.335C106.114 60.335 105.881 60.1889 105.91 60.0135L105.939 60.0427Z" fill="#8A4525"/>
<path d="M92.9245 119.395C92.6624 120.563 92.8662 121.762 92.9245 122.931C88.8483 124.801 85.7329 124.742 81.5403 123.34C81.5403 123.135 81.5403 122.931 81.5403 122.726C81.6276 121.645 81.482 120.505 81.5403 119.395C85.0633 120.271 89.4015 120.33 92.9245 119.395Z" fill="#FBAC80"/>
<path d="M64.7988 91.8081C64.3621 94.7011 64.1 97.5942 64.1874 100.517C64.0418 100.517 63.838 100.575 63.7798 100.4C63.6051 99.9028 62.9354 93.9121 62.7316 92.4218C62.7316 92.2172 62.7316 92.0126 62.7316 91.8081C62.7316 91.7496 62.7316 91.662 62.7316 91.6035C63.4013 91.662 64.1874 91.4282 64.7988 91.8081Z" fill="#8A4525"/>
<path d="M73.8829 103.41C75.426 104.432 74.669 106.42 73.155 106.946C69.37 108.261 65.09 104.608 70.1561 102.796C70.7966 103.059 73.0968 103.41 73.8829 103.41Z" fill="#F59A8F"/>
<path d="M103.464 103C108.152 103.147 106.609 108.027 101.717 107.15C99.5919 106.77 98.3109 104.257 100.786 103.41C101.455 103.41 102.62 102.971 103.464 103Z" fill="#F59A8F"/>
<path d="M62.7316 91.8081C62.7316 92.0126 62.7316 92.2172 62.7316 92.4217C61.8582 92.3048 62.7607 93.0646 62.5278 93.766C62.4113 94.0582 56.1515 96.8344 61.4796 96.2499C61.4214 98.2663 61.305 101.919 64.1583 101.539C64.1874 102.241 64.7988 103.234 64.1583 103.614C56.2388 104.257 53.9969 92.0418 62.7025 91.7788L62.7316 91.8081Z" fill="#FBAC80"/>
<path d="M62.7316 92.4217C62.9063 93.9413 63.576 99.9028 63.7798 100.4C63.838 100.575 64.0709 100.516 64.1874 100.516C64.1874 100.867 64.1874 101.218 64.1874 101.569C61.3341 101.948 61.4505 98.2663 61.5088 96.2792C56.1515 96.8344 62.4405 94.0874 62.5569 93.7952C62.7898 93.0939 61.9164 92.3341 62.7607 92.451L62.7316 92.4217Z" fill="#FBAC80"/>
<path d="M100.786 103.41C98.3109 104.257 99.5919 106.77 101.717 107.15C106.638 108.027 108.181 103.147 103.464 103C108.239 101.422 108.996 96.3961 109.055 91.8957L109.462 91.7788C110.132 92.4217 110.277 95.5486 110.277 96.9805C110.277 98.5001 110.277 100.049 110.074 101.539C109.899 102.854 109.899 103.526 109.87 103.614C109.87 103.614 109.491 103.526 109.462 103.731C107.54 110.949 100.087 117.524 92.9245 119.395C89.4015 120.33 85.0633 120.271 81.5403 119.395C75.0766 117.758 65.6723 110.803 64.595 103.731L64.1874 103.614C64.8279 103.234 64.2165 102.241 64.1874 101.539C64.1874 101.189 64.1874 100.838 64.1874 100.487C64.1 97.565 64.3912 94.6719 64.7988 91.7788C64.857 91.8081 65.09 91.6912 65.2064 91.8957C65.7305 92.714 64.8279 100.75 70.1561 102.796C65.09 104.608 69.37 108.261 73.155 106.946C74.6399 106.42 75.426 104.432 73.8829 103.41C81.4529 103.526 84.1025 98.091 84.743 91.3697L89.6926 91.5743C90.1585 98.9969 92.9827 103.234 100.757 103.41H100.786Z" fill="#FEC9A3"/>
<path d="M92.9245 110.891C89.3141 109.663 85.0924 109.605 81.5403 111.095C80.0554 109.839 79.2401 108.553 78.8616 106.624C79.0654 106.303 81.3365 107.062 81.7441 107.15C82.3846 110.657 92.1383 110.569 92.8953 107.15C93.4485 107.033 94.6714 106.566 95.2828 106.332C95.6904 108.261 94.2055 109.722 92.8953 110.891H92.9245Z" fill="#61130D"/>
<path d="M92.9245 110.891C89.4015 114.076 85.2088 114.193 81.5403 111.095C85.0924 109.576 89.285 109.663 92.9245 110.891Z" fill="#E57C86"/>
<path d="M92.9245 107.15C92.1383 110.569 82.4137 110.657 81.7732 107.15C85.7038 107.881 88.9939 107.91 92.9245 107.15Z" fill="white"/>
<path d="M86.1988 99.0554C89.6635 98.3832 90.3041 103 89.5179 103C89.1977 99.406 86.2861 98.4709 85.0633 100.604C84.2771 101.978 84.8886 102.591 84.8594 102.679C84.4809 104.403 83.2581 99.6106 86.1988 99.0554Z" fill="#D77548"/>
<path d="M109.87 103.614C109.87 103.614 109.899 102.854 110.074 101.539C112.345 101.89 113.247 98.2371 112.752 96.4545C117.149 97.2143 113.072 93.5322 110.889 94.2628C111.005 93.4445 111.209 92.5971 111.296 91.7788C120.38 92.4217 117.614 104.286 109.841 103.614H109.87Z" fill="#FBAC80"/>
<path d="M110.074 101.539C110.277 100.049 110.307 98.4709 110.277 96.9805C110.801 96.8929 110.714 95.5194 110.889 94.292C113.072 93.5614 117.149 97.2143 112.752 96.4837C113.218 98.2371 112.315 101.919 110.074 101.569V101.539Z" fill="#FBAC80"/>
<path d="M111.326 91.8081C111.238 92.6263 111.034 93.4738 110.918 94.292C110.743 95.5194 110.831 96.9221 110.306 96.9805C110.306 95.5778 110.132 92.4218 109.491 91.7788C109.375 91.5743 110.277 91.6912 111.355 91.7788L111.326 91.8081Z" fill="#7A3928"/>
<path d="M109.666 88.6812C109.433 88.6812 109.666 88.8565 108.851 88.6812C108.967 87.2201 107.395 77.9856 106.463 77.6934C94.7588 81.317 82.734 81.0832 72.9803 73.1346C72.8056 77.3135 68.7585 79.0376 67.5066 81.3463C66.7496 82.7197 66.3128 86.1388 65.2356 87.6876C65.3229 86.8986 65.1191 85.8758 65.2356 85.0868C66.0217 79.3299 69.0497 77.2258 70.4181 75.2387C71.903 75.3556 72.3106 71.1475 72.6018 71.089C80.6959 77.6057 97.4956 79.8267 107.133 75.8523C108.385 76.0277 109.724 87.074 109.724 88.7104L109.666 88.6812Z" fill="#FBAC80"/>
<path d="M92.9245 122.93C92.9245 122.93 92.9245 123.077 92.9245 123.135C92.9245 123.661 93.1574 124.304 93.3321 124.801C89.78 131.931 84.4227 131.873 81.1327 124.801C81.2491 124.421 81.5403 123.427 81.5403 123.34C85.7329 124.742 88.8192 124.801 92.9245 122.93Z" fill="#FEC9A3"/>
<path d="M108.822 88.6812C107.832 88.4766 97.4956 81.4047 90.3041 89.2949H83.8986C81.3656 84.7946 72.6309 85.1452 68.5838 86.8109C67.0407 87.4538 66.8078 88.4766 64.9735 88.6812C64.857 87.5123 65.1773 87.6876 65.1773 87.6292C66.2546 86.1096 66.6913 82.6613 67.4483 81.2878C68.7003 78.9792 72.7474 77.2843 72.9221 73.0762C82.7049 81.054 94.7296 81.2586 106.405 77.6349C107.337 77.9564 108.909 87.1616 108.792 88.6228L108.822 88.6812Z" fill="#FEC9A3"/>
<path d="M74.2031 82.0476C74.9602 81.9307 77.7261 82.0476 77.8135 82.9827C77.9299 84.1224 73.6791 83.5087 70.1561 84.6484C69.8358 84.0932 73.1841 82.1937 74.174 82.0476H74.2031Z" fill="#61130D"/>
<path d="M96.9424 81.6385C98.9223 81.2001 102.125 82.3983 103.464 84.0348C99.9996 83.0704 96.4475 83.4795 96.1272 83.3042C95.079 82.8074 96.3601 81.7846 96.9424 81.6385Z" fill="#61130D"/>
<path d="M108.822 88.6812C109.637 88.8566 109.404 88.6812 109.637 88.6812C110.336 88.6812 111.005 88.6812 111.704 88.6812C111.617 89.6748 111.413 90.7853 111.296 91.8081C110.219 91.7204 109.317 91.6035 109.433 91.8081L109.025 91.925C108.967 96.4253 108.21 101.452 103.435 103.03C102.591 103.03 101.426 103.468 100.757 103.439C92.9827 103.263 90.1585 99.0261 89.6927 91.6035L84.743 91.3989C84.1316 98.1202 81.4529 103.556 73.8829 103.439C73.0968 103.439 70.8258 103.059 70.1561 102.825C64.8279 100.809 65.7014 92.7432 65.2064 91.925C65.09 91.7204 64.8571 91.8665 64.7988 91.8081C64.1874 91.4282 63.4013 91.662 62.7316 91.6035C62.6152 90.6391 62.4114 89.6748 62.324 88.7104C63.1975 88.652 64.1583 88.7981 65.0026 88.7104C66.8369 88.5059 67.0698 87.4831 68.613 86.8402C72.66 85.1745 81.3947 84.853 83.9278 89.3241H90.3332C97.4956 81.4339 107.861 88.4767 108.851 88.7104L108.822 88.6812Z" fill="#19305F"/>
<path d="M97.3501 87.2201C104.92 86.5479 110.452 89.7917 107.162 98.1202C105.095 103.351 96.331 103.322 93.0992 98.9385C90.6244 95.5778 89.4597 87.9214 97.3501 87.2201Z" fill="#FEC9A3"/>
<path d="M97.5539 89.7332C105.532 88.7104 104.454 98.9677 99.8249 99.9028C92.808 101.306 91.3814 90.5222 97.5539 89.7332Z" fill="white"/>
<path d="M98.1944 90.5515C103.115 90.1424 101.368 100.137 96.9424 97.5942C94.4967 96.1915 95.1664 90.7853 98.1944 90.5515Z" fill="#2B1D19"/>
<path d="M98.8058 91.6035C100.145 91.1652 101.193 92.8309 100.058 93.2692C98.1944 93.9413 97.583 92.0126 98.8058 91.6035Z" fill="white"/>
<path d="M73.155 87.2201C79.2402 86.6356 84.0151 88.126 82.7632 95.1979C81.2491 103.702 68.1762 105.075 66.6331 96.0162C65.7014 90.4638 67.4775 87.7461 73.155 87.1908V87.2201Z" fill="#FEC9A3"/>
<path d="M74.407 89.7332C82.3264 88.6228 82.0644 98.88 77.0856 99.9028C69.865 101.393 68.7003 90.5223 74.407 89.7332Z" fill="white"/>
<path d="M75.4551 90.5515C79.6187 90.1716 79.9098 97.5358 76.5033 98.0325C72.8056 98.5586 71.7866 90.9022 75.4551 90.5515Z" fill="#2B1D19"/>
<path d="M74.2032 91.6035C75.3969 91.1067 76.678 92.8016 75.4552 93.2692C73.7956 93.8829 73.2133 92.0126 74.2032 91.6035Z" fill="white"/>
</g>
<defs>
<clipPath id="clip0_23_509">
<rect width="133" height="132" fill="white" transform="translate(19 53)"/>
</clipPath>
</defs>
</svg>
