<svg width="210" height="210" viewBox="0 0 210 210" fill="none" xmlns="http://www.w3.org/2000/svg">
<rect x="160" width="210" height="110" rx="55" transform="rotate(90 160 0)" fill="#FDAE5A"/>
<rect x="210" y="160" width="210" height="110" rx="55" transform="rotate(180 210 160)" fill="#FDAE5A"/>
<path d="M164.766 86.4574C164.451 86.7155 164.394 86.5721 164.049 86.1992C158.341 79.9746 153.12 73.2911 147.068 67.3821C146.867 66.665 146.638 66.3494 146.179 65.8044C145.662 65.2021 145.433 64.9152 144.687 64.571C134.074 65.1447 68.5582 63.7965 64.6284 64.571C63.3949 64.8005 62.1041 66.4355 61.8746 67.6689C61.6739 68.8163 61.8746 79.5444 61.8746 82.6136C61.8746 86.6295 61.6165 110.094 61.8746 111.499C62.1615 113.191 63.4236 113.22 63.8252 114.052C62.9073 113.966 62.0468 114.712 61.5304 115.371C60.8133 116.289 51.4334 133.672 50.4008 135.881C50.3147 136.053 50.0566 135.938 50.0566 135.967C32.9319 106.623 42.5986 68.7016 71.3693 50.9458C106.594 29.2029 153.264 46.9586 164.795 86.4861L164.766 86.4574Z" fill="#FF8809"/>
<path d="M164.766 86.4574C169.758 103.582 167.75 120.535 158.943 135.938C158.484 134.848 148.043 116.089 147.269 115.171C146.982 114.826 146.609 114.54 146.293 114.195C145.806 113.937 145.433 114.081 145.146 114.023C145.863 113.392 146.925 112.216 147.097 111.27C147.584 108.659 146.724 74.3238 147.097 67.3534C153.149 73.2624 158.37 79.9746 164.078 86.1705C164.422 86.5434 164.451 86.6868 164.795 86.4287L164.766 86.4574Z" fill="#FF8809"/>
<path d="M154.698 142.507C146.867 153.293 134.418 161.496 121.653 165.139C110.466 168.323 100.226 168.381 88.9529 165.484C86.6008 164.881 84.3347 164.049 82.0686 163.189C81.8105 161.755 77.2209 158.542 75.0983 156.649C69.849 152.002 64.7144 147.183 59.6372 142.335C91.3338 142.737 123.059 141.876 154.727 142.507H154.698Z" fill="#FF8809"/>
<path d="M59.6086 142.335C64.6857 147.183 69.8203 152.002 75.0696 156.649C77.1922 158.542 81.7818 161.755 82.0399 163.189C71.0824 159.029 61.3296 151.887 54.3019 142.507C55.9656 142.593 57.8875 142.306 59.6086 142.335Z" fill="#FF8809"/>
<path d="M159.833 138.778C160.005 142.593 157.681 142.163 154.698 142.478C123.002 141.847 91.2764 142.708 59.6086 142.306C57.8875 142.306 55.9943 142.565 54.3019 142.478C50.2 142.306 49.4542 142.048 49.3395 138.95L50.3147 139.467H158.657L159.804 138.749L159.833 138.778Z" fill="#D4D3D2"/>
<path d="M145.146 114.052C145.433 114.109 145.835 113.966 146.294 114.224C146.58 114.568 146.982 114.855 147.269 115.199C148.043 116.117 158.456 134.877 158.943 135.967C159.431 137.114 159.775 137.545 159.833 138.807L158.685 139.524H50.3147L49.3395 139.008C49.3108 137.545 49.3968 137.43 50.0566 135.996C50.0566 135.996 50.3434 136.082 50.4008 135.91C51.4334 133.73 60.8133 116.318 61.5304 115.4C62.0468 114.74 62.936 113.995 63.8252 114.081C74.8401 114.167 141.13 113.306 145.146 114.081V114.052Z" fill="white"/>
<path d="M93.8006 131.55H115.199L117.035 137.287L92.223 137.545L91.9361 137.287L93.8006 131.55Z" fill="#D4D3D2"/>
<path d="M83.9044 127.648C88.6661 128.251 120.506 126.874 122.256 127.648C122.629 127.821 122.6 129.226 122.887 129.685L83.216 129.943C82.671 129.714 83.3307 127.821 83.9331 127.648H83.9044Z" fill="#5992CA"/>
<path d="M62.8786 124.837C63.481 124.665 75.2991 124.694 75.5285 125.268C75.5572 125.354 74.7254 127.075 74.5533 127.132C73.9509 127.362 63.7965 126.96 61.8173 127.132L61.387 126.702C61.846 126.186 62.1615 125.038 62.8786 124.837Z" fill="#6EA0CB"/>
<path d="M133.041 122.514C135.365 122.686 143.999 122.256 144.888 122.514C145.462 122.686 145.863 123.919 146.207 124.378L133.558 124.637C133.213 124.551 132.554 122.715 133.041 122.514Z" fill="#5992CA"/>
<path d="M139.409 124.837C140.184 124.837 146.15 124.895 146.466 125.01C146.552 125.038 147.498 126.788 147.441 126.874C145.863 126.874 136.742 127.161 136.225 126.96C135.996 126.874 135.279 125.153 135.508 125.01C136.799 125.153 138.118 124.866 139.409 124.837Z" fill="#5992CA"/>
<path d="M63.9399 122.514C64.3702 122.371 72.574 122.399 72.6888 122.944C72.6888 123.03 72.1437 124.407 72.0577 124.436C71.6561 124.637 63.4523 124.78 63.0507 124.608C62.4197 124.35 63.6244 122.6 63.9399 122.485V122.514Z" fill="#6EA0CB"/>
<path d="M136.397 120.219C137.832 120.363 143.54 120.047 143.999 120.219C144.085 120.248 145.003 121.797 144.974 121.912C144.859 122.284 137.315 122.313 136.942 122.17C136.713 122.084 135.852 120.42 136.426 120.219H136.397Z" fill="#5992CA"/>
<path d="M88.6661 122.514C91.0182 122.916 96.4683 121.338 95.1201 124.378C94.862 124.952 88.7521 124.378 87.7769 124.637L88.6661 122.514Z" fill="#5992CA"/>
<path d="M65.0013 120.219C65.5463 120.047 69.5048 120.363 70.8243 120.219C71.6561 123.231 68.0705 121.883 64.1121 122.17C63.7965 121.969 64.7144 120.334 65.0013 120.219Z" fill="#6EA0CB"/>
<path d="M96.6404 122.514C97.042 122.313 101.087 122.829 102.119 122.514C102.951 125.784 100.972 124.35 96.4683 124.637C96.1528 124.493 96.4109 122.629 96.6404 122.514Z" fill="#5992CA"/>
<path d="M92.223 125.01C92.5959 124.866 96.2675 125.124 97.3575 125.01C98.5049 128.194 95.7512 126.874 91.7067 127.132C91.6206 127.075 91.8501 125.153 92.223 125.01Z" fill="#5992CA"/>
<path d="M99.1073 125.01C99.3368 124.895 104.012 124.866 104.242 125.01C104.328 125.067 104.557 126.788 104.5 126.874C104.357 127.19 99.1647 127.304 98.9352 127.132C98.8205 127.046 98.677 125.21 99.1073 125.01Z" fill="#5992CA"/>
<path d="M72.6027 120.219C76.7907 120.449 79.1141 119.244 77.5651 122.17C73.033 121.969 69.9637 123.088 72.6027 120.219Z" fill="#6EA0CB"/>
<path d="M124.378 127.648C124.637 127.62 129.111 127.677 129.341 127.821C129.427 127.878 129.656 129.599 129.599 129.685C129.427 130.058 124.809 130.029 124.551 129.943C124.407 129.886 123.145 127.849 124.378 127.648Z" fill="#4682C3"/>
<path d="M85.6829 125.01C85.9697 124.866 89.4979 125.124 90.4445 125.01C91.1043 128.222 88.8382 126.874 85.1379 127.132C84.9945 127.046 85.4534 125.124 85.6542 125.01H85.6829Z" fill="#5992CA"/>
<path d="M82.671 122.514C82.9005 122.428 87.6621 122.485 87.8056 122.686C87.8629 122.772 87.6048 124.493 87.5474 124.551C87.3179 124.751 82.8144 124.264 81.9826 124.465C81.7531 124.321 82.2981 122.657 82.6997 122.514H82.671Z" fill="#5992CA"/>
<path d="M94.1449 120.219C94.5464 120.076 97.7018 120.334 98.7344 120.219C100.083 123.747 95.4643 121.682 93.5998 122.17C93.4851 122.112 93.5998 120.42 94.1162 120.219H94.1449Z" fill="#5992CA"/>
<path d="M126.845 122.514C128.997 122.944 132.209 121.338 131.894 124.551C129.771 124.465 125.841 125.727 126.845 122.514Z" fill="#5992CA"/>
<path d="M124.034 120.219C127.505 120.449 129.14 119.244 129.427 122.084C127.505 121.854 122.743 123.461 124.034 120.219Z" fill="#5992CA"/>
<path d="M118.01 125.01C121.739 125.21 123.03 124.063 122.686 127.046C120.219 126.931 117.006 128.251 118.01 125.01Z" fill="#5992CA"/>
<path d="M109.348 122.514C109.663 122.371 112.503 122.629 113.421 122.514C113.823 122.457 114.081 124.264 114.052 124.378C113.937 124.751 109.577 124.751 109.376 124.637C108.975 124.465 108.975 122.686 109.376 122.514H109.348Z" fill="#5992CA"/>
<path d="M112.36 120.219C112.589 120.133 116.806 120.133 117.035 120.477C117.093 120.535 117.265 121.998 117.207 122.055C117.064 122.256 112.331 122.342 112.159 122.141C111.987 121.969 111.929 120.363 112.331 120.19L112.36 120.219Z" fill="#5992CA"/>
<path d="M105.992 125.01C106.651 125.096 110.065 124.895 110.237 125.01C110.323 125.067 110.61 126.903 110.495 127.046C110.352 127.218 106.192 127.247 105.992 127.132C105.906 127.075 105.447 125.268 105.992 125.01Z" fill="#5992CA"/>
<path d="M115.371 122.514C115.773 122.342 120.908 121.826 119.875 124.551C119.129 124.608 115.63 124.751 115.371 124.637C114.97 124.464 114.97 122.686 115.371 122.514Z" fill="#5992CA"/>
<path d="M106.365 120.219C106.68 120.076 109.692 120.334 110.61 120.219C112.331 123.547 109.749 121.711 106.709 122.342C105.762 122.084 105.963 120.391 106.365 120.219Z" fill="#5992CA"/>
<path d="M112.015 125.01C115.658 125.21 116.892 124.092 116.519 127.046C114.425 126.931 110.897 128.251 112.015 125.01Z" fill="#5992CA"/>
<path d="M118.211 120.219C120.707 120.535 122.916 119.072 123.26 122.084C121.539 122.284 116.949 123.03 118.211 120.219Z" fill="#5992CA"/>
<path d="M124.034 125.01C127.218 125.239 128.652 124.034 128.882 127.046C125.325 127.103 123.575 127.964 124.034 125.01Z" fill="#4682C3"/>
<path d="M103.525 122.514C103.726 122.399 107.827 122.457 108.028 122.944C109.032 125.555 105.16 124.378 103.525 124.637C103.066 124.407 103.381 122.6 103.525 122.514Z" fill="#5992CA"/>
<path d="M79.487 120.219C83.3308 120.391 84.7363 119.387 83.8184 122.084C79.6878 122.141 77.7086 122.887 79.487 120.219Z" fill="#5992CA"/>
<path d="M130.23 120.219C133.185 120.449 134.906 119.244 135.451 122.084C133.443 121.969 129.284 123.26 130.23 120.219Z" fill="#5992CA"/>
<path d="M61.2723 127.821C61.4731 127.763 65.6323 127.735 65.7758 127.907C65.1447 130.919 62.936 129.656 60.1249 129.685C60.0675 129.599 61.0428 127.907 61.2723 127.821Z" fill="#6EA0CB"/>
<path d="M136.397 117.752C138.176 117.81 138.663 119.445 138.606 119.617C138.405 120.133 134.533 119.387 133.758 119.875C132.238 117.982 132.496 117.609 136.397 117.752Z" fill="#5992CA"/>
<path d="M66.751 127.821C67.0092 127.735 71.1111 127.706 71.2545 128.079C71.2832 128.165 70.7095 129.628 70.2792 129.771C69.7342 129.943 66.9805 129.656 65.8618 129.771C65.5463 129.57 66.4642 127.935 66.751 127.821Z" fill="#6EA0CB"/>
<path d="M100.341 120.219C100.542 120.133 104.385 120.133 104.586 120.219C104.959 120.391 104.902 121.998 104.844 122.084C104.701 122.284 100.169 122.313 99.9965 122.17C99.767 122.026 100.083 120.363 100.341 120.219Z" fill="#5992CA"/>
<path d="M130.029 125.01C133.357 125.21 134.475 124.063 134.705 127.046C132.726 127.075 129.284 127.964 130.029 125.01Z" fill="#5992CA"/>
<path d="M85.31 120.219C87.3466 120.391 90.7888 119.502 89.6414 121.711C89.1824 122.6 85.9124 121.94 84.7937 122.141L85.31 120.19V120.219Z" fill="#5992CA"/>
<path d="M72.9469 117.752C73.4059 117.666 76.4464 117.666 76.5612 118.01C76.5899 118.097 75.8441 119.645 75.758 119.703C75.4138 119.846 72.0003 119.588 70.9964 119.703C71.1972 118.412 71.7135 117.953 72.9469 117.752Z" fill="#6EA0CB"/>
<path d="M121.367 122.514C122.715 122.916 125.182 122.514 125.44 122.686C125.526 122.743 125.899 124.292 125.87 124.378C125.755 124.694 118.986 125.555 121.367 122.514Z" fill="#5992CA"/>
<path d="M115.544 117.752C116.404 117.838 119.158 117.609 119.445 117.752C119.645 117.838 120.104 119.502 120.076 119.617C119.961 119.932 113.966 120.735 115.572 117.752H115.544Z" fill="#5992CA"/>
<path d="M109.721 117.752C110.552 117.838 113.536 117.638 113.794 117.752C113.966 117.838 114.339 119.645 114.224 119.789C114.081 119.961 109.893 119.818 109.721 119.703C109.635 119.645 109.348 117.924 109.721 117.752Z" fill="#5992CA"/>
<path d="M78.2536 127.821C81.667 127.993 83.2734 126.931 81.4376 129.943C77.938 129.829 76.3317 130.718 78.2536 127.821Z" fill="#5992CA"/>
<path d="M142.249 128.194C145.318 128.48 147.556 127.247 148.359 129.685C146.437 129.37 142.249 131.148 142.249 128.194Z" fill="#5992CA"/>
<path d="M66.4068 117.752C69.9924 118.183 71.943 116.92 69.7629 119.703C65.5463 119.559 64.0834 120.477 66.4068 117.752Z" fill="#6EA0CB"/>
<path d="M98.7631 117.752C100.054 117.494 103.439 117.552 102.377 119.617C102.263 119.846 98.046 119.846 97.8739 119.703C97.7591 119.617 97.3002 118.068 98.7631 117.752Z" fill="#5992CA"/>
<path d="M121.367 117.752C124.665 118.498 125.813 116.461 126.042 119.789C123.891 119.645 120.477 120.535 121.367 117.752Z" fill="#5992CA"/>
<path d="M72.2298 127.821C72.5166 127.677 75.4138 127.907 76.303 127.821C76.3891 130.718 75.1843 129.542 71.5414 129.771C71.3979 129.685 72.1151 127.878 72.2585 127.821H72.2298Z" fill="#5992CA"/>
<path d="M93.4564 117.752C97.0707 117.064 97.042 119.1 96.3823 119.617C96.038 119.875 92.6533 119.617 91.8788 119.703C91.7067 118.269 92.2517 117.982 93.4564 117.752Z" fill="#5992CA"/>
<path d="M105.303 117.752C108.975 117.265 108.573 119.273 108.229 119.789C108.114 119.961 104.07 119.818 103.898 119.703C103.783 119.617 103.037 118.068 105.303 117.752Z" fill="#5992CA"/>
<path d="M127.046 117.924C127.964 118.01 131.177 117.781 131.464 117.924C131.55 117.953 132.123 119.531 132.095 119.617C131.98 119.932 127.792 119.818 127.591 119.703C127.476 119.645 126.903 118.039 127.075 117.924H127.046Z" fill="#5992CA"/>
<path d="M78.5978 117.752C83.216 116.834 81.8392 119.473 81.2368 119.703C80.8639 119.846 77.9954 119.588 76.9914 119.703C77.2783 118.67 77.393 117.982 78.5691 117.752H78.5978Z" fill="#6EA0CB"/>
<path d="M136.397 128.194C137.459 128.251 142.421 127.649 141.618 129.685C141.503 129.972 136.139 130.775 136.397 128.194Z" fill="#5992CA"/>
<path d="M80.8926 125.01C81.2655 124.866 83.3881 125.096 84.2487 125.01C84.3634 128.05 82.9865 126.96 80.1754 127.132C79.8886 126.96 80.491 125.153 80.8926 125.01Z" fill="#5992CA"/>
<path d="M84.0766 117.752C87.5187 117.867 88.4079 117.093 86.9163 119.703C84.765 119.617 81.0934 120.42 84.0766 117.752Z" fill="#6EA0CB"/>
<path d="M139.237 117.752C140.7 117.351 143.396 117.58 143.568 119.617C140.786 119.617 139.897 120.563 138.807 118.039C138.95 118.039 139.18 117.781 139.237 117.781V117.752Z" fill="#5992CA"/>
<path d="M76.4751 125.01C76.8193 124.866 78.8273 125.096 79.6591 125.01C79.3149 128.021 78.4831 126.989 75.758 127.132C75.4425 126.931 76.1596 125.124 76.4751 125.01Z" fill="#5992CA"/>
<path d="M131.263 128.366C131.435 128.337 134.791 128.48 134.963 128.538C135.135 128.595 135.623 129.628 135.594 129.685C135.451 129.857 131.119 129.886 130.919 129.771C130.832 129.714 129.943 128.652 131.263 128.366Z" fill="#5992CA"/>
<path d="M84.9658 116.519C85.31 116.375 92.0509 116.404 92.3951 116.519C94.7759 117.351 85.1666 117.437 84.7937 117.236C84.5642 117.093 84.7363 116.634 84.9658 116.519Z" fill="#6EA0CB"/>
<path d="M78.4257 122.715C82.7857 122.055 81.581 125.182 77.9094 124.493L78.4257 122.715Z" fill="#6EA0CB"/>
<path d="M74.8975 122.715C75.1269 122.629 77.1349 122.6 77.2783 122.973C77.307 123.059 76.6472 124.407 76.4751 124.464C73.8075 125.468 73.7214 123.116 74.8975 122.686V122.715Z" fill="#6EA0CB"/>
<path d="M67.1239 116.519C67.4108 116.433 72.6888 116.375 72.9469 116.519C74.6967 117.437 66.751 117.437 66.665 116.949C66.8084 116.834 67.0092 116.548 67.0953 116.519H67.1239Z" fill="#6EA0CB"/>
<path d="M88.8669 117.924C89.0677 117.838 90.3872 117.982 90.9896 117.924C90.7601 120.277 90.6166 119.617 88.3506 119.703C88.2645 119.645 88.7235 118.01 88.8669 117.924Z" fill="#5992CA"/>
<path d="M90.6167 120.42C92.7106 119.416 92.8827 122.026 92.0222 122.371C89.8709 123.26 89.8995 120.764 90.6167 120.42Z" fill="#5992CA"/>
<path d="M112.532 116.519C112.819 116.404 118.842 116.261 118.097 117.15C117.896 117.408 110.352 117.437 112.532 116.519Z" fill="#5992CA"/>
<path d="M137.287 116.519C137.487 116.433 141.503 116.461 141.704 116.519C144.831 117.552 134.877 117.408 137.287 116.519Z" fill="#6EA0CB"/>
<path d="M105.819 116.519C106.02 116.404 110.208 116.433 110.409 116.519C112.704 117.322 104.012 117.695 105.819 116.519Z" fill="#5992CA"/>
<path d="M119.617 116.519C119.818 116.461 123.661 116.433 123.862 116.519C126.329 117.58 117.121 117.379 119.617 116.519Z" fill="#5992CA"/>
<path d="M79.1428 116.519C79.3436 116.462 83.0152 116.462 83.216 116.519C85.8263 117.437 76.0162 117.494 79.1428 116.519Z" fill="#6EA0CB"/>
<path d="M131.091 116.519C131.291 116.462 135.307 116.462 135.508 116.519C138.778 117.609 128.107 117.322 131.091 116.519Z" fill="#5992CA"/>
<path d="M94.1449 116.519C94.3457 116.433 98.0173 116.461 98.2181 116.519C100.714 117.408 91.6493 117.58 94.1449 116.519Z" fill="#6EA0CB"/>
<path d="M100.169 116.519C100.341 116.433 103.869 116.433 104.07 116.519C106.393 117.523 97.8739 117.494 100.169 116.519Z" fill="#6EA0CB"/>
<path d="M128.28 116.519C128.423 116.519 129.284 116.634 129.341 116.691C130.374 117.666 125.01 117.293 125.354 116.777C126.243 116.777 128.136 116.519 128.28 116.519Z" fill="#5992CA"/>
<path d="M74.7254 116.519C74.7254 116.519 77.2496 116.462 77.3644 116.519C79.8599 117.408 71.7422 117.465 74.7254 116.519Z" fill="#6EA0CB"/>
<path d="M73.4919 122.715C74.6393 122.112 73.578 124.292 72.7748 124.665C72.5453 124.579 73.3772 122.772 73.4919 122.715Z" fill="#6EA0CB"/>
<path d="M147.097 67.3821C146.724 74.3525 147.584 108.717 147.097 111.298C146.925 112.245 145.863 113.421 145.146 114.052C141.159 113.277 74.8688 114.138 63.8252 114.052C63.4236 113.22 62.1615 113.191 61.8746 111.499C61.6165 110.065 61.8746 86.6008 61.8746 82.6136L64.7144 82.5276C64.8865 80.4623 64.4849 69.5621 64.7144 68.9311C64.7718 68.759 65.0013 68.1853 65.1447 68.1279L143.712 68.3H65.3168C64.7144 68.5582 65.0586 79.7452 65.0586 81.2081C65.0299 86.6868 65.0299 92.1656 65.0586 97.6444C65.0586 99.1647 64.7144 110.811 65.3168 111.069H143.626C144.085 102.664 143.913 94.2022 143.884 85.7976C143.884 85.0805 143.884 84.3921 143.884 83.675L146.523 82.8718C146.207 79.1428 146.867 68.4721 146.695 66.9518C146.666 66.6937 145.806 65.8044 146.179 65.8044C146.638 66.3781 146.867 66.665 147.068 67.3821H147.097Z" fill="#D4D3D2"/>
<path d="M143.913 85.7689C143.941 94.1735 144.113 102.635 143.655 111.04H65.3455C64.7431 110.753 65.0873 99.1073 65.0873 97.6157L67.5542 97.4436C67.5542 101.173 67.5542 104.93 67.5542 108.659L67.8984 108.917H141.331C141.503 104.098 141.388 99.2507 141.417 94.4317C145.318 95.7512 142.765 89.0677 143.54 85.855C143.568 85.7116 143.769 85.7689 143.884 85.7689H143.913Z" fill="#5992CA"/>
<path d="M143.396 68.2713C143.282 69.2466 143.597 75.1269 143.396 75.4425C143.31 75.5572 141.761 75.758 141.446 75.7006C141.446 74.8114 141.618 70.2792 141.188 70.0498C140.27 69.935 139.926 70.2219 139.868 70.2219C115.802 69.935 91.7353 70.4227 67.6689 70.2219C67.4968 72.8609 67.6116 75.5285 67.5829 78.1675C64.1694 76.7907 65.7184 78.8273 65.116 81.1794C65.116 79.7165 64.8005 68.5295 65.3742 68.2713H143.425H143.396Z" fill="#6EA0CB"/>
<path d="M67.5542 78.1675C67.4968 84.5929 67.4968 91.0182 67.5542 97.4436L65.0873 97.6157C65.0586 92.1369 65.0586 86.6582 65.0873 81.1794C65.7184 78.8559 64.1407 76.7907 67.5542 78.1675Z" fill="#5992CA"/>
<path d="M143.741 68.2713C144.142 68.9311 143.913 81.6957 143.913 83.6463C143.913 84.3634 143.913 85.0518 143.913 85.7689C143.798 85.7689 143.597 85.7116 143.568 85.855C142.794 89.0677 145.347 95.7225 141.446 94.4317C141.446 88.2071 141.532 81.9252 141.446 75.7006C141.761 75.7293 143.31 75.5572 143.396 75.4425C143.597 75.1556 143.282 69.2466 143.396 68.2713H143.741Z" fill="#5992CA"/>
<path d="M146.207 65.7758C145.835 65.7758 146.695 66.665 146.724 66.9231C146.896 68.4434 146.236 79.0854 146.552 82.8431L143.913 83.6463C143.913 81.6957 144.142 68.9311 143.741 68.2713L65.1734 68.0992C65.03 68.1566 64.8005 68.7016 64.7431 68.9024C64.5136 69.5334 64.9152 80.4623 64.7431 82.4989L61.9033 82.5849C61.9033 79.5444 61.7025 68.7876 61.9033 67.6403C62.1041 66.4355 63.3949 64.8005 64.6571 64.5423C68.5869 63.7678 134.103 65.116 144.716 64.5423C145.462 64.8865 145.72 65.1734 146.207 65.7758Z" fill="white"/>
<path d="M104.414 65.9765C105.16 65.8905 105.361 67.0379 104.758 67.21C103.783 67.5255 103.553 66.0626 104.414 65.9765Z" fill="#414B6B"/>
<path d="M141.446 75.7006C141.532 81.9252 141.446 88.2071 141.446 94.4317C141.446 99.2507 141.532 104.098 141.36 108.917H67.9271L139.868 70.2219C139.868 70.2219 140.298 69.935 141.188 70.0498C141.647 70.2792 141.446 74.8401 141.446 75.7006Z" fill="url(#paint0_linear_23_269)"/>
<path d="M139.839 70.2219L67.8984 108.917L67.5542 108.659C67.5542 104.93 67.5542 101.173 67.5542 97.4436C67.4968 91.0182 67.4968 84.5929 67.5542 78.1675C67.5542 75.5285 67.4682 72.8609 67.6403 70.2219C91.7067 70.4227 115.773 69.935 139.839 70.2219Z" fill="url(#paint1_linear_23_269)"/>
<defs>
<linearGradient id="paint0_linear_23_269" x1="104.643" y1="72.7748" x2="104.729" y2="107.225" gradientUnits="userSpaceOnUse">
<stop stop-color="#83B4E1"/>
<stop offset="1" stop-color="#5A97D3"/>
</linearGradient>
<linearGradient id="paint1_linear_23_269" x1="103.754" y1="70.1071" x2="102.004" y2="106.996" gradientUnits="userSpaceOnUse">
<stop stop-color="#B3D1EE"/>
<stop offset="1" stop-color="#84B2E1"/>
</linearGradient>
</defs>
</svg>
