<svg width="200" height="200" viewBox="0 0 200 200" fill="none" xmlns="http://www.w3.org/2000/svg">
<circle cx="99.4999" cy="99.5" r="94.5" fill="#F3919F"/>
<g clip-path="url(#clip0_23_296)">
<path d="M21.6891 118.054L21.0092 113.935L40.4505 110.723L39.1587 102.866L42.7223 102.686L44.6362 114.258L21.6891 118.054Z" fill="#2D2E4E"/>
<path d="M35.3667 94.8112C37.6168 95.0837 40.1439 95.1047 40.4059 92.8204C40.6326 90.7901 38.9579 90.3214 38.3488 90.178L38.8079 86.2821C39.3621 86.4274 44.4707 87.4127 43.7504 93.2962C43.0691 99.0354 38.1666 99.2519 33.6785 98.7394C28.0754 98.0682 24.913 95.5416 25.4285 91.0502C26.0432 85.9288 30.0352 85.1069 34.6451 85.6482C35.2625 85.7144 36.091 85.8501 36.3793 85.9279L35.3342 94.8233L35.3667 94.8112ZM32.9996 89.5419C31.2795 89.3496 29.0695 89.2845 28.814 91.4367C28.5316 93.7657 31.1509 94.2341 32.4303 94.3869L33.0098 89.5195L32.9996 89.5419Z" fill="#2D2E4E"/>
<path d="M46.3894 70.705C47.1929 71.0724 49.2406 71.8467 50.0078 72.1164L48.5443 75.5531C48.2012 75.4773 47.4359 75.2624 46.957 75.0704C47.7302 76.1533 48.0414 77.5382 47.1871 79.5246C45.8341 82.6607 42.819 82.8217 40.4773 81.805C37.1332 80.3839 36.0791 77.2007 37.8695 73.0491C38.1147 72.5129 38.2865 72.0782 38.4722 71.7309L36.6886 70.9694C35.7512 70.5407 34.5535 70.2092 33.8626 71.8382C33.2023 73.4001 34.1575 74.026 35.1759 74.5727L33.6409 78.1657C31.2527 77.0737 29.1763 74.8277 31.0587 70.475C32.5631 66.949 34.9408 65.8212 38.0515 67.1626L46.4015 70.7376L46.3894 70.705ZM41.2323 72.7769C41.014 73.1363 40.8607 73.4714 40.636 73.9629C39.7101 76.1057 40.3672 77.3246 41.7044 77.882C42.6967 78.3087 44.0151 78.3173 44.6261 76.922C45.4498 75.0025 44.1644 74.0366 41.7335 72.9791L41.2202 72.7443L41.2323 72.7769Z" fill="#2D2E4E"/>
<path d="M43.4352 60.8182C41.122 59.0312 39.6663 57.9064 38.6302 57.1625L41.0273 54.0446C41.3073 54.1997 41.9034 54.6073 43.4037 55.7526C42.2118 53.992 42.2312 52.0019 43.703 50.0817L47.3481 52.91C45.526 55.1833 45.182 56.9979 47.8561 59.058L55.258 64.7657L52.7447 68.0195L43.4352 60.8182Z" fill="#2D2E4E"/>
<path d="M52.8576 48.9463C50.6266 46.0353 50.0516 45.2862 49.4562 44.5817L52.5807 42.1747C52.8989 42.4822 53.4012 43.0361 53.8041 43.5714C53.6343 42.4673 53.7543 40.8475 55.5843 39.4422C57.8845 37.6577 60.3169 38.1216 62.4912 40.9797L70.219 51.0503L66.9661 53.5607L59.8134 44.2393C58.7323 42.8265 57.8097 42.1885 56.4825 43.2024C55.2408 44.1474 55.2033 45.2917 56.8371 47.4434L63.5525 56.1867L60.2997 58.6972L52.8372 48.991L52.8576 48.9463Z" fill="#2D2E4E"/>
<path d="M94.7659 34.3707C94.1261 30.4585 93.4878 25.9527 93.1452 23.338L93.0578 23.352C92.9709 27.8504 92.9257 35.7984 92.6294 43.4694L88.9265 44.0723C86.6953 37.3255 84.0572 29.285 82.6241 24.9831L82.5042 25.0093C83.068 27.6712 83.9473 32.4762 84.5667 36.4332L85.8679 44.5646L82.1102 45.1694L78.4425 22.2066L84.5923 21.2099C86.825 27.3632 88.8848 33.5995 89.8981 36.8721L89.9204 36.8823C89.8983 33.6847 90.234 26.5178 90.4474 20.2675L96.4447 19.3091L100.112 42.2719L96.1798 42.9049L94.7984 34.3586L94.7659 34.3707Z" fill="#2D2E4E"/>
<path d="M118.59 36.2693C117.413 42.6195 114.565 45.0717 110.254 44.2892C106.021 43.5149 104.264 40.3344 105.428 33.9517C106.588 27.756 109.704 25.4262 113.828 26.2043C118.007 26.9805 119.663 30.4393 118.58 36.2916L118.59 36.2693ZM109.528 34.6647C108.833 38.426 109.071 40.5609 111.006 40.9324C112.82 41.2753 113.82 39.3827 114.504 35.6437C115.217 31.7828 114.911 29.9141 113.076 29.561C111.285 29.2283 110.222 30.9034 109.528 34.6647Z" fill="#2D2E4E"/>
<path d="M125.936 36.1977C127.196 33.5595 127.985 31.8941 128.506 30.7547L132.046 32.4546C131.935 32.7553 131.674 33.4459 130.875 35.1337C132.338 33.5874 134.279 33.1784 136.456 34.2009L134.478 38.3481C131.896 37.0321 130.053 37.108 128.587 40.1381L124.571 48.5665L120.874 46.7951L125.946 36.1753L125.936 36.1977Z" fill="#2D2E4E"/>
<path d="M139.249 48.3359C137.826 50.0895 136.427 52.205 138.201 53.6374C139.794 54.9332 141.093 53.7444 141.519 53.3448L144.559 55.8426C144.166 56.2302 140.561 59.984 135.984 56.2433C131.53 52.5861 133.987 48.3341 136.822 44.8492C140.407 40.4916 144.25 39.1694 147.72 42.0258C151.699 45.304 150.237 49.0923 147.296 52.6909C146.895 53.1556 146.357 53.801 146.122 54.0181L139.216 48.348L139.249 48.3359ZM144.957 49.1902C146.053 47.8547 147.297 46.0194 145.602 44.6502C143.772 43.1649 141.993 45.1069 141.182 46.1136L144.947 49.2125L144.957 49.1902Z" fill="#2D2E4E"/>
<path d="M178.295 81.8032L178.975 85.9229L159.535 89.1897L160.86 97.0345L157.296 97.2148L155.36 85.6326L178.305 81.7809L178.295 81.8032Z" fill="#2D2E4E"/>
<path d="M164.629 105.079C162.379 104.807 159.875 104.796 159.59 107.07C159.364 109.1 161.038 109.569 161.647 109.712L161.188 113.608C160.634 113.463 155.548 112.488 156.236 106.616C156.917 100.877 161.819 100.661 166.285 101.163C171.898 101.812 175.061 104.338 174.545 108.83C173.953 113.961 169.971 114.761 165.351 114.242C164.734 114.176 163.905 114.04 163.607 113.985L164.642 105.112L164.629 105.079ZM167.007 110.326C168.727 110.518 170.937 110.583 171.203 108.409C171.485 106.08 168.866 105.612 167.586 105.459L167.017 110.304L167.007 110.326Z" fill="#2D2E4E"/>
<path d="M153.651 129.206C152.848 128.838 150.8 128.064 150.023 127.817L151.486 124.38C151.829 124.456 152.595 124.671 153.074 124.863C152.3 123.78 151.989 122.395 152.844 120.408C154.174 117.262 157.212 117.111 159.553 118.128C162.897 119.549 163.951 122.732 162.161 126.884C161.916 127.42 161.744 127.855 161.558 128.202L163.342 128.964C164.29 129.37 165.477 129.724 166.168 128.095C166.828 126.533 165.873 125.907 164.855 125.36L166.39 121.767C168.778 122.859 170.864 125.083 168.994 129.468C167.5 132.972 165.112 134.122 162.001 132.781L153.651 129.206ZM158.819 127.111C159.037 126.752 159.19 126.417 159.415 125.925C160.341 123.783 159.662 122.554 158.324 121.996C157.332 121.569 156.003 121.583 155.392 122.979C154.569 124.898 155.854 125.864 158.295 126.899L158.809 127.134L158.819 127.111Z" fill="#2D2E4E"/>
<path d="M156.616 139.07C158.929 140.857 160.385 141.982 161.421 142.726L159.024 145.844C158.744 145.689 158.148 145.281 156.647 144.136C157.839 145.896 157.852 147.874 156.37 149.817L152.715 147.011C154.537 144.738 154.849 142.935 152.197 140.885L144.785 135.2L147.298 131.946L156.618 139.125L156.616 139.07Z" fill="#2D2E4E"/>
<path d="M147.228 150.985C149.469 153.873 150.044 154.623 150.629 155.349L147.505 157.756C147.187 157.449 146.684 156.895 146.281 156.36C146.451 157.464 146.331 159.084 144.501 160.489C142.201 162.273 139.768 161.809 137.584 158.974L129.846 148.926L133.099 146.415L140.262 155.714C141.343 157.127 142.276 157.743 143.593 156.751C144.834 155.806 144.872 154.662 143.238 152.51L136.512 143.789L139.765 141.279L147.228 150.985Z" fill="#2D2E4E"/>
<path d="M105.234 165.629C105.874 169.542 106.512 174.047 106.855 176.662L106.942 176.648C107.029 172.15 107.074 164.202 107.371 156.531L111.073 155.928C113.305 162.675 115.943 170.715 117.376 175.017L117.496 174.991C116.932 172.329 116.053 167.524 115.433 163.567L114.132 155.435L117.89 154.831L121.557 177.793L115.408 178.79C113.175 172.637 111.115 166.401 110.102 163.128L110.079 163.118C110.102 166.315 109.766 173.482 109.553 179.733L103.555 180.691L99.8876 157.728L103.82 157.095L105.201 165.641L105.234 165.629Z" fill="#2D2E4E"/>
<path d="M81.4101 163.731C82.5867 157.381 85.4351 154.928 89.7458 155.711C93.9793 156.485 95.7364 159.666 94.5719 166.048C93.412 172.244 90.2957 174.574 86.1719 173.796C81.9932 173.02 80.3365 169.561 81.4203 163.708L81.4101 163.731ZM90.4946 165.346C91.189 161.584 90.9508 159.449 89.0158 159.078C87.2026 158.735 86.2023 160.628 85.518 164.367C84.8051 168.227 85.111 170.096 86.9465 170.449C88.7374 170.782 89.8001 169.107 90.4946 165.346Z" fill="#2D2E4E"/>
<path d="M74.0642 163.802C72.8039 166.441 72.0154 168.106 71.4944 169.245L67.954 167.545C68.0644 167.245 68.3263 166.554 69.125 164.866C67.64 166.402 65.7213 166.822 63.5321 165.767L65.5094 161.619C68.092 162.935 69.9347 162.86 71.4012 159.829L75.4171 151.401L79.1137 153.172L74.0419 163.792L74.0642 163.802Z" fill="#2D2E4E"/>
<path d="M60.7513 151.664C62.1739 149.911 63.573 147.795 61.7992 146.363C60.2059 145.067 58.9067 146.256 58.4811 146.655L55.4404 144.157C55.8335 143.77 59.439 140.016 64.0162 143.757C68.4698 147.414 66.0128 151.666 63.1779 155.151C59.5932 159.508 55.7503 160.831 52.2799 157.974C48.3008 154.696 49.7632 150.908 52.704 147.309C53.1054 146.844 53.6434 146.199 53.8776 145.982L60.7839 151.652L60.7513 151.664ZM55.0432 150.81C53.9468 152.145 52.7028 153.981 54.3975 155.35C56.228 156.835 58.0065 154.893 58.8177 153.886L55.0534 150.788L55.0432 150.81Z" fill="#2D2E4E"/>
<circle cx="160" cy="66" r="5" fill="#FDAE5A"/>
<circle cx="39.9999" cy="135" r="5" fill="#FDAE5A"/>
</g>
<defs>
<clipPath id="clip0_23_296">
<rect width="150" height="150" fill="white" transform="translate(62.9808 0.603943) rotate(24.5726)"/>
</clipPath>
</defs>
</svg>
