<svg width="141" height="140" viewBox="0 0 141 140" fill="none" xmlns="http://www.w3.org/2000/svg">
<path d="M100.631 27.9122C105.698 25.3919 108.232 24.1317 110.574 23.6016C117.862 21.9526 125.461 24.5032 130.277 30.2149C131.826 32.051 133.086 34.5844 135.606 39.6514V39.6514C135.984 40.4114 136.173 40.7915 136.253 41.1428C136.5 42.236 136.118 43.3758 135.261 44.0983C134.985 44.3306 134.605 44.5196 133.845 44.8976L33.9354 94.5933C27.6777 97.7059 24.5488 99.2622 21.5722 99.4675C17.6034 99.7413 13.6883 98.4272 10.6884 95.8144C8.43842 93.8548 6.8821 90.726 3.76947 84.4682V84.4682C2.73193 82.3823 2.21316 81.3393 2.14472 80.3471C2.05346 79.0242 2.49148 77.7192 3.36241 76.7192C4.01561 75.9692 5.05857 75.4504 7.14449 74.4129L100.631 27.9122Z" fill="#FDAE5A"/>
<path d="M84.5148 116.157C84.5771 120.338 84.6083 122.429 84.2884 124.173C82.9746 131.333 77.4766 136.998 70.3582 138.524C68.6247 138.896 66.534 138.927 62.3526 138.989V138.989C60.9588 139.01 60.2618 139.021 59.6806 138.914C57.2937 138.476 55.4056 136.643 54.8967 134.271C54.7728 133.693 54.7624 132.996 54.7417 131.602L53.0888 20.6795C53.0255 16.4356 52.9939 14.3137 53.3943 12.5574C54.6398 7.09382 58.8269 2.78009 64.2509 1.37235C65.9945 0.91983 68.1164 0.88821 72.3603 0.824971V0.824971C74.6237 0.791244 75.7554 0.77438 76.6921 0.987911C79.606 1.65218 81.9067 3.88528 82.6575 6.77809C82.8988 7.708 82.9157 8.83971 82.9494 11.1031L84.5148 116.157Z" fill="#FDAE5A"/>
<path d="M121.885 86.8552C125.406 89.1104 127.167 90.238 128.445 91.467C133.692 96.5138 135.383 104.224 132.728 111.004C132.082 112.654 130.954 114.415 128.699 117.937V117.937C127.947 119.111 127.571 119.698 127.162 120.124C125.479 121.873 122.909 122.436 120.649 121.551C120.099 121.336 119.512 120.96 118.338 120.208L24.917 60.3835C21.3427 58.0946 19.5556 56.9501 18.3117 55.6472C14.4423 51.5938 13.155 45.7216 14.9737 40.4213C15.5584 38.7174 16.7028 36.9303 18.9917 33.356V33.356C20.2125 31.4497 20.8228 30.4965 21.5177 29.8332C23.6795 27.7695 26.8114 27.0829 29.6382 28.0529C30.5469 28.3647 31.5001 28.9751 33.4064 30.1958L121.885 86.8552Z" fill="#FDAE5A"/>
</svg>
