<svg width="145" height="148" viewBox="0 0 145 148" fill="none" xmlns="http://www.w3.org/2000/svg">
<path d="M115.872 102.027C118.611 106.979 119.981 109.455 120.612 111.773C122.577 118.981 120.361 126.684 114.864 131.745C113.098 133.372 110.621 134.742 105.669 137.481C104.926 137.891 104.555 138.097 104.207 138.192C103.126 138.486 101.971 138.154 101.211 137.329C100.967 137.064 100.762 136.693 100.351 135.95L46.3465 38.302C42.964 32.1859 41.2727 29.1279 40.9378 26.1631C40.4912 22.21 41.6333 18.2414 44.1128 15.1303C45.9725 12.7971 49.0305 11.1058 55.1466 7.7233C57.1853 6.59579 58.2046 6.03204 59.1929 5.9204C60.5106 5.77155 61.8335 6.15224 62.8705 6.97874C63.6482 7.59862 64.212 8.61797 65.3395 10.6567L115.872 102.027Z" fill="#F3919F"/>
<path d="M27.009 89.7736C22.8342 90.0181 20.7469 90.1404 18.9908 89.8968C11.7796 88.8965 5.88092 83.6508 4.04544 76.6056C3.59847 74.89 3.47619 72.8027 3.23162 68.6279C3.15009 67.2364 3.10933 66.5406 3.19053 65.9552C3.52396 63.5515 5.27255 61.5852 7.62093 60.9734C8.19279 60.8244 8.88858 60.7837 10.2802 60.7021L121.025 54.2144C125.262 53.9661 127.381 53.842 129.153 54.1654C134.665 55.1715 139.158 59.1665 140.801 64.524C141.329 66.2462 141.453 68.3647 141.701 72.6018C141.833 74.8616 141.9 75.9915 141.727 76.9366C141.191 79.8767 139.06 82.2726 136.203 83.1488C135.284 83.4305 134.154 83.4966 131.894 83.629L27.009 89.7736Z" fill="#F3919F"/>
<path d="M57.912 125.83C55.8125 129.447 54.7627 131.255 53.5906 132.585C48.7774 138.048 41.1478 140.073 34.2594 137.716C32.582 137.142 30.7737 136.093 27.157 133.993C25.9514 133.293 25.3487 132.943 24.9053 132.553C23.0845 130.948 22.4095 128.405 23.195 126.109C23.3863 125.55 23.7362 124.947 24.436 123.741L80.1305 27.8006C82.2614 24.1299 83.3268 22.2945 84.5743 20.9951C88.4551 16.9526 94.2655 15.4104 99.6402 16.9963C101.368 17.5061 103.203 18.5716 106.874 20.7024C108.832 21.8389 109.811 22.4071 110.504 23.0725C112.66 25.1422 113.482 28.2411 112.636 31.1076C112.364 32.029 111.796 33.0079 110.66 34.9656L57.912 125.83Z" fill="#F3919F"/>
</svg>
