<svg width="152" height="144" viewBox="0 0 152 144" fill="none" xmlns="http://www.w3.org/2000/svg">
<path d="M55.9006 34.0233C58.7762 20.4878 60.2139 13.72 64.4568 9.51466C66.4038 7.58482 68.7269 6.07587 71.2816 5.08151C76.8486 2.91469 83.6164 4.35245 97.1519 7.22796V7.22796C99.1823 7.65929 100.197 7.87495 100.828 8.51138C101.118 8.80344 101.344 9.15189 101.493 9.5351C101.818 10.3702 101.603 11.3853 101.171 13.4157L79.8126 113.955C76.8738 127.788 75.4044 134.705 70.194 138.089C64.9835 141.474 58.0668 140.004 44.2334 137.066V137.066C39.6222 136.086 37.3167 135.596 36.1885 133.859C35.0603 132.123 35.5501 129.817 36.5297 125.206L55.9006 34.0233Z" fill="#7059AD"/>
<path d="M123.159 62.6131C133.683 66.4892 138.945 68.4273 142.031 72.1338C144.053 74.562 145.4 77.4795 145.937 80.5933C146.756 85.3463 144.818 90.6084 140.942 101.133V101.133C139.65 104.641 139.004 106.395 137.768 107.424C136.959 108.097 135.986 108.546 134.949 108.725C133.364 108.998 131.61 108.352 128.102 107.06L32.469 71.8383C22.7303 68.2515 17.861 66.4581 15.1947 62.8575C13.9711 61.2051 13.1003 59.3189 12.6363 57.3158C11.6253 52.951 13.4187 48.0817 17.0055 38.343V38.343C18.9184 33.149 19.8749 30.552 21.7952 29.13C22.6765 28.4774 23.6825 28.013 24.7508 27.7655C27.0787 27.2263 29.6757 28.1828 34.8696 30.0957L123.159 62.6131Z" fill="#7059AD"/>
<path d="M102.161 41.7303C112.771 38.0927 118.075 36.2739 122.808 37.2003C125.909 37.8072 128.796 39.2196 131.178 41.2956C134.814 44.4646 136.632 49.7691 140.27 60.3782V60.3782C141.483 63.9145 142.089 65.6827 141.78 67.2605C141.578 68.2941 141.107 69.2562 140.415 70.0502C139.359 71.2622 137.59 71.8685 134.054 73.081L37.6505 106.136C27.8333 109.502 22.9247 111.185 18.5839 110.076C16.5918 109.567 14.7257 108.654 13.1014 107.393C9.56184 104.646 7.87878 99.7375 4.51267 89.9204V89.9204C2.71741 84.6845 1.81978 82.0666 2.41141 79.7515C2.68291 78.6891 3.16993 77.6938 3.84222 76.8275C5.30722 74.9397 7.92513 74.0421 13.161 72.2469L102.161 41.7303Z" fill="#7059AD"/>
</svg>
