<svg width="140" height="140" viewBox="0 0 140 140" fill="none" xmlns="http://www.w3.org/2000/svg">
<path d="M70.9428 17.4399C72.9388 8.0446 82.1732 2.04626 91.5685 4.0422V4.0422C92.9778 4.3416 93.8775 5.72676 93.5781 7.13605L68.5604 124.899C66.8389 133.003 58.8742 138.176 50.7707 136.455V136.455C48.0696 135.881 46.3451 133.226 46.9189 130.525L70.9428 17.4399Z" fill="#FDAE5A"/>
<path d="M124.899 71.4397C133.003 73.1612 138.176 81.1259 136.455 89.2293V89.2293C135.881 91.9305 133.226 93.655 130.525 93.0812L13.187 68.1537C6.14051 66.6568 1.64176 59.731 3.13872 52.6845V52.6845C3.93709 48.9264 7.63086 46.527 11.389 47.3254L124.899 71.4397Z" fill="#FDAE5A"/>
</svg>
